SplineFontDB: 3.2
FontName: HoodOrnament
FullName: Hood Ornament
FamilyName: Hood Ornament
Weight: Book
Copyright: www.fonttr.com
Version: Macromedia Fontographer 4.1.5 5/30/00
ItalicAngle: 0
UnderlinePosition: -143
UnderlineWidth: 20
Ascent: 1638
Descent: 410
InvalidEm: 0
sfntRevision: 0x00010000
LayerCount: 2
Layer: 0 1 "Back" 1
Layer: 1 1 "Fore" 0
XUID: [1021 390 -1381075780 11993]
StyleMap: 0x0040
FSType: 1
OS2Version: 3
OS2_WeightWidthSlopeOnly: 0
OS2_UseTypoMetrics: 0
CreationTime: 959694234
ModificationTime: 1765845374
PfmFamily: 81
TTFWeight: 400
TTFWidth: 5
LineGap: 0
VLineGap: 0
Panose: 0 0 4 0 0 0 0 0 0 0
OS2TypoAscent: 1665
OS2TypoAOffset: 0
OS2TypoDescent: -571
OS2TypoDOffset: 0
OS2TypoLinegap: 0
OS2WinAscent: 2200
OS2WinAOffset: 0
OS2WinDescent: 551
OS2WinDOffset: 0
HheadAscent: 1665
HheadAOffset: 0
HheadDescent: -571
HheadDOffset: 0
OS2SubXSize: 1434
OS2SubYSize: 1331
OS2SubXOff: 0
OS2SubYOff: 293
OS2SupXSize: 1434
OS2SupYSize: 1331
OS2SupXOff: 0
OS2SupYOff: 928
OS2StrikeYSize: 102
OS2StrikeYPos: 530
OS2CapHeight: 1661
OS2XHeight: 915
OS2Vendor: 'Alts'
OS2CodePages: 20000111.41000000
OS2UnicodeRanges: 800000af.10002048.00000000.00000000
DEI: 91125
TtTable: prep
NPUSHB
 23
 14
 14
 13
 13
 12
 12
 11
 11
 10
 10
 9
 9
 8
 8
 3
 3
 2
 2
 1
 1
 0
 0
 1
SCANTYPE
PUSHW_1
 511
SCANCTRL
RCVT
ROUND[Grey]
WCVTP
RCVT
ROUND[Grey]
WCVTP
RCVT
ROUND[Grey]
WCVTP
RCVT
ROUND[Grey]
WCVTP
RCVT
ROUND[Grey]
WCVTP
RCVT
ROUND[Grey]
WCVTP
RCVT
ROUND[Grey]
WCVTP
RCVT
ROUND[Grey]
WCVTP
RCVT
ROUND[Grey]
WCVTP
RCVT
ROUND[Grey]
WCVTP
RCVT
ROUND[Grey]
WCVTP
PUSHB_4
 5
 4
 70
 0
CALL
PUSHB_4
 7
 6
 70
 0
CALL
PUSHB_2
 4
 4
RCVT
ROUND[Grey]
WCVTP
PUSHB_2
 6
 6
RCVT
ROUND[Grey]
WCVTP
EndTTInstrs
TtTable: fpgm
NPUSHB
 1
 0
FDEF
SROUND
RCVT
DUP
PUSHB_1
 3
CINDEX
RCVT
SWAP
SUB
ROUND[Grey]
RTG
SWAP
ROUND[Grey]
ADD
WCVTP
ENDF
EndTTInstrs
ShortTable: cvt  45
  -539
  -13
  926
  1652
  230
  215
  213
  196
  215
  138
  257
  375
  609
  837
  608
  23190
  7667
  -12386
  25089
  -2396

StartChar: .notdef
Encoding: 65536 -1 0
Width: 1024
GlyphClass: 1
Flags: W
LayerCount: 2
Fore
SplineSet
128 0 m 1,0,-1
 128 1665 l 1,1,-1
 896 1665 l 1,2,-1
 896 0 l 1,3,-1
 128 0 l 1,0,-1
256 128 m 1,4,-1
 768 128 l 1,5,-1
 768 1537 l 1,6,-1
 256 1537 l 1,7,-1
 256 128 l 1,4,-1
EndSplineSet
Validated: 1
EndChar

StartChar: exclam
Encoding: 33 33 4
Width: 848
GlyphClass: 1
Flags: W
LayerCount: 2
Fore
SplineSet
1202 1638 m 1,0,-1
 791 418 l 1,1,-1
 573 418 l 1,2,-1
 926 1638 l 1,3,-1
 1202 1638 l 1,0,-1
745 213 m 1,4,-1
 682 0 l 1,5,-1
 436 0 l 1,6,-1
 504 213 l 1,7,-1
 745 213 l 1,4,-1
EndSplineSet
Validated: 1
EndChar

StartChar: quotedbl
Encoding: 34 34 5
Width: 928
GlyphClass: 1
Flags: W
LayerCount: 2
Fore
SplineSet
664 1661 m 1,0,-1
 436 1260 l 1,1,-1
 328 1260 l 1,2,-1
 416 1661 l 1,3,-1
 664 1661 l 1,0,-1
272 1661 m 1,4,-1
 45 1260 l 1,5,-1
 -63 1260 l 1,6,-1
 25 1661 l 1,7,-1
 272 1661 l 1,4,-1
EndSplineSet
Validated: 1
EndChar

StartChar: numbersign
Encoding: 35 35 6
Width: 1460
GlyphClass: 1
Flags: W
LayerCount: 2
Fore
SplineSet
1360 1128 m 1,0,-1
 1292 915 l 1,1,-1
 1102 915 l 1,2,-1
 1038 702 l 1,3,-1
 1237 702 l 1,4,-1
 1169 489 l 1,5,-1
 975 489 l 1,6,-1
 829 0 l 1,7,-1
 600 0 l 1,8,-1
 745 489 l 1,9,-1
 526 489 l 1,10,-1
 381 0 l 1,11,-1
 152 0 l 1,12,-1
 297 489 l 1,13,-1
 96 489 l 1,14,-1
 164 702 l 1,15,-1
 360 702 l 1,16,-1
 424 915 l 1,17,-1
 219 915 l 1,18,-1
 287 1128 l 1,19,-1
 487 1128 l 1,20,-1
 639 1638 l 1,21,-1
 868 1638 l 1,22,-1
 717 1128 l 1,23,-1
 936 1128 l 1,24,-1
 1087 1638 l 1,25,-1
 1317 1638 l 1,26,-1
 1165 1128 l 1,27,-1
 1360 1128 l 1,0,-1
872 915 m 1,28,-1
 653 915 l 1,29,-1
 590 702 l 1,30,-1
 809 702 l 1,31,-1
 872 915 l 1,28,-1
EndSplineSet
Validated: 1
EndChar

StartChar: dollar
Encoding: 36 36 7
Width: 1413
GlyphClass: 1
Flags: W
LayerCount: 2
Fore
SplineSet
1317 1374 m 0,0,1
 1317 1292 1317 1292 1286 1184 c 0,2,3
 1268 1122 1268 1122 1231 999 c 1,4,-1
 1001 999 l 1,5,-1
 1051 1162 l 2,6,7
 1081 1262 1081 1262 1081 1329 c 256,8,9
 1081 1396 1081 1396 1029 1417 c 0,10,11
 997 1430 997 1430 918 1430 c 1,12,-1
 756 891 l 1,13,14
 898 792 898 792 960 724 c 0,15,16
 1061 612 1061 612 1061 489 c 0,17,18
 1061 250 1061 250 889 119 c 0,19,20
 736 3 736 3 489 0 c 1,21,-1
 440 -164 l 1,22,-1
 293 -164 l 1,23,-1
 342 0 l 1,24,25
 199 7 199 7 110 66 c 0,26,27
 2 137 2 137 2 270 c 0,28,29
 2 353 2 353 41 463 c 2,30,31
 41 463 41 463 109 649 c 1,32,-1
 338 649 l 1,33,-1
 278 482 l 2,34,35
 242 379 242 379 242 311 c 0,36,37
 242 217 242 217 408 217 c 1,38,-1
 565 750 l 1,39,40
 406 864 406 864 346 929 c 0,41,42
 233 1050 233 1050 233 1178 c 0,43,44
 233 1205 233 1205 244 1253 c 0,45,46
 297 1484 297 1484 452 1574 c 0,47,48
 581 1649 581 1649 836 1649 c 1,49,-1
 879 1794 l 1,50,-1
 1026 1794 l 1,51,-1
 983 1649 l 1,52,53
 1129 1649 1129 1649 1217 1586 c 0,54,55
 1317 1515 1317 1515 1317 1374 c 0,0,1
770 1430 m 1,56,-1
 725 1430 l 2,57,58
 625 1430 625 1430 555 1357.5 c 128,-1,59
 485 1285 485 1285 485 1184 c 0,60,61
 485 1095 485 1095 635 979 c 1,62,-1
 770 1430 l 1,56,-1
823 457 m 0,63,64
 823 551 823 551 686 659 c 1,65,-1
 555 217 l 1,66,67
 674 217 674 217 746 276 c 0,68,69
 823 340 823 340 823 457 c 0,63,64
EndSplineSet
Validated: 1
EndChar

StartChar: percent
Encoding: 37 37 8
Width: 1174
GlyphClass: 1
Flags: W
LayerCount: 2
Fore
SplineSet
596 1501 m 0,0,1
 596 1434 596 1434 547.5 1385.5 c 128,-1,2
 499 1337 499 1337 432 1337 c 256,3,4
 365 1337 365 1337 316.5 1385.5 c 128,-1,5
 268 1434 268 1434 268 1501 c 256,6,7
 268 1568 268 1568 316.5 1616.5 c 128,-1,8
 365 1665 365 1665 432 1665 c 0,9,10
 500 1665 500 1665 548 1617 c 128,-1,11
 596 1569 596 1569 596 1501 c 0,0,1
1096 1638 m 1,12,-1
 211 0 l 1,13,-1
 -6 0 l 1,14,-1
 872 1638 l 1,15,-1
 1096 1638 l 1,12,-1
932 131 m 0,16,17
 932 64 932 64 883.5 15.5 c 128,-1,18
 835 -33 835 -33 768 -33 c 256,19,20
 701 -33 701 -33 652.5 15.5 c 128,-1,21
 604 64 604 64 604 131 c 256,22,23
 604 198 604 198 652.5 246.5 c 128,-1,24
 701 295 701 295 768 295 c 0,25,26
 836 295 836 295 884 247 c 128,-1,27
 932 199 932 199 932 131 c 0,16,17
EndSplineSet
Validated: 1
EndChar

StartChar: ampersand
Encoding: 38 38 9
Width: 1606
GlyphClass: 1
Flags: W
LayerCount: 2
Fore
SplineSet
1571 676 m 1,0,-1
 1448 463 l 1,1,-1
 1145 463 l 1,2,3
 1068 175 1068 175 952 87.5 c 128,-1,4
 836 0 836 0 535 0 c 2,5,-1
 205 0 l 2,6,7
 65 0 65 0 -23 48 c 0,8,9
 -135 109 -135 109 -135 238 c 0,10,11
 -135 402 -135 402 41 565 c 2,12,-1
 399 897 l 1,13,14
 368 977 368 977 307 1137 c 0,15,16
 254 1282 254 1282 254 1391 c 0,17,18
 254 1638 254 1638 514 1638 c 2,19,-1
 971 1638 l 2,20,21
 1192 1638 1192 1638 1192 1481 c 0,22,23
 1192 1335 1192 1335 1038 1194 c 2,24,-1
 649 838 l 1,25,-1
 762 524 l 1,26,-1
 532 524 l 1,27,-1
 477 680 l 1,28,29
 411 624 411 624 281 509 c 0,30,31
 109 352 109 352 109 283 c 0,32,33
 109 213 109 213 270 213 c 2,34,-1
 559 213 l 2,35,36
 723 213 723 213 805 268 c 0,37,38
 879 318 879 318 913 425 c 0,39,40
 916 434 916 434 985 676 c 1,41,-1
 1571 676 l 1,0,-1
926 1409 m 1,42,43
 907 1425 907 1425 868 1425 c 2,44,-1
 530 1425 l 2,45,46
 503 1425 503 1425 473 1421 c 1,47,48
 457 1409 457 1409 457 1395 c 0,49,50
 457 1341 457 1341 503 1225 c 2,51,52
 503 1225 503 1225 571 1057 c 1,53,-1
 752 1218 l 2,54,55
 926 1376 926 1376 926 1409 c 1,42,43
EndSplineSet
Validated: 1
EndChar

StartChar: quotesingle
Encoding: 39 39 10
Width: 537
GlyphClass: 1
Flags: W
LayerCount: 2
Fore
SplineSet
272 1661 m 1,0,-1
 45 1260 l 1,1,-1
 -63 1260 l 1,2,-1
 25 1661 l 1,3,-1
 272 1661 l 1,0,-1
EndSplineSet
Validated: 1
EndChar

StartChar: parenleft
Encoding: 40 40 11
Width: 1204
GlyphClass: 1
Flags: W
LayerCount: 2
Fore
SplineSet
1493 1739 m 1,0,1
 1206 1574 1206 1574 988 1294 c 0,2,3
 702 927 702 927 702 498 c 0,4,5
 702 196 702 196 872 -154 c 1,6,-1
 639 -154 l 1,7,8
 477 170 477 170 477 508 c 0,9,10
 477 558 477 558 479 584 c 0,11,12
 535 1297 535 1297 1182 1739 c 1,13,-1
 1493 1739 l 1,0,1
EndSplineSet
Validated: 1
EndChar

StartChar: parenright
Encoding: 41 41 12
Width: 1204
GlyphClass: 1
Flags: W
LayerCount: 2
Fore
SplineSet
1212 1001 m 0,0,1
 1191 646 1191 646 999 342 c 0,2,3
 819 56 819 56 510 -154 c 1,4,-1
 199 -154 l 1,5,6
 481 7 481 7 703 292 c 0,7,8
 962 624 962 624 987 1001 c 0,9,10
 989 1031 989 1031 989 1085 c 0,11,12
 989 1391 989 1391 819 1739 c 1,13,-1
 1053 1739 l 1,14,15
 1214 1415 1214 1415 1214 1077 c 0,16,17
 1214 1035 1214 1035 1212 1001 c 0,0,1
EndSplineSet
Validated: 1
EndChar

StartChar: asterisk
Encoding: 42 42 13
Width: 985
GlyphClass: 1
Flags: W
LayerCount: 2
Fore
SplineSet
795 1425 m 1,0,-1
 645 1421 l 1,1,-1
 743 1317 l 1,2,-1
 657 1231 l 1,3,-1
 553 1327 l 1,4,-1
 549 1186 l 1,5,-1
 426 1186 l 1,6,-1
 422 1327 l 1,7,-1
 317 1231 l 1,8,-1
 231 1317 l 1,9,-1
 330 1421 l 1,10,-1
 186 1425 l 1,11,-1
 186 1546 l 1,12,-1
 330 1552 l 1,13,-1
 227 1661 l 1,14,-1
 313 1747 l 1,15,-1
 422 1645 l 1,16,-1
 426 1794 l 1,17,-1
 549 1794 l 1,18,-1
 553 1645 l 1,19,-1
 662 1747 l 1,20,-1
 748 1661 l 1,21,-1
 645 1552 l 1,22,-1
 795 1546 l 1,23,-1
 795 1425 l 1,0,-1
EndSplineSet
Validated: 1
EndChar

StartChar: plus
Encoding: 43 43 14
Width: 1083
GlyphClass: 1
Flags: W
LayerCount: 2
Fore
SplineSet
922 676 m 1,0,-1
 854 463 l 1,1,-1
 616 463 l 1,2,-1
 537 203 l 1,3,-1
 313 203 l 1,4,-1
 395 463 l 1,5,-1
 147 463 l 1,6,-1
 215 676 l 1,7,-1
 463 676 l 1,8,-1
 545 938 l 1,9,-1
 762 938 l 1,10,-1
 682 676 l 1,11,-1
 922 676 l 1,0,-1
EndSplineSet
Validated: 1
EndChar

StartChar: comma
Encoding: 44 44 15
Width: 788
GlyphClass: 1
Flags: W
LayerCount: 2
Fore
SplineSet
745 213 m 1,0,-1
 682 0 l 1,1,-1
 518 -188 l 1,2,-1
 408 -188 l 1,3,-1
 528 0 l 1,4,-1
 432 0 l 1,5,-1
 498 213 l 1,6,-1
 745 213 l 1,0,-1
EndSplineSet
Validated: 1
EndChar

StartChar: hyphen
Encoding: 45 45 16
AltUni2: 002010.ffffffff.0 002010.ffffffff.0
Width: 1058
GlyphClass: 1
Flags: W
LayerCount: 2
Fore
SplineSet
890 676 m 1,0,-1
 822 463 l 1,1,-1
 115 463 l 1,2,-1
 183 676 l 1,3,-1
 890 676 l 1,0,-1
EndSplineSet
Validated: 1
EndChar

StartChar: period
Encoding: 46 46 17
Width: 788
GlyphClass: 1
Flags: W
LayerCount: 2
Fore
SplineSet
745 213 m 1,0,-1
 682 0 l 1,1,-1
 436 0 l 1,2,-1
 500 213 l 1,3,-1
 745 213 l 1,0,-1
EndSplineSet
Validated: 1
EndChar

StartChar: slash
Encoding: 47 47 18
Width: 1347
GlyphClass: 1
Flags: W
LayerCount: 2
Fore
SplineSet
1372 1778 m 1,0,-1
 249 -195 l 1,1,-1
 10 -195 l 1,2,-1
 1132 1778 l 1,3,-1
 1372 1778 l 1,0,-1
EndSplineSet
Validated: 1
EndChar

StartChar: zero
Encoding: 48 48 19
Width: 1544
GlyphClass: 1
Flags: W
LayerCount: 2
Fore
SplineSet
528 -2 m 0,0,1
 316 -2 316 -2 206 157 c 0,2,3
 111 295 111 295 111 516 c 0,4,5
 111 762 111 762 243 1033 c 0,6,7
 370 1296 370 1296 561 1462 c 0,8,9
 782 1655 782 1655 1024 1655 c 0,10,11
 1234 1655 1234 1655 1345 1494 c 0,12,13
 1442 1354 1442 1354 1442 1135 c 0,14,15
 1442 889 1442 889 1310 619 c 0,16,17
 1183 358 1183 358 991 191 c 0,18,19
 769 -2 769 -2 528 -2 c 0,0,1
1204 1079 m 0,20,21
 1204 1214 1204 1214 1148 1313 c 0,22,23
 1080 1434 1080 1434 956 1434 c 0,24,25
 718 1434 718 1434 522 1114 c 0,26,27
 346 827 346 827 346 573 c 0,28,29
 346 439 346 439 402 339 c 0,30,31
 470 217 470 217 594 217 c 0,32,33
 832 217 832 217 1028 537 c 0,34,35
 1204 824 1204 824 1204 1079 c 0,20,21
EndSplineSet
Validated: 1
EndChar

StartChar: one
Encoding: 49 49 20
Width: 870
GlyphClass: 1
Flags: W
LayerCount: 2
Fore
SplineSet
776 1497 m 1,0,-1
 332 0 l 1,1,-1
 106 0 l 1,2,-1
 532 1425 l 1,3,-1
 137 1425 l 1,4,-1
 248 1638 l 1,5,-1
 694 1638 l 1,6,-1
 776 1497 l 1,0,-1
EndSplineSet
Validated: 1
EndChar

StartChar: two
Encoding: 50 50 21
Width: 1477
GlyphClass: 1
Flags: W
LayerCount: 2
Fore
SplineSet
492 213 m 1,0,-1
 1081 213 l 1,1,-1
 952 0 l 1,2,-1
 203 0 l 1,3,-1
 145 184 l 1,4,-1
 969 967 l 2,5,6
 1039 1034 1039 1034 1088 1120 c 0,7,8
 1145 1220 1145 1220 1145 1303 c 0,9,10
 1145 1446 1145 1446 948 1446 c 0,11,12
 812 1446 812 1446 743 1400 c 0,13,14
 681 1358 681 1358 651 1268 c 0,15,16
 645 1248 645 1248 588 1055 c 1,17,-1
 358 1055 l 1,18,19
 434 1303 434 1303 466 1374 c 0,20,21
 538 1534 538 1534 660 1601 c 0,22,23
 771 1661 771 1661 958 1661 c 0,24,25
 1138 1661 1138 1661 1248 1588 c 0,26,27
 1378 1502 1378 1502 1378 1331 c 0,28,29
 1378 1067 1378 1067 1110 809 c 2,30,-1
 492 213 l 1,0,-1
EndSplineSet
Validated: 1
EndChar

StartChar: three
Encoding: 51 51 22
Width: 1352
GlyphClass: 1
Flags: W
LayerCount: 2
Fore
SplineSet
1280 1464 m 1,0,-1
 877 1126 l 1,1,2
 1137 1126 1137 1126 1137 905 c 0,3,4
 1137 793 1137 793 1083 628 c 0,5,6
 1052 540 1052 540 993 362 c 0,7,8
 875 -18 875 -18 442 -18 c 0,9,10
 299 -18 299 -18 208 34 c 0,11,12
 94 99 94 99 94 231 c 0,13,14
 94 302 94 302 126 403 c 0,15,16
 144 458 144 458 180 569 c 1,17,-1
 410 569 l 1,18,19
 334 354 334 354 334 293 c 0,20,21
 334 186 334 186 481 186 c 0,22,23
 709 186 709 186 762 354 c 0,24,25
 790 435 790 435 844.5 598.5 c 128,-1,26
 899 762 899 762 899 846 c 0,27,28
 899 915 899 915 829 915 c 2,29,-1
 557 915 l 1,30,-1
 528 1090 l 1,31,-1
 928 1425 l 1,32,-1
 373 1425 l 1,33,-1
 500 1638 l 1,34,-1
 1251 1638 l 1,35,-1
 1280 1464 l 1,0,-1
EndSplineSet
Validated: 1
EndChar

StartChar: four
Encoding: 52 52 23
Width: 1284
GlyphClass: 1
Flags: W
LayerCount: 2
Fore
SplineSet
1200 668 m 1,0,-1
 1067 446 l 1,1,-1
 879 446 l 1,2,-1
 743 0 l 1,3,-1
 520 0 l 1,4,-1
 653 446 l 1,5,-1
 188 446 l 1,6,-1
 74 610 l 1,7,-1
 915 1638 l 1,8,-1
 1178 1638 l 1,9,-1
 385 668 l 1,10,-1
 721 668 l 1,11,-1
 856 1124 l 1,12,-1
 1079 1124 l 1,13,-1
 944 668 l 1,14,-1
 1200 668 l 1,0,-1
EndSplineSet
Validated: 1
EndChar

StartChar: five
Encoding: 53 53 24
Width: 1446
GlyphClass: 1
Flags: W
LayerCount: 2
Fore
SplineSet
1395 1638 m 1,0,-1
 1266 1425 l 1,1,-1
 782 1425 l 1,2,-1
 694 1126 l 1,3,4
 701 1126 701 1126 718 1126 c 0,5,6
 740 1127 740 1127 753 1127 c 2,7,8
 753 1127 753 1127 813 1127 c 0,9,10
 981 1127 981 1127 1059 1087 c 0,11,12
 1171 1029 1171 1029 1171 870 c 0,13,14
 1171 769 1171 769 1118 608 c 0,15,16
 1088 524 1088 524 1032 354 c 0,17,18
 962 132 962 132 837.5 48.5 c 128,-1,19
 713 -35 713 -35 477 -35 c 0,20,21
 332 -35 332 -35 243 18 c 0,22,23
 133 83 133 83 133 219 c 0,24,25
 133 300 133 300 169 413 c 0,26,27
 176 436 176 436 231 600 c 1,28,-1
 459 600 l 1,29,-1
 403 437 l 2,30,31
 369 337 369 337 369 270 c 0,32,33
 369 172 369 172 541 172 c 0,34,35
 746 172 746 172 803 354 c 0,36,37
 830 433 830 433 883 590 c 0,38,39
 934 743 934 743 934 827 c 0,40,41
 934 907 934 907 854 907 c 2,42,-1
 561 907 l 1,43,-1
 446 1040 l 1,44,-1
 623 1638 l 1,45,-1
 1395 1638 l 1,0,-1
EndSplineSet
Validated: 1
EndChar

StartChar: six
Encoding: 54 54 25
Width: 1378
GlyphClass: 1
Flags: W
LayerCount: 2
Fore
SplineSet
1200 1149 m 1,0,-1
 973 1149 l 1,1,2
 1026 1299 1026 1299 1026 1346 c 0,3,4
 1026 1450 1026 1450 864 1450 c 0,5,6
 642 1450 642 1450 588 1274 c 2,7,-1
 435 784 l 2,8,9
 311 382 311 382 311 328 c 0,10,11
 311 244 311 244 393 199 c 0,12,13
 460 162 460 162 551 162 c 0,14,15
 737 162 737 162 814 269 c 0,16,17
 852 322 852 322 922 551 c 0,18,19
 938 603 938 603 938 643 c 0,20,21
 938 784 938 784 729 784 c 0,22,23
 620 784 620 784 537 735 c 1,24,-1
 606 956 l 1,25,26
 691 981 691 981 770 981 c 0,27,28
 932 981 932 981 1039 908 c 0,29,30
 1163 825 1163 825 1163 670 c 0,31,32
 1163 589 1163 589 1129 483 c 0,33,34
 1108 423 1108 423 1069 303 c 0,35,36
 965 -27 965 -27 473 -27 c 0,37,38
 318 -27 318 -27 213 51 c 0,39,40
 96 138 96 138 96 287 c 0,41,42
 96 344 96 344 115 410 c 2,43,-1
 360 1264 l 2,44,45
 472 1655 472 1655 920 1655 c 0,46,47
 1064 1655 1064 1655 1153 1594 c 0,48,49
 1257 1524 1257 1524 1257 1386 c 0,50,51
 1257 1336 1257 1336 1200 1149 c 1,0,-1
EndSplineSet
Validated: 1
EndChar

StartChar: seven
Encoding: 55 55 26
Width: 1288
GlyphClass: 1
Flags: W
LayerCount: 2
Fore
SplineSet
1163 1503 m 1,0,-1
 862 915 l 1,1,-1
 1153 915 l 1,2,-1
 1028 702 l 1,3,-1
 754 702 l 1,4,-1
 391 0 l 1,5,-1
 150 0 l 1,6,-1
 518 702 l 1,7,-1
 219 702 l 1,8,-1
 344 915 l 1,9,-1
 629 915 l 1,10,-1
 889 1425 l 1,11,-1
 168 1425 l 1,12,-1
 297 1638 l 1,13,-1
 1133 1638 l 1,14,-1
 1163 1503 l 1,0,-1
EndSplineSet
Validated: 1
EndChar

StartChar: eight
Encoding: 56 56 27
Width: 1450
GlyphClass: 1
Flags: W
LayerCount: 2
Fore
SplineSet
1327 1352 m 0,0,1
 1327 1078 1327 1078 1061 924 c 1,2,3
 1186 874 1186 874 1186 707 c 0,4,5
 1186 618 1186 618 1148 501 c 0,6,7
 1125 435 1125 435 1081 303 c 0,8,9
 979 -27 979 -27 485 -27 c 0,10,11
 332 -27 332 -27 228 50 c 0,12,13
 113 136 113 136 113 285 c 0,14,15
 113 375 113 375 150 497 c 0,16,17
 172 565 172 565 215 702 c 0,18,19
 289 951 289 951 481 1008 c 1,20,21
 442 1084 442 1084 442 1169 c 0,22,23
 442 1317 442 1317 530 1425 c 1,24,-1
 303 1425 l 1,25,-1
 434 1638 l 1,26,-1
 1001 1638 l 2,27,28
 1141 1638 1141 1638 1230 1566 c 0,29,30
 1327 1489 1327 1489 1327 1352 c 0,0,1
1104 1298 m 0,31,32
 1104 1425 1104 1425 973 1425 c 2,33,-1
 791 1425 l 1,34,35
 727 1394 727 1394 688 1326 c 0,36,37
 651 1262 651 1262 651 1188 c 0,38,39
 651 1118 651 1118 693 1075 c 128,-1,40
 735 1032 735 1032 805 1032 c 0,41,42
 922 1032 922 1032 1010 1105 c 0,43,44
 1104 1183 1104 1183 1104 1298 c 0,31,32
967 705 m 0,45,46
 967 844 967 844 741 844 c 0,47,48
 485 844 485 844 428 657 c 0,49,50
 408 599 408 599 369 484 c 0,51,52
 334 379 334 379 334 305 c 0,53,54
 334 162 334 162 565 162 c 0,55,56
 706 162 706 162 783 222 c 0,57,58
 850 274 850 274 884 381 c 0,59,60
 906 457 906 457 950 610 c 0,61,62
 967 668 967 668 967 705 c 0,45,46
EndSplineSet
Validated: 1
EndChar

StartChar: nine
Encoding: 57 57 28
Width: 1434
GlyphClass: 1
Flags: W
LayerCount: 2
Fore
SplineSet
477 -37 m 0,0,1
 137 -37 137 -37 137 217 c 0,2,3
 137 274 137 274 197 471 c 1,4,-1
 424 471 l 1,5,-1
 388 368 l 2,6,7
 367 306 367 306 367 262 c 0,8,9
 367 170 367 170 532 170 c 0,10,11
 755 170 755 170 809 346 c 0,12,13
 860 509 860 509 962 836 c 0,14,15
 1085 1235 1085 1235 1085 1292 c 0,16,17
 1085 1376 1085 1376 1004 1421 c 0,18,19
 938 1458 938 1458 846 1458 c 0,20,21
 658 1458 658 1458 582 1352 c 0,22,23
 546 1302 546 1302 475 1069 c 0,24,25
 459 1017 459 1017 459 977 c 0,26,27
 459 836 459 836 668 836 c 0,28,29
 780 836 780 836 860 885 c 1,30,-1
 791 664 l 1,31,32
 715 639 715 639 627 639 c 0,33,34
 466 639 466 639 358 711 c 0,35,36
 233 795 233 795 233 948 c 0,37,38
 233 1030 233 1030 267 1136 c 0,39,40
 288 1196 288 1196 328 1317 c 0,41,42
 432 1647 432 1647 924 1647 c 0,43,44
 1078 1647 1078 1647 1183 1569 c 0,45,46
 1300 1482 1300 1482 1300 1333 c 0,47,48
 1300 1273 1300 1273 1282 1210 c 2,49,-1
 1036 354 l 2,50,51
 924 -37 924 -37 477 -37 c 0,0,1
EndSplineSet
Validated: 1
EndChar

StartChar: colon
Encoding: 58 58 29
Width: 911
GlyphClass: 1
Flags: W
LayerCount: 2
Fore
SplineSet
924 793 m 1,0,-1
 860 580 l 1,1,-1
 616 580 l 1,2,-1
 680 793 l 1,3,-1
 924 793 l 1,0,-1
750 213 m 1,4,-1
 686 0 l 1,5,-1
 442 0 l 1,6,-1
 506 213 l 1,7,-1
 750 213 l 1,4,-1
EndSplineSet
Validated: 1
EndChar

StartChar: semicolon
Encoding: 59 59 30
Width: 911
GlyphClass: 1
Flags: W
LayerCount: 2
Fore
SplineSet
920 793 m 1,0,-1
 856 580 l 1,1,-1
 612 580 l 1,2,-1
 676 793 l 1,3,-1
 920 793 l 1,0,-1
745 213 m 1,4,-1
 682 0 l 1,5,-1
 518 -188 l 1,6,-1
 408 -188 l 1,7,-1
 528 0 l 1,8,-1
 432 0 l 1,9,-1
 498 213 l 1,10,-1
 745 213 l 1,4,-1
EndSplineSet
Validated: 1
EndChar

StartChar: less
Encoding: 60 60 31
Width: 1212
GlyphClass: 1
Flags: W
LayerCount: 2
Fore
SplineSet
1149 913 m 1,0,-1
 1098 743 l 1,1,-1
 332 438 l 1,2,-1
 915 133 l 1,3,-1
 864 -39 l 1,4,-1
 78 362 l 1,5,-1
 123 512 l 1,6,-1
 1149 913 l 1,0,-1
EndSplineSet
Validated: 1
EndChar

StartChar: equal
Encoding: 61 61 32
Width: 1137
GlyphClass: 1
Flags: W
LayerCount: 2
Fore
SplineSet
977 850 m 1,0,-1
 909 637 l 1,1,-1
 203 637 l 1,2,-1
 270 850 l 1,3,-1
 977 850 l 1,0,-1
866 506 m 1,4,-1
 799 293 l 1,5,-1
 92 293 l 1,6,-1
 160 506 l 1,7,-1
 866 506 l 1,4,-1
EndSplineSet
Validated: 1
EndChar

StartChar: greater
Encoding: 62 62 33
Width: 1212
GlyphClass: 1
Flags: W
LayerCount: 2
Fore
SplineSet
1171 512 m 1,0,-1
 1126 362 l 1,1,-1
 100 -39 l 1,2,-1
 152 133 l 1,3,-1
 915 438 l 1,4,-1
 334 743 l 1,5,-1
 385 913 l 1,6,-1
 1171 512 l 1,0,-1
EndSplineSet
Validated: 1
EndChar

StartChar: question
Encoding: 63 63 34
Width: 1210
GlyphClass: 1
Flags: W
LayerCount: 2
Fore
SplineSet
1434 1255 m 0,0,1
 1398 1135 1398 1135 1316 1042 c 0,2,3
 1260 978 1260 978 1127.5 873.5 c 128,-1,4
 995 769 995 769 939 706 c 0,5,6
 850 607 850 607 805 485 c 2,7,-1
 780 418 l 1,8,-1
 551 418 l 1,9,-1
 573 485 l 2,10,11
 637 679 637 679 760 816 c 0,12,13
 842 907 842 907 1055 1073 c 0,14,15
 1179 1169 1179 1169 1204 1255 c 0,16,17
 1217 1299 1217 1299 1217 1325 c 0,18,19
 1217 1425 1217 1425 1055 1425 c 2,20,-1
 825 1425 l 2,21,22
 719 1425 719 1425 692 1335 c 2,23,-1
 588 987 l 1,24,-1
 365 987 l 1,25,-1
 469 1335 l 2,26,27
 532 1547 532 1547 706 1609 c 0,28,29
 787 1638 787 1638 893 1638 c 2,30,-1
 1120 1638 l 2,31,32
 1456 1638 1456 1638 1456 1393 c 0,33,34
 1456 1328 1456 1328 1434 1255 c 0,0,1
752 213 m 1,35,-1
 688 0 l 1,36,-1
 442 0 l 1,37,-1
 510 213 l 1,38,-1
 752 213 l 1,35,-1
EndSplineSet
Validated: 1
EndChar

StartChar: at
Encoding: 64 64 35
Width: 2050
GlyphClass: 1
Flags: W
LayerCount: 2
Fore
SplineSet
1956 1188 m 0,0,1
 1956 900 1956 900 1752 652 c 0,2,3
 1541 395 1541 395 1260 395 c 0,4,5
 1061 395 1061 395 1061 526 c 0,6,7
 1061 562 1061 562 1090 645 c 1,8,9
 794 393 794 393 653 393 c 0,10,11
 516 393 516 393 516 508 c 0,12,13
 516 557 516 557 588 810 c 2,14,-1
 625 940 l 2,15,16
 696 1190 696 1190 963 1190 c 2,17,-1
 1477 1190 l 1,18,19
 1445 1087 1445 1087 1429 1035 c 2,20,-1
 1357 795 l 2,21,22
 1305 622 1305 622 1305 614 c 0,23,24
 1305 602 1305 602 1325 602 c 0,25,26
 1462 602 1462 602 1597 808 c 0,27,28
 1726 1004 1726 1004 1726 1151 c 0,29,30
 1726 1375 1726 1375 1424 1411 c 0,31,32
 1307 1425 1307 1425 1157 1425 c 0,33,34
 771 1425 771 1425 578 1325 c 0,35,36
 330 1197 330 1197 330 848 c 0,37,38
 330 440 330 440 508 282 c 0,39,40
 611 190 611 190 795 190 c 0,41,42
 1126 190 1126 190 1288 268 c 1,43,-1
 1358 61 l 1,44,45
 1176 -25 1176 -25 831 -25 c 2,46,-1
 760 -25 l 2,47,48
 549 -25 549 -25 393.5 81.5 c 128,-1,49
 238 188 238 188 162 384 c 0,50,51
 90 569 90 569 90 788 c 0,52,53
 90 1295 90 1295 415 1489 c 0,54,55
 679 1647 679 1647 1223 1647 c 0,56,57
 1956 1647 1956 1647 1956 1188 c 0,0,1
1208 991 m 1,58,-1
 905 991 l 2,59,60
 870 991 870 991 854 940 c 2,61,-1
 752 610 l 1,62,63
 860 645 860 645 1102 869 c 0,64,65
 1195 955 1195 955 1208 991 c 1,58,-1
EndSplineSet
Validated: 1
EndChar

StartChar: A
Encoding: 65 65 36
Width: 2716
GlyphClass: 1
Flags: W
LayerCount: 2
Fore
SplineSet
2451 1638 m 1,0,-1
 1962 0 l 1,1,-1
 1739 0 l 1,2,-1
 1878 457 l 1,3,-1
 1274 457 l 1,4,5
 1132 210 1132 210 905 99 c 0,6,7
 700 0 700 0 397 0 c 2,8,-1
 16 0 l 1,9,-1
 143 213 l 1,10,11
 187 213 187 213 274 211 c 128,-1,12
 361 209 361 209 405 209 c 0,13,14
 607 209 607 209 728 251 c 0,15,16
 887 306 887 306 1006 457 c 1,17,-1
 440 457 l 1,18,-1
 569 676 l 1,19,-1
 1130 676 l 1,20,21
 1338 1123 1338 1123 1431 1258 c 0,22,23
 1598 1501 1598 1501 1882 1583 c 0,24,25
 2073 1638 2073 1638 2451 1638 c 1,0,-1
2163 1425 m 1,26,27
 1850 1425 1850 1425 1652 1190 c 0,28,29
 1532 1048 1532 1048 1376 676 c 1,30,-1
 1942 676 l 1,31,-1
 2163 1425 l 1,26,27
EndSplineSet
Validated: 1
EndChar

StartChar: B
Encoding: 66 66 37
Width: 2339
GlyphClass: 1
Flags: W
LayerCount: 2
Fore
SplineSet
2046 1266 m 0,0,1
 2046 1000 2046 1000 1774 831 c 2,2,-1
 1307 541 l 1,3,4
 1374 479 1374 479 1400 439 c 0,5,6
 1438 380 1438 380 1438 309 c 0,7,8
 1438 139 1438 139 1290 61 c 0,9,10
 1175 0 1175 0 989 0 c 2,11,-1
 371 0 l 1,12,-1
 760 1290 l 1,13,-1
 977 1290 l 1,14,-1
 655 213 l 1,15,-1
 1040 213 l 2,16,17
 1202 213 1202 213 1202 293 c 0,18,19
 1202 350 1202 350 1124.5 421 c 128,-1,20
 1047 492 1047 492 1047 541 c 0,21,22
 1047 627 1047 627 1118 670 c 2,23,-1
 1618 973 l 2,24,25
 1800 1083 1800 1083 1800 1221 c 0,26,27
 1800 1330 1800 1330 1699 1383 c 0,28,29
 1620 1425 1620 1425 1501 1425 c 2,30,-1
 16 1425 l 1,31,-1
 143 1638 l 1,32,-1
 1554 1638 l 2,33,34
 1751 1638 1751 1638 1886 1553 c 0,35,36
 2046 1452 2046 1452 2046 1266 c 0,0,1
EndSplineSet
Validated: 1
EndChar

StartChar: C
Encoding: 67 67 38
Width: 2148
GlyphClass: 1
Flags: W
LayerCount: 2
Fore
SplineSet
2415 213 m 1,0,-1
 2290 0 l 1,1,-1
 582 0 l 2,2,3
 347 0 347 0 200 94 c 0,4,5
 25 206 25 206 25 428 c 0,6,7
 25 724 25 724 221 1024 c 0,8,9
 400 1296 400 1296 669 1473 c 0,10,11
 961 1665 961 1665 1245 1665 c 0,12,13
 1376 1665 1376 1665 1452 1597 c 0,14,15
 1532 1526 1532 1526 1532 1397 c 0,16,17
 1532 1307 1532 1307 1494 1188 c 0,18,19
 1472 1121 1472 1121 1427 987 c 1,20,-1
 1204 987 l 1,21,-1
 1266 1176 l 2,22,23
 1305 1296 1305 1296 1305 1368 c 0,24,25
 1305 1458 1305 1458 1202 1458 c 0,26,27
 991 1458 991 1458 749 1269 c 0,28,29
 547 1111 547 1111 408 899 c 0,30,31
 250 658 250 658 250 467 c 0,32,33
 250 213 250 213 633 213 c 2,34,-1
 2415 213 l 1,0,-1
EndSplineSet
Validated: 1
EndChar

StartChar: D
Encoding: 68 68 39
Width: 2513
GlyphClass: 1
Flags: W
LayerCount: 2
Fore
SplineSet
522 0 m 1,0,-1
 905 1290 l 1,1,-1
 1130 1290 l 1,2,-1
 807 213 l 1,3,4
 1055 217 1055 217 1329 355 c 0,5,6
 1592 488 1592 488 1761 682 c 0,7,8
 1958 909 1958 909 1958 1149 c 0,9,10
 1958 1425 1958 1425 1571 1425 c 2,11,-1
 119 1425 l 1,12,-1
 223 1638 l 1,13,-1
 1593 1638 l 2,14,15
 1854 1638 1854 1638 2007 1535 c 0,16,17
 2189 1414 2189 1414 2189 1165 c 0,18,19
 2189 765 2189 765 1815 436 c 0,20,21
 1492 152 1492 152 1065 47 c 0,22,23
 874 0 874 0 522 0 c 1,0,-1
EndSplineSet
Validated: 1
EndChar

StartChar: E
Encoding: 69 69 40
Width: 2152
GlyphClass: 1
Flags: W
LayerCount: 2
Fore
SplineSet
2419 213 m 1,0,-1
 2294 0 l 1,1,-1
 369 0 l 2,2,3
 230 0 230 0 144 57 c 0,4,5
 43 123 43 123 43 256 c 0,6,7
 43 422 43 422 165 523 c 0,8,9
 203 555 203 555 434 676 c 1,10,11
 406 752 406 752 352 903 c 0,12,13
 311 1025 311 1025 311 1139 c 0,14,15
 311 1391 311 1391 475 1521 c 0,16,17
 624 1638 624 1638 883 1638 c 2,18,-1
 1288 1638 l 2,19,20
 1581 1638 1581 1638 1581 1409 c 0,21,22
 1581 1319 1581 1319 1545 1195 c 0,23,24
 1524 1126 1524 1126 1483 989 c 1,25,-1
 1255 989 l 1,26,-1
 1317 1170 l 2,27,28
 1354 1282 1354 1282 1354 1356 c 0,29,30
 1354 1404 1354 1404 1314 1418 c 0,31,32
 1294 1425 1294 1425 1233 1425 c 2,33,-1
 868 1425 l 2,34,35
 722 1425 722 1425 633 1363 c 0,36,37
 530 1291 530 1291 530 1151 c 0,38,39
 530 1063 530 1063 601 892.5 c 128,-1,40
 672 722 672 722 672 641 c 0,41,42
 672 559 672 559 566 506 c 0,43,44
 500 477 500 477 368 418 c 0,45,46
 262 368 262 368 262 297 c 0,47,48
 262 213 262 213 365 213 c 2,49,-1
 2419 213 l 1,0,-1
EndSplineSet
Validated: 1
EndChar

StartChar: F
Encoding: 70 70 41
Width: 2370
GlyphClass: 1
Flags: W
LayerCount: 2
Fore
SplineSet
2023 676 m 1,0,-1
 1896 459 l 1,1,-1
 1495 459 l 1,2,-1
 1360 0 l 1,3,-1
 1137 0 l 1,4,-1
 1272 459 l 1,5,-1
 451 459 l 1,6,-1
 580 676 l 1,7,-1
 1337 676 l 1,8,-1
 1428 950 l 2,9,10
 1485 1127 1485 1127 1485 1235 c 0,11,12
 1485 1425 1485 1425 1241 1425 c 2,13,-1
 78 1425 l 1,14,-1
 205 1638 l 1,15,-1
 1296 1638 l 2,16,17
 1714 1638 1714 1638 1714 1286 c 0,18,19
 1714 1154 1714 1154 1659 975 c 0,20,21
 1652 953 1652 953 1563 676 c 1,22,-1
 2023 676 l 1,0,-1
EndSplineSet
Validated: 1
EndChar

StartChar: G
Encoding: 71 71 42
Width: 2949
GlyphClass: 1
Flags: W
LayerCount: 2
Fore
SplineSet
3219 213 m 1,0,-1
 3090 0 l 1,1,-1
 1667 0 l 1,2,-1
 1575 -338 l 2,3,4
 1536 -482 1536 -482 1482 -519 c 0,5,6
 1436 -551 1436 -551 1290 -551 c 2,7,-1
 791 -551 l 1,8,9
 842 -281 842 -281 1043 -70 c 0,10,11
 1240 136 1240 136 1509 213 c 1,12,-1
 1599 485 l 1,13,14
 1366 312 1366 312 1056 160 c 0,15,16
 679 -25 679 -25 469 -25 c 0,17,18
 275 -25 275 -25 167 69 c 0,19,20
 51 169 51 169 51 360 c 0,21,22
 51 689 51 689 290 1003 c 0,23,24
 503 1284 503 1284 838 1469 c 0,25,26
 1191 1665 1191 1665 1526 1665 c 0,27,28
 1664 1665 1664 1665 1752 1619 c 0,29,30
 1866 1560 1866 1560 1866 1434 c 0,31,32
 1866 1344 1866 1344 1823 1208 c 0,33,34
 1813 1175 1813 1175 1751 987 c 1,35,-1
 1524 987 l 1,36,37
 1634 1364 1634 1364 1634 1376 c 0,38,39
 1634 1450 1634 1450 1470 1450 c 0,40,41
 1208 1450 1208 1450 921 1283 c 0,42,43
 656 1130 656 1130 483 906 c 0,44,45
 287 652 287 652 287 401 c 0,46,47
 287 195 287 195 522 195 c 0,48,49
 836 195 836 195 1614 702 c 1,50,-1
 1890 702 l 1,51,-1
 1735 213 l 1,52,-1
 3219 213 l 1,0,-1
1446 -45 m 1,53,54
 1237 -134 1237 -134 1094 -360 c 1,55,-1
 1251 -360 l 2,56,57
 1352 -360 1352 -360 1394 -252 c 1,58,-1
 1446 -45 l 1,53,54
EndSplineSet
Validated: 1
EndChar

StartChar: H
Encoding: 72 72 43
Width: 2396
GlyphClass: 1
Flags: W
LayerCount: 2
Fore
SplineSet
2130 1638 m 1,0,-1
 1642 0 l 1,1,-1
 1419 0 l 1,2,-1
 1561 463 l 1,3,-1
 1090 463 l 1,4,-1
 952 0 l 1,5,-1
 725 0 l 1,6,-1
 868 463 l 1,7,-1
 303 463 l 1,8,-1
 430 676 l 1,9,-1
 928 676 l 1,10,-1
 1026 964 l 2,11,12
 1087 1150 1087 1150 1087 1266 c 0,13,14
 1087 1364 1087 1364 1007 1400 c 0,15,16
 952 1425 952 1425 840 1425 c 2,17,-1
 29 1425 l 1,18,-1
 158 1638 l 1,19,-1
 895 1638 l 2,20,21
 1317 1638 1317 1638 1317 1315 c 0,22,23
 1317 1182 1317 1182 1255 988 c 0,24,25
 1220 884 1220 884 1151 676 c 1,26,-1
 1624 676 l 1,27,-1
 1909 1638 l 1,28,-1
 2130 1638 l 1,0,-1
EndSplineSet
Validated: 1
EndChar

StartChar: I
Encoding: 73 73 44
Width: 2445
GlyphClass: 1
Flags: W
LayerCount: 2
Fore
SplineSet
610 0 m 2,0,-1
 25 0 l 1,1,-1
 156 213 l 1,2,3
 210 213 210 213 317 212 c 2,4,-1
 477 211 l 2,5,6
 882 211 882 211 1106 281 c 0,7,8
 1422 380 1422 380 1628 659 c 0,9,10
 1718 781 1718 781 1775 935 c 0,11,12
 1837 1101 1837 1101 1837 1241 c 0,13,14
 1837 1456 1837 1456 1677 1456 c 0,15,16
 1570 1456 1570 1456 1501 1371 c 0,17,18
 1446 1304 1446 1304 1411 1183 c 0,19,20
 1400 1145 1400 1145 1358 987 c 1,21,-1
 1135 987 l 1,22,23
 1166 1096 1166 1096 1232 1314 c 1,24,25
 1285 1475 1285 1475 1387 1562 c 0,26,27
 1503 1661 1503 1661 1702 1661 c 0,28,29
 1884 1661 1884 1661 1978 1543 c 0,30,31
 2064 1436 2064 1436 2064 1249 c 0,32,33
 2064 1121 2064 1121 2023 987 c 0,34,35
 1872 495 1872 495 1496 242 c 0,36,37
 1136 0 1136 0 610 0 c 2,0,-1
EndSplineSet
Validated: 1
EndChar

StartChar: J
Encoding: 74 74 45
Width: 2187
GlyphClass: 1
Flags: W
LayerCount: 2
Fore
SplineSet
1942 915 m 1,0,-1
 1815 702 l 1,1,-1
 1456 702 l 1,2,3
 1334 323 1334 323 1056 35 c 0,4,5
 736 -297 736 -297 377 -297 c 0,6,7
 255 -297 255 -297 182 -235 c 0,8,9
 104 -169 104 -169 104 -49 c 0,10,11
 104 185 104 185 314 418 c 0,12,13
 489 612 489 612 762 755 c 0,14,15
 1051 906 1051 906 1296 915 c 1,16,-1
 1350 1086 l 2,17,18
 1380 1185 1380 1185 1380 1262 c 0,19,20
 1380 1364 1380 1364 1297 1401 c 0,21,22
 1243 1425 1243 1425 1124 1425 c 2,23,-1
 0 1425 l 1,24,-1
 127 1638 l 1,25,-1
 1178 1638 l 2,26,27
 1367 1638 1367 1638 1477 1563 c 0,28,29
 1606 1475 1606 1475 1606 1294 c 0,30,31
 1606 1206 1606 1206 1577 1102 c 0,32,33
 1559 1040 1559 1040 1522 915 c 1,34,-1
 1942 915 l 1,0,-1
1233 700 m 1,35,36
 982 682 982 682 682 477 c 0,37,38
 350 250 350 250 350 20 c 0,39,40
 350 -82 350 -82 440 -82 c 0,41,42
 677 -82 677 -82 925 200 c 0,43,44
 1125 428 1125 428 1233 700 c 1,35,36
EndSplineSet
Validated: 1
EndChar

StartChar: K
Encoding: 75 75 46
Width: 3281
GlyphClass: 1
Flags: W
LayerCount: 2
Fore
SplineSet
3539 213 m 1,0,-1
 3414 0 l 1,1,-1
 2099 0 l 2,2,3
 2009 0 2009 0 1945 42 c 0,4,5
 1870 90 1870 90 1870 176 c 0,6,7
 1870 235 1870 235 1935 418 c 1,8,9
 1906 418 1906 418 1848.5 414 c 128,-1,10
 1791 410 1791 410 1762 410 c 0,11,12
 1513 410 1513 410 1513 532 c 0,13,14
 1513 635 1513 635 1642 745 c 2,15,-1
 2685 1638 l 1,16,-1
 2986 1638 l 1,17,-1
 1788 612 l 1,18,19
 1815 612 1815 612 1870 615.5 c 128,-1,20
 1925 619 1925 619 1953 619 c 0,21,22
 2167 619 2167 619 2167 477 c 0,23,24
 2167 429 2167 429 2146 366 c 0,25,26
 2108 252 2108 252 2108 249 c 0,27,28
 2108 213 2108 213 2150 213 c 2,29,-1
 3539 213 l 1,0,-1
1286 0 m 1,30,-1
 1063 0 l 1,31,-1
 1389 1102 l 2,32,33
 1411 1176 1411 1176 1411 1235 c 0,34,35
 1411 1425 1411 1425 1167 1425 c 2,36,-1
 4 1425 l 1,37,-1
 131 1638 l 1,38,-1
 1223 1638 l 2,39,40
 1411 1638 1411 1638 1518 1558 c 0,41,42
 1640 1468 1640 1468 1640 1286 c 0,43,44
 1640 1191 1640 1191 1610 1090 c 2,45,-1
 1286 0 l 1,30,-1
EndSplineSet
Validated: 1
EndChar

StartChar: L
Encoding: 76 76 47
Width: 2497
GlyphClass: 1
Flags: W
LayerCount: 2
Fore
SplineSet
2763 213 m 1,0,-1
 2638 0 l 1,1,-1
 4 0 l 1,2,-1
 131 213 l 1,3,4
 421 213 421 213 574 300 c 0,5,6
 711 378 711 378 792 561 c 0,7,8
 829 645 829 645 936 999 c 0,9,10
 1030 1311 1030 1311 1179 1467 c 0,11,12
 1362 1659 1362 1659 1657 1659 c 0,13,14
 1795 1659 1795 1659 1878 1603 c 0,15,16
 1976 1537 1976 1537 1976 1405 c 0,17,18
 1976 1315 1976 1315 1935 1193 c 0,19,20
 1911 1124 1911 1124 1864 987 c 1,21,-1
 1642 987 l 1,22,-1
 1710 1181 l 2,23,24
 1751 1302 1751 1302 1751 1380 c 0,25,26
 1751 1477 1751 1477 1610 1477 c 0,27,28
 1376 1477 1376 1477 1244 1203 c 1,29,-1
 1057 647 l 2,30,31
 943 309 943 309 774 213 c 1,32,-1
 2763 213 l 1,0,-1
EndSplineSet
Validated: 1
EndChar

StartChar: M
Encoding: 77 77 48
Width: 3721
GlyphClass: 1
Flags: W
LayerCount: 2
Fore
SplineSet
3981 213 m 1,0,-1
 3854 0 l 1,1,-1
 2693 0 l 2,2,3
 2541 0 2541 0 2449 68 c 0,4,5
 2345 144 2345 144 2345 291 c 0,6,7
 2345 364 2345 364 2370 446 c 2,8,-1
 2634 1311 l 2,9,10
 2648 1358 2648 1358 2660 1427 c 1,11,-1
 2652 1444 l 1,12,13
 2601 1412 2601 1412 2517 1272 c 2,14,-1
 1925 285 l 2,15,16
 1743 -18 1743 -18 1538 -18 c 0,17,18
 1346 -18 1346 -18 1346 168 c 0,19,20
 1346 239 1346 239 1372 324 c 2,21,-1
 1673 1311 l 2,22,23
 1688 1361 1688 1361 1700 1423 c 1,24,-1
 1690 1442 l 1,25,26
 1641 1415 1641 1415 1556 1272 c 2,27,-1
 799 0 l 1,28,-1
 584 0 l 1,29,-1
 920 1130 l 2,30,31
 942 1204 942 1204 942 1264 c 0,32,33
 942 1425 942 1425 705 1425 c 2,34,-1
 8 1425 l 1,35,-1
 131 1638 l 1,36,-1
 760 1638 l 2,37,38
 1180 1638 1180 1638 1180 1329 c 0,39,40
 1180 1207 1180 1207 1124 1041 c 0,41,42
 1092 950 1092 950 1028 768 c 1,43,44
 1099 904 1099 904 1265 1178 c 0,45,46
 1456 1493 1456 1493 1517 1553 c 0,47,48
 1626 1661 1626 1661 1774 1661 c 0,49,50
 1925 1661 1925 1661 1925 1503 c 0,51,52
 1925 1424 1925 1424 1888 1300 c 2,53,-1
 1587 289 l 2,54,55
 1573 242 1573 242 1573 217 c 1,56,-1
 1583 197 l 1,57,58
 1631 198 1631 198 1722 350 c 2,59,-1
 2314 1339 l 2,60,61
 2405 1492 2405 1492 2486 1562 c 0,62,63
 2600 1661 2600 1661 2744 1661 c 0,64,65
 2886 1661 2886 1661 2886 1503 c 0,66,67
 2886 1424 2886 1424 2849 1300 c 2,68,-1
 2591 434 l 2,69,70
 2568 357 2568 357 2568 317 c 0,71,72
 2568 213 2568 213 2746 213 c 2,73,-1
 3981 213 l 1,0,-1
EndSplineSet
Validated: 1
EndChar

StartChar: N
Encoding: 78 78 49
Width: 2966
GlyphClass: 1
Flags: W
LayerCount: 2
Fore
SplineSet
3230 213 m 1,0,-1
 3105 0 l 1,1,-1
 1950 0 l 2,2,3
 1798 0 1798 0 1709 72 c 0,4,5
 1612 150 1612 150 1612 299 c 0,6,7
 1612 476 1612 476 1758.5 854 c 128,-1,8
 1905 1232 1905 1232 1905 1384 c 0,9,10
 1905 1442 1905 1442 1858 1442 c 0,11,12
 1726 1442 1726 1442 1618 1270 c 2,13,-1
 817 0 l 1,14,-1
 610 0 l 1,15,-1
 942 1102 l 2,16,17
 965 1178 965 1178 965 1237 c 0,18,19
 965 1425 965 1425 723 1425 c 2,20,-1
 6 1425 l 1,21,-1
 137 1638 l 1,22,-1
 778 1638 l 2,23,24
 1194 1638 1194 1638 1194 1303 c 0,25,26
 1194 1185 1194 1185 1144 1023 c 0,27,28
 1123 954 1123 954 1057 754 c 1,29,30
 1182 977 1182 977 1333 1202 c 0,31,32
 1497 1447 1497 1447 1567 1515 c 0,33,34
 1716 1661 1716 1661 1911 1661 c 0,35,36
 2130 1661 2130 1661 2130 1446 c 0,37,38
 2130 1266 2130 1266 1984.5 891.5 c 128,-1,39
 1839 517 1839 517 1839 350 c 0,40,41
 1839 213 1839 213 1999 213 c 2,42,-1
 3230 213 l 1,0,-1
EndSplineSet
Validated: 1
EndChar

StartChar: O
Encoding: 79 79 50
Width: 2666
GlyphClass: 1
Flags: W
LayerCount: 2
Fore
SplineSet
2251 1114 m 0,0,1
 2251 841 2251 841 2093 571 c 0,2,3
 1943 313 1943 313 1709 151 c 0,4,5
 1455 -25 1455 -25 1186 -25 c 0,6,7
 933 -25 933 -25 793 119.5 c 128,-1,8
 653 264 653 264 653 518 c 0,9,10
 653 934 653 934 977 1290 c 1,11,-1
 1268 1290 l 1,12,13
 887 929 887 929 887 559 c 0,14,15
 887 392 887 392 972 297 c 0,16,17
 1060 197 1060 197 1225 197 c 0,18,19
 1527 197 1527 197 1777 497 c 0,20,21
 2017 785 2017 785 2017 1092 c 0,22,23
 2017 1257 2017 1257 1916 1344 c 0,24,25
 1821 1425 1821 1425 1653 1425 c 2,26,-1
 12 1425 l 1,27,-1
 137 1638 l 1,28,-1
 1675 1638 l 2,29,30
 1941 1638 1941 1638 2090 1511 c 0,31,32
 2251 1375 2251 1375 2251 1114 c 0,0,1
EndSplineSet
Validated: 1
EndChar

StartChar: P
Encoding: 80 80 51
Width: 2312
GlyphClass: 1
Flags: W
LayerCount: 2
Fore
SplineSet
2044 1284 m 0,0,1
 2044 1011 2044 1011 1710 827 c 2,2,-1
 950 408 l 1,3,-1
 827 0 l 1,4,-1
 604 0 l 1,5,-1
 989 1290 l 1,6,-1
 1210 1290 l 1,7,-1
 1030 688 l 1,8,-1
 1569 983 l 2,9,10
 1817 1119 1817 1119 1817 1257 c 0,11,12
 1817 1367 1817 1367 1725 1403 c 0,13,14
 1669 1425 1669 1425 1536 1425 c 2,15,-1
 6 1425 l 1,16,-1
 141 1638 l 1,17,-1
 1577 1638 l 2,18,19
 2044 1638 2044 1638 2044 1284 c 0,0,1
EndSplineSet
Validated: 1
EndChar

StartChar: Q
Encoding: 81 81 52
Width: 2703
GlyphClass: 1
Flags: W
LayerCount: 2
Fore
SplineSet
2970 213 m 1,0,-1
 2845 0 l 1,1,-1
 1196 0 l 1,2,3
 803 -315 803 -315 340 -315 c 0,4,5
 210 -315 210 -315 113 -255 c 0,6,7
 0 -185 0 -185 0 -63 c 0,8,9
 0 213 0 213 471 213 c 2,10,-1
 1124 213 l 1,11,12
 1311 392 1311 392 1434 631 c 0,13,14
 1569 894 1569 894 1569 1128 c 0,15,16
 1569 1269 1569 1269 1511 1353 c 0,17,18
 1444 1450 1444 1450 1309 1450 c 0,19,20
 1060 1450 1060 1450 884 1216 c 0,21,22
 721 1000 721 1000 721 743 c 0,23,24
 721 561 721 561 811 432 c 1,25,-1
 541 432 l 1,26,27
 485 574 485 574 485 727 c 0,28,29
 485 1088 485 1088 741 1372 c 0,30,31
 1005 1665 1005 1665 1362 1665 c 0,32,33
 1588 1665 1588 1665 1709 1529 c 0,34,35
 1825 1400 1825 1400 1825 1171 c 0,36,37
 1825 929 1825 929 1703 659 c 0,38,39
 1594 417 1594 417 1417 213 c 1,40,-1
 2970 213 l 1,0,-1
825 0 m 1,41,-1
 373 0 l 2,42,43
 221 0 221 0 221 -39 c 0,44,45
 221 -111 221 -111 365 -111 c 0,46,47
 605 -111 605 -111 825 0 c 1,41,-1
EndSplineSet
Validated: 1
EndChar

StartChar: R
Encoding: 82 82 53
Width: 2845
GlyphClass: 1
Flags: W
LayerCount: 2
Fore
SplineSet
3109 213 m 1,0,-1
 2984 0 l 1,1,-1
 1669 0 l 2,2,3
 1579 0 1579 0 1515 43 c 0,4,5
 1442 92 1442 92 1442 178 c 0,6,7
 1442 229 1442 229 1465 300 c 2,8,9
 1465 300 1465 300 1505 418 c 1,10,11
 1477 418 1477 418 1422 414.5 c 128,-1,12
 1367 411 1367 411 1339 411 c 0,13,14
 1081 411 1081 411 1081 559 c 0,15,16
 1081 664 1081 664 1294 784 c 1,17,18
 1427 854 1427 854 1690 1001 c 1,19,20
 1903 1126 1903 1126 1903 1257 c 0,21,22
 1903 1366 1903 1366 1819 1402 c 0,23,24
 1766 1425 1766 1425 1638 1425 c 2,25,-1
 8 1425 l 1,26,-1
 135 1638 l 1,27,-1
 1663 1638 l 2,28,29
 2130 1638 2130 1638 2130 1284 c 0,30,31
 2130 1124 2130 1124 1998 983 c 0,32,33
 1892 870 1892 870 1706 767 c 0,34,35
 1609 716 1609 716 1415 612 c 1,36,37
 1435 612 1435 612 1476 614 c 128,-1,38
 1517 616 1517 616 1537 616 c 0,39,40
 1737 616 1737 616 1737 477 c 0,41,42
 1737 429 1737 429 1716 366 c 0,43,44
 1678 252 1678 252 1678 249 c 0,45,46
 1678 213 1678 213 1722 213 c 2,47,-1
 3109 213 l 1,0,-1
1192 1290 m 1,48,-1
 807 0 l 1,49,-1
 584 0 l 1,50,-1
 967 1290 l 1,51,-1
 1192 1290 l 1,48,-1
EndSplineSet
Validated: 1
EndChar

StartChar: S
Encoding: 83 83 54
Width: 2540
GlyphClass: 1
Flags: W
LayerCount: 2
Fore
SplineSet
2312 987 m 1,0,-1
 2089 987 l 1,1,2
 2212 1395 2212 1395 2212 1407 c 0,3,4
 2212 1446 2212 1446 2163 1446 c 0,5,6
 2060 1446 2060 1446 1808 1356 c 0,7,8
 1543 1261 1543 1261 1351 1146 c 0,9,10
 1124 1010 1124 1010 1124 909 c 0,11,12
 1124 826 1124 826 1264 719 c 0,13,14
 1352 656 1352 656 1525 524 c 1,15,16
 1665 410 1665 410 1665 291 c 0,17,18
 1665 150 1665 150 1514 68 c 0,19,20
 1389 0 1389 0 1235 0 c 2,21,-1
 0 0 l 1,22,-1
 127 213 l 1,23,-1
 1290 213 l 2,24,25
 1421 213 1421 213 1421 279 c 0,26,27
 1421 323 1421 323 1280 423 c 0,28,29
 1078 566 1078 566 1018 624 c 0,30,31
 877 759 877 759 877 891 c 0,32,33
 877 1076 877 1076 1154 1269 c 0,34,35
 1387 1432 1387 1432 1731 1551 c 0,36,37
 2048 1661 2048 1661 2228 1661 c 0,38,39
 2458 1661 2458 1661 2458 1501 c 0,40,41
 2458 1418 2458 1418 2400 1244 c 0,42,43
 2371 1159 2371 1159 2312 987 c 1,0,-1
EndSplineSet
Validated: 1
EndChar

StartChar: T
Encoding: 84 84 55
Width: 2449
GlyphClass: 1
Flags: W
LayerCount: 2
Fore
SplineSet
2122 1638 m 1,0,1
 2035 1331 2035 1331 1846 722 c 1,2,3
 1720 348 1720 348 1449 179 c 0,4,5
 1162 0 1162 0 573 0 c 2,6,-1
 0 0 l 1,7,-1
 131 213 l 1,8,9
 195 213 195 213 322 210.5 c 128,-1,10
 449 208 449 208 513 208 c 0,11,12
 940 208 940 208 1180 291 c 0,13,14
 1524 410 1524 410 1616 715 c 2,15,-1
 1831 1425 l 1,16,-1
 1038 1425 l 2,17,18
 944 1425 944 1425 904 1407 c 0,19,20
 842 1379 842 1379 842 1298 c 0,21,22
 842 1227 842 1227 895 987 c 1,23,-1
 674 987 l 1,24,25
 660 1047 660 1047 633 1167 c 0,26,27
 610 1272 610 1272 610 1350 c 0,28,29
 610 1638 610 1638 1051 1638 c 2,30,-1
 2122 1638 l 1,0,1
EndSplineSet
Validated: 1
EndChar

StartChar: U
Encoding: 85 85 56
Width: 2943
GlyphClass: 1
Flags: W
LayerCount: 2
Fore
SplineSet
3217 213 m 1,0,-1
 3092 0 l 1,1,-1
 2087 0 l 2,2,3
 1606 0 1606 0 1606 360 c 0,4,5
 1606 487 1606 487 1659 653 c 0,6,7
 1665 672 1665 672 1753 934 c 1,8,-1
 1343 270 l 2,9,10
 1165 -18 1165 -18 899 -18 c 0,11,12
 792 -18 792 -18 731 44 c 128,-1,13
 670 106 670 106 670 213 c 0,14,15
 670 374 670 374 819.5 764.5 c 128,-1,16
 969 1155 969 1155 969 1300 c 0,17,18
 969 1425 969 1425 815 1425 c 2,19,-1
 6 1425 l 1,20,-1
 131 1638 l 1,21,-1
 858 1638 l 2,22,23
 1011 1638 1011 1638 1099 1570 c 0,24,25
 1198 1494 1198 1494 1198 1346 c 0,26,27
 1198 1169 1198 1169 1049.5 787 c 128,-1,28
 901 405 901 405 901 252 c 0,29,30
 901 199 901 199 954 199 c 0,31,32
 1009 199 1009 199 1079 261 c 0,33,34
 1137 312 1137 312 1174 371 c 2,35,-1
 1968 1638 l 1,36,-1
 2185 1638 l 1,37,-1
 1853 539 l 2,38,39
 1825 446 1825 446 1825 383 c 0,40,41
 1825 213 1825 213 2046 213 c 2,42,-1
 3217 213 l 1,0,-1
EndSplineSet
Validated: 1
EndChar

StartChar: V
Encoding: 86 86 57
Width: 2408
GlyphClass: 1
Flags: W
LayerCount: 2
Fore
SplineSet
2519 1638 m 1,0,-1
 1190 172 l 2,1,2
 1018 -18 1018 -18 856 -18 c 0,3,4
 659 -18 659 -18 659 182 c 0,5,6
 659 352 659 352 798.5 715 c 128,-1,7
 938 1078 938 1078 938 1243 c 0,8,9
 938 1425 938 1425 705 1425 c 2,10,-1
 8 1425 l 1,11,-1
 135 1638 l 1,12,-1
 758 1638 l 2,13,14
 1163 1638 1163 1638 1163 1296 c 0,15,16
 1163 1121 1163 1121 1023 747.5 c 128,-1,17
 883 374 883 374 883 233 c 0,18,19
 883 199 883 199 907 199 c 0,20,21
 952 199 952 199 1085 350 c 2,22,-1
 2220 1638 l 1,23,-1
 2519 1638 l 1,0,-1
EndSplineSet
Validated: 1
EndChar

StartChar: W
Encoding: 87 87 58
Width: 2996
GlyphClass: 1
Flags: W
LayerCount: 2
Fore
SplineSet
2998 1638 m 1,0,-1
 2195 285 l 2,1,2
 2014 -20 2014 -20 1817 -20 c 256,3,4
 1620 -20 1620 -20 1620 174 c 0,5,6
 1620 239 1620 239 1645 324 c 2,7,-1
 1935 1313 l 2,8,9
 1958 1391 1958 1391 1958 1417 c 0,10,11
 1958 1433 1958 1433 1946 1440 c 1,12,13
 1908 1440 1908 1440 1806 1266 c 2,14,-1
 1231 285 l 2,15,16
 1146 139 1146 139 1077 76 c 0,17,18
 975 -18 975 -18 842 -18 c 0,19,20
 657 -18 657 -18 657 176 c 0,21,22
 657 342 657 342 796.5 712 c 128,-1,23
 936 1082 936 1082 936 1241 c 0,24,25
 936 1425 936 1425 696 1425 c 2,26,-1
 8 1425 l 1,27,-1
 133 1638 l 1,28,-1
 750 1638 l 2,29,30
 934 1638 934 1638 1040 1560 c 0,31,32
 1161 1472 1161 1472 1161 1294 c 0,33,34
 1161 1201 1161 1201 1128 1090 c 2,35,-1
 901 326 l 2,36,37
 874 235 874 235 874 223 c 0,38,39
 874 206 874 206 893 199 c 1,40,41
 936 199 936 199 1026 350 c 2,42,-1
 1614 1339 l 2,43,44
 1710 1500 1710 1500 1782 1565 c 0,45,46
 1889 1661 1889 1661 2038 1661 c 256,47,48
 2187 1661 2187 1661 2187 1485 c 0,49,50
 2187 1400 2187 1400 2157 1300 c 2,51,-1
 1853 289 l 2,52,53
 1839 242 1839 242 1839 219 c 1,54,-1
 1853 199 l 1,55,56
 1903 199 1903 199 1993 352 c 2,57,-1
 2753 1638 l 1,58,-1
 2998 1638 l 1,0,-1
EndSplineSet
Validated: 1
EndChar

StartChar: X
Encoding: 88 88 59
Width: 2537
GlyphClass: 1
Flags: W
LayerCount: 2
Fore
SplineSet
2814 213 m 1,0,-1
 2691 0 l 1,1,-1
 1800 0 l 2,2,3
 1482 0 1482 0 1355 112 c 0,4,5
 1244 209 1244 209 1153 528 c 1,6,-1
 651 0 l 1,7,-1
 356 0 l 1,8,-1
 1087 768 l 1,9,10
 983 1162 983 1162 969 1203 c 0,11,12
 920 1351 920 1351 839 1398 c 0,13,14
 770 1438 770 1438 604 1438 c 0,15,16
 504 1438 504 1438 305 1431.5 c 128,-1,17
 106 1425 106 1425 6 1425 c 1,18,-1
 109 1638 l 1,19,-1
 702 1638 l 2,20,21
 915 1638 915 1638 1029 1547 c 0,22,23
 1129 1467 1129 1467 1176 1306 c 0,24,25
 1206 1191 1206 1191 1266 961 c 1,26,-1
 1909 1638 l 1,27,-1
 2204 1638 l 1,28,-1
 1329 719 l 1,29,30
 1353 623 1353 623 1404 433 c 0,31,32
 1438 317 1438 317 1518 267 c 0,33,34
 1605 213 1605 213 1792 213 c 2,35,-1
 2814 213 l 1,0,-1
EndSplineSet
Validated: 1
EndChar

StartChar: Y
Encoding: 89 89 60
Width: 2740
GlyphClass: 1
Flags: W
LayerCount: 2
Fore
SplineSet
3056 213 m 1,0,-1
 2929 0 l 1,1,-1
 1536 0 l 1,2,3
 1415 -215 1415 -215 1223 -331 c 0,4,5
 1028 -449 1028 -449 784 -449 c 0,6,7
 600 -449 600 -449 464 -393 c 0,8,9
 279 -317 279 -317 279 -160 c 0,10,11
 279 218 279 218 1132 218 c 0,12,13
 1197 218 1197 218 1292 216 c 2,14,-1
 1409 213 l 1,15,16
 1434 285 1434 285 1655 1020 c 1,17,18
 1424 700 1424 700 1333 602 c 0,19,20
 1099 350 1099 350 903 350 c 0,21,22
 690 350 690 350 690 573 c 0,23,24
 690 691 690 691 780 931.5 c 128,-1,25
 870 1172 870 1172 870 1284 c 0,26,27
 870 1425 870 1425 698 1425 c 2,28,-1
 -4 1425 l 1,29,-1
 121 1638 l 1,30,-1
 750 1638 l 2,31,32
 904 1638 904 1638 997 1566 c 0,33,34
 1100 1487 1100 1487 1100 1337 c 0,35,36
 1100 1215 1100 1215 1006.5 972.5 c 128,-1,37
 913 730 913 730 913 621 c 0,38,39
 913 569 913 569 958 569 c 0,40,41
 1059 569 1059 569 1430 1042 c 0,42,43
 1681 1362 1681 1362 1866 1638 c 1,44,-1
 2060 1638 l 1,45,-1
 1632 213 l 1,46,-1
 3056 213 l 1,0,-1
1294 0 m 1,47,-1
 924 0 l 2,48,49
 516 0 516 0 516 -145 c 0,50,51
 516 -201 516 -201 609 -229 c 0,52,53
 673 -248 673 -248 752 -248 c 0,54,55
 1109 -248 1109 -248 1294 0 c 1,47,-1
EndSplineSet
Validated: 1
EndChar

StartChar: Z
Encoding: 90 90 61
Width: 2183
GlyphClass: 1
Flags: W
LayerCount: 2
Fore
SplineSet
2451 213 m 1,0,-1
 2327 0 l 1,1,-1
 1268 0 l 1,2,3
 1152 -214 1152 -214 940 -333 c 0,4,5
 733 -449 733 -449 485 -449 c 0,6,7
 307 -449 307 -449 177 -392 c 0,8,9
 6 -317 6 -317 6 -162 c 0,10,11
 6 85 6 85 245 167 c 0,12,13
 379 213 379 213 686 213 c 2,14,-1
 1114 213 l 1,15,16
 1137 281 1137 281 1137 354 c 0,17,18
 1137 540 1137 540 964 637 c 0,19,20
 824 715 824 715 623 715 c 0,21,22
 531 715 531 715 444 702 c 1,23,-1
 524 915 l 1,24,-1
 1247 1425 l 1,25,-1
 408 1425 l 1,26,-1
 512 1638 l 1,27,-1
 1735 1638 l 1,28,-1
 1634 1425 l 1,29,-1
 864 901 l 1,30,31
 1082 880 1082 880 1221 737 c 0,32,33
 1364 590 1364 590 1364 373 c 0,34,35
 1364 279 1364 279 1337 213 c 1,36,-1
 2451 213 l 1,0,-1
1014 0 m 1,37,-1
 663 0 l 2,38,39
 471 0 471 0 406 -11 c 0,40,41
 233 -40 233 -40 233 -147 c 0,42,43
 233 -246 233 -246 483 -246 c 0,44,45
 819 -246 819 -246 1014 0 c 1,37,-1
EndSplineSet
Validated: 1
EndChar

StartChar: bracketleft
Encoding: 91 91 62
Width: 1298
GlyphClass: 1
Flags: W
LayerCount: 2
Fore
SplineSet
1333 1894 m 1,0,-1
 1268 1677 l 1,1,-1
 1012 1677 l 1,2,-1
 502 -49 l 1,3,-1
 752 -49 l 1,4,-1
 686 -266 l 1,5,-1
 315 -266 l 1,6,-1
 236 -162 l 1,7,-1
 817 1798 l 1,8,-1
 950 1894 l 1,9,-1
 1333 1894 l 1,0,-1
EndSplineSet
Validated: 1
EndChar

StartChar: backslash
Encoding: 92 92 63
Width: 1155
GlyphClass: 1
Flags: W
LayerCount: 2
Fore
SplineSet
944 -219 m 1,0,-1
 707 -219 l 1,1,-1
 -106 1708 l 1,2,-1
 147 1708 l 1,3,-1
 944 -219 l 1,0,-1
EndSplineSet
Validated: 1
EndChar

StartChar: bracketright
Encoding: 93 93 64
Width: 1298
GlyphClass: 1
Flags: W
LayerCount: 2
Fore
SplineSet
1417 1790 m 1,0,-1
 834 -170 l 1,1,-1
 702 -266 l 1,2,-1
 324 -266 l 1,3,-1
 389 -49 l 1,4,-1
 639 -49 l 1,5,-1
 1151 1677 l 1,6,-1
 895 1677 l 1,7,-1
 963 1894 l 1,8,-1
 1337 1894 l 1,9,-1
 1417 1790 l 1,0,-1
EndSplineSet
Validated: 1
EndChar

StartChar: asciicircum
Encoding: 94 94 65
Width: 981
GlyphClass: 1
Flags: W
LayerCount: 2
Fore
SplineSet
930 567 m 1,0,-1
 795 459 l 1,1,-1
 512 690 l 1,2,-1
 176 461 l 1,3,-1
 51 569 l 1,4,-1
 547 999 l 1,5,-1
 930 567 l 1,0,-1
EndSplineSet
Validated: 1
EndChar

StartChar: underscore
Encoding: 95 95 66
Width: 1559
GlyphClass: 1
Flags: W
LayerCount: 2
Fore
SplineSet
1659 -272 m 1,0,-1
 1610 -410 l 1,1,-1
 -111 -410 l 1,2,-1
 -63 -272 l 1,3,-1
 1659 -272 l 1,0,-1
EndSplineSet
Validated: 1
EndChar

StartChar: grave
Encoding: 96 96 67
Width: 1122
GlyphClass: 1
Flags: W
LayerCount: 2
Fore
SplineSet
719 1151 m 1,0,-1
 682 1016 l 1,1,-1
 317 1284 l 1,2,-1
 403 1475 l 1,3,-1
 719 1151 l 1,0,-1
EndSplineSet
Validated: 1
EndChar

StartChar: a
Encoding: 97 97 68
Width: 2077
GlyphClass: 1
Flags: W
LayerCount: 2
Fore
SplineSet
2341 213 m 1,0,-1
 2214 0 l 1,1,-1
 963 0 l 2,2,3
 682 0 682 0 682 197 c 0,4,5
 682 242 682 242 721 362 c 1,6,7
 560 189 560 189 476 124 c 0,8,9
 316 0 316 0 170 0 c 0,10,11
 0 0 0 0 0 168 c 0,12,13
 0 277 0 277 61 462 c 0,14,15
 93 555 93 555 156 743 c 0,16,17
 187 840 187 840 238 877.5 c 128,-1,18
 289 915 289 915 391 915 c 2,19,-1
 1106 915 l 1,20,21
 1008 606 1008 606 907 244 c 1,22,-1
 921 219 l 1,23,24
 975 204 975 204 1292 202 c 0,25,26
 1320.57142857 201.857142857 1320.57142857 201.857142857 1353.36734694 201.857142857 c 0,27,28
 1550.14285714 201.857142857 1550.14285714 201.857142857 1899 207 c 2,29,-1
 2341 213 l 1,0,-1
780 702 m 1,30,-1
 367 702 l 1,31,32
 341 623 341 623 290 464 c 0,33,34
 245 325 245 325 225 223 c 1,35,-1
 238 211 l 1,36,37
 369 234 369 234 780 702 c 1,30,-1
EndSplineSet
Validated: 1
EndChar

StartChar: b
Encoding: 98 98 69
Width: 2095
GlyphClass: 1
Flags: W
LayerCount: 2
Fore
SplineSet
2367 213 m 1,0,-1
 2241 0 l 1,1,-1
 -63 0 l 1,2,-1
 385 1507 l 1,3,-1
 608 1507 l 1,4,-1
 340 612 l 1,5,6
 589 936 589 936 879 936 c 0,7,8
 1071 936 1071 936 1071 786 c 0,9,10
 1071 711 1071 711 1008 498 c 0,11,12
 941 271 941 271 889 213 c 1,13,-1
 2367 213 l 1,0,-1
829 684 m 2,14,15
 832 694 832 694 823 717 c 1,16,17
 810 725 810 725 795 725 c 0,18,19
 712 725 712 725 501 510 c 0,20,21
 325 330 325 330 246 213 c 1,22,-1
 535 213 l 2,23,24
 688 213 688 213 727 344 c 2,25,-1
 829 684 l 2,14,15
EndSplineSet
Validated: 1
EndChar

StartChar: c
Encoding: 99 99 70
Width: 1847
GlyphClass: 1
Flags: W
LayerCount: 2
Fore
SplineSet
2116 213 m 1,0,-1
 1991 0 l 1,1,-1
 506 0 l 2,2,3
 352 0 352 0 250 69 c 0,4,5
 131 148 131 148 131 295 c 0,6,7
 131 401 131 401 199 612 c 0,8,9
 211 650 211 650 299 915 c 1,10,-1
 862 915 l 2,11,12
 1016 915 1016 915 1016 799 c 0,13,14
 1016 745 1016 745 954 565 c 1,15,-1
 715 512 l 1,16,-1
 772 702 l 1,17,-1
 461 702 l 1,18,-1
 396 521 l 2,19,20
 356 408 356 408 356 334 c 0,21,22
 356 213 356 213 506 213 c 2,23,-1
 2116 213 l 1,0,-1
EndSplineSet
Validated: 1
EndChar

StartChar: d
Encoding: 100 100 71
Width: 2068
GlyphClass: 1
Flags: W
LayerCount: 2
Fore
SplineSet
2335 213 m 1,0,-1
 2214 0 l 1,1,-1
 963 0 l 2,2,3
 682 0 682 0 682 197 c 0,4,5
 682 242 682 242 721 362 c 1,6,7
 560 189 560 189 476 124 c 0,8,9
 316 0 316 0 170 0 c 0,10,11
 0 0 0 0 0 168 c 0,12,13
 0 277 0 277 61 462 c 0,14,15
 93 555 93 555 156 743 c 0,16,17
 187 839 187 839 238.5 877 c 128,-1,18
 290 915 290 915 391 915 c 2,19,-1
 879 915 l 1,20,-1
 1057 1507 l 1,21,-1
 1278 1507 l 1,22,-1
 909 246 l 1,23,24
 909 213 909 213 956 213 c 2,25,-1
 2335 213 l 1,0,-1
780 702 m 1,26,-1
 367 702 l 1,27,28
 341 623 341 623 290 464 c 0,29,30
 245 325 245 325 225 223 c 1,31,-1
 238 211 l 1,32,33
 369 234 369 234 780 702 c 1,26,-1
EndSplineSet
Validated: 1
EndChar

StartChar: e
Encoding: 101 101 72
Width: 2032
GlyphClass: 1
Flags: W
LayerCount: 2
Fore
SplineSet
2300 213 m 1,0,-1
 2175 0 l 1,1,-1
 485 0 l 2,2,3
 336 0 336 0 239 69 c 0,4,5
 129 148 129 148 129 291 c 0,6,7
 129 395 129 395 199 610 c 0,8,9
 211 646 211 646 301 915 c 1,10,-1
 831 915 l 2,11,12
 928 915 928 915 990 871 c 0,13,14
 1061 821 1061 821 1061 727 c 0,15,16
 1061 610 1061 610 930 514 c 2,17,-1
 604 274 l 1,18,-1
 475 428 l 1,19,-1
 846 702 l 1,20,-1
 459 702 l 1,21,-1
 395 520 l 2,22,23
 356 407 356 407 356 334 c 0,24,25
 356 213 356 213 506 213 c 2,26,-1
 2300 213 l 1,0,-1
EndSplineSet
Validated: 1
EndChar

StartChar: f
Encoding: 102 102 73
Width: 1591
GlyphClass: 1
Flags: W
LayerCount: 2
Fore
SplineSet
2103 915 m 1,0,-1
 1980 702 l 1,1,-1
 645 702 l 1,2,3
 706 640 706 640 744 519 c 0,4,5
 778 411 778 411 778 311 c 0,6,7
 778 45 778 45 649 -155 c 0,8,9
 500 -385 500 -385 248 -385 c 0,10,11
 134 -385 134 -385 64 -319 c 128,-1,12
 -6 -253 -6 -253 -6 -139 c 0,13,14
 -6 -83 -6 -83 10 -29 c 2,15,-1
 229 705 l 1,16,17
 180 713 180 713 80 713 c 1,18,-1
 147 915 l 1,19,-1
 291 915 l 1,20,-1
 469 1507 l 1,21,-1
 692 1507 l 1,22,-1
 514 915 l 1,23,-1
 2103 915 l 1,0,-1
551 285 m 0,24,25
 551 491 551 491 424 610 c 1,26,-1
 312 247 l 2,27,28
 223 -44 223 -44 223 -92 c 0,29,30
 223 -168 223 -168 295 -168 c 0,31,32
 421 -168 421 -168 494 4 c 0,33,34
 551 138 551 138 551 285 c 0,24,25
EndSplineSet
Validated: 1
EndChar

StartChar: g
Encoding: 103 103 74
Width: 2097
GlyphClass: 1
Flags: W
LayerCount: 2
Fore
SplineSet
2363 213 m 1,0,-1
 2234 0 l 1,1,-1
 1268 0 l 2,2,3
 1001 0 1001 0 795 -61 c 1,4,-1
 700 -395 l 2,5,6
 675 -482 675 -482 626.5 -516.5 c 128,-1,7
 578 -551 578 -551 485 -551 c 2,8,-1
 37 -551 l 1,9,10
 142 -104 142 -104 614 88 c 1,11,-1
 698 358 l 1,12,13
 389 0 389 0 158 0 c 0,14,15
 -6 0 -6 0 -6 164 c 0,16,17
 -6 266 -6 266 44 418 c 0,18,19
 73 500 73 500 127 664 c 0,20,21
 204 915 204 915 498 915 c 2,22,-1
 1085 915 l 1,23,-1
 860 164 l 1,24,25
 1037 213 1037 213 1247 213 c 2,26,-1
 2363 213 l 1,0,-1
776 702 m 1,27,-1
 444 702 l 2,28,29
 366 702 366 702 340 623 c 0,30,31
 283 451 283 451 221 227 c 1,32,-1
 231 213 l 1,33,34
 293 213 293 213 515 425 c 0,35,36
 709 611 709 611 776 702 c 1,27,-1
557 -139 m 1,37,38
 391 -233 391 -233 332 -360 c 1,39,-1
 428 -360 l 2,40,41
 493 -360 493 -360 523 -275 c 1,42,-1
 557 -139 l 1,37,38
EndSplineSet
Validated: 1
EndChar

StartChar: h
Encoding: 104 104 75
Width: 2073
GlyphClass: 1
Flags: W
LayerCount: 2
Fore
SplineSet
2339 213 m 1,0,-1
 2210 0 l 1,1,-1
 938 0 l 2,2,3
 670 0 670 0 670 176 c 0,4,5
 670 272 670 272 730 439 c 0,6,7
 796 622 796 622 805 700 c 1,8,-1
 801 709 l 1,9,10
 777 691 777 691 743 653 c 2,11,-1
 156 0 l 1,12,-1
 -63 0 l 1,13,-1
 383 1507 l 1,14,-1
 606 1507 l 1,15,-1
 297 461 l 1,16,-1
 573 766 l 2,17,18
 655 857 655 857 715 891 c 0,19,20
 790 934 790 934 897 934 c 0,21,22
 1049 934 1049 934 1049 797 c 0,23,24
 1049 707 1049 707 975 516.5 c 128,-1,25
 901 326 901 326 901 248 c 0,26,27
 901 213 901 213 991 213 c 2,28,-1
 2339 213 l 1,0,-1
EndSplineSet
Validated: 1
EndChar

StartChar: i
Encoding: 105 105 76
Width: 1380
GlyphClass: 1
Flags: W
LayerCount: 2
Fore
SplineSet
590 1507 m 1,0,-1
 489 1176 l 1,1,-1
 266 1176 l 1,2,-1
 367 1507 l 1,3,-1
 590 1507 l 1,0,-1
1642 213 m 1,4,-1
 1520 0 l 1,5,-1
 190 0 l 2,6,7
 -18 0 -18 0 -18 172 c 0,8,9
 -18 218 -18 218 -2 272 c 2,10,-1
 188 915 l 1,11,-1
 412 915 l 1,12,-1
 217 266 l 2,13,14
 213 253 213 253 226 224 c 1,15,16
 245 212 245 212 575 209 c 0,17,18
 789 207 789 207 1211 210 c 2,19,-1
 1642 213 l 1,4,-1
EndSplineSet
Validated: 33
EndChar

StartChar: j
Encoding: 106 106 77
Width: 1999
GlyphClass: 1
Flags: W
LayerCount: 2
Fore
SplineSet
1196 1507 m 1,0,-1
 1096 1176 l 1,1,-1
 872 1176 l 1,2,-1
 971 1507 l 1,3,-1
 1196 1507 l 1,0,-1
2265 213 m 1,4,-1
 2140 0 l 1,5,-1
 1167 0 l 2,6,7
 917 0 917 0 735 -47 c 1,8,-1
 633 -395 l 2,9,10
 608 -482 608 -482 559 -516.5 c 128,-1,11
 510 -551 510 -551 418 -551 c 2,12,-1
 -29 -551 l 1,13,14
 75 -94 75 -94 557 100 c 1,15,-1
 678 520 l 1,16,-1
 139 0 l 1,17,-1
 -156 0 l 1,18,-1
 799 915 l 1,19,-1
 1020 915 l 1,20,-1
 801 176 l 1,21,22
 983 213 983 213 1161 213 c 2,23,-1
 2265 213 l 1,4,-1
487 -141 m 1,24,25
 335 -231 335 -231 264 -360 c 1,26,-1
 362 -360 l 2,27,28
 424 -360 424 -360 454 -276 c 1,29,30
 471 -209 471 -209 487 -141 c 1,24,25
EndSplineSet
Validated: 1
EndChar

StartChar: k
Encoding: 107 107 78
Width: 2077
GlyphClass: 1
Flags: W
LayerCount: 2
Fore
SplineSet
2343 213 m 1,0,-1
 2218 0 l 1,1,-1
 911 0 l 2,2,3
 804 0 804 0 733 39 c 0,4,5
 645 87 645 87 645 186 c 0,6,7
 645 245 645 245 670 317 c 0,8,9
 685 358 685 358 715 442 c 1,10,11
 699 442 699 442 666 440 c 128,-1,12
 633 438 633 438 617 438 c 0,13,14
 455 438 455 438 455 530 c 0,15,16
 455 610 455 610 604 753 c 1,17,18
 604 753 604 753 782 915 c 1,19,-1
 1065 915 l 1,20,-1
 762 631 l 1,21,22
 854 631 854 631 889 618 c 0,23,24
 952 595 952 595 952 518 c 0,25,26
 952 457 952 457 883 264 c 0,27,28
 881 258 881 258 881 254 c 0,29,30
 881 213 881 213 928 213 c 2,31,-1
 2343 213 l 1,0,-1
678 1507 m 1,32,-1
 227 0 l 1,33,-1
 4 0 l 1,34,-1
 453 1507 l 1,35,-1
 678 1507 l 1,32,-1
EndSplineSet
Validated: 1
EndChar

StartChar: l
Encoding: 108 108 79
Width: 1389
GlyphClass: 1
Flags: W
LayerCount: 2
Fore
SplineSet
1651 213 m 1,0,-1
 1528 0 l 1,1,-1
 199 0 l 2,2,3
 -12 0 -12 0 -12 172 c 0,4,5
 -12 219 -12 219 4 272 c 2,6,-1
 377 1507 l 1,7,-1
 600 1507 l 1,8,-1
 221 242 l 1,9,10
 221 213 221 213 266 213 c 2,11,-1
 1651 213 l 1,0,-1
EndSplineSet
Validated: 1
EndChar

StartChar: m
Encoding: 109 109 80
Width: 2476
GlyphClass: 1
Flags: W
LayerCount: 2
Fore
SplineSet
2742 213 m 1,0,-1
 2613 0 l 1,1,-1
 1448 0 l 2,2,3
 1290 0 1290 0 1189 66 c 0,4,5
 1069 143 1069 143 1069 293 c 0,6,7
 1069 384 1069 384 1107 502 c 0,8,9
 1129 569 1129 569 1174 702 c 1,10,-1
 905 702 l 1,11,-1
 694 0 l 1,12,-1
 471 0 l 1,13,-1
 682 702 l 1,14,-1
 412 702 l 1,15,-1
 203 0 l 1,16,-1
 -20 0 l 1,17,-1
 190 702 l 1,18,-1
 18 702 l 1,19,-1
 84 915 l 1,20,-1
 1268 915 l 2,21,22
 1411 915 1411 915 1411 793 c 0,23,24
 1411 712 1411 712 1351.5 557.5 c 128,-1,25
 1292 403 1292 403 1292 322 c 0,26,27
 1292 213 1292 213 1440 213 c 2,28,-1
 2742 213 l 1,0,-1
EndSplineSet
Validated: 1
EndChar

StartChar: n
Encoding: 110 110 81
Width: 1952
GlyphClass: 1
Flags: W
LayerCount: 2
Fore
SplineSet
2222 213 m 1,0,-1
 2095 0 l 1,1,-1
 977 0 l 2,2,3
 818 0 818 0 717 52 c 0,4,5
 586 119 586 119 586 264 c 0,6,7
 586 357 586 357 629 488 c 0,8,9
 647 544 647 544 702 702 c 1,10,-1
 414 702 l 1,11,-1
 203 0 l 1,12,-1
 -20 0 l 1,13,-1
 188 702 l 1,14,-1
 18 702 l 1,15,-1
 84 915 l 1,16,-1
 776 915 l 2,17,18
 942 915 942 915 942 797 c 0,19,20
 942 711 942 711 877.5 548 c 128,-1,21
 813 385 813 385 813 299 c 256,22,23
 813 213 813 213 969 213 c 2,24,-1
 2222 213 l 1,0,-1
EndSplineSet
Validated: 1
EndChar

StartChar: o
Encoding: 111 111 82
Width: 2093
GlyphClass: 1
Flags: W
LayerCount: 2
Fore
SplineSet
2361 213 m 1,0,-1
 2232 0 l 1,1,-1
 446 0 l 2,2,3
 289 0 289 0 204 92 c 0,4,5
 121 181 121 181 121 340 c 0,6,7
 121 461 121 461 168 602 c 1,8,-1
 393 602 l 1,9,10
 332 459 332 459 332 360 c 0,11,12
 332 201 332 201 463 201 c 0,13,14
 615 201 615 201 726 381 c 0,15,16
 823 538 823 538 827 702 c 1,17,-1
 -29 702 l 1,18,-1
 80 915 l 1,19,-1
 868 915 l 2,20,21
 970 915 970 915 1013 878 c 0,22,23
 1059 838 1059 838 1059 739 c 0,24,25
 1059 623 1059 623 996 457 c 0,26,27
 929 281 929 281 848 213 c 1,28,-1
 2361 213 l 1,0,-1
EndSplineSet
Validated: 1
EndChar

StartChar: p
Encoding: 112 112 83
Width: 2148
GlyphClass: 1
Flags: W
LayerCount: 2
Fore
SplineSet
2367 213 m 1,0,-1
 2241 0 l 1,1,-1
 158 0 l 1,2,-1
 0 -526 l 1,3,-1
 -221 -526 l 1,4,-1
 207 915 l 1,5,-1
 430 915 l 1,6,-1
 340 612 l 1,7,8
 589 936 589 936 879 936 c 0,9,10
 1071 936 1071 936 1071 786 c 0,11,12
 1071 711 1071 711 1008 498 c 0,13,14
 941 271 941 271 889 213 c 1,15,-1
 2367 213 l 1,0,-1
829 684 m 2,16,17
 832 694 832 694 823 717 c 1,18,19
 810 725 810 725 795 725 c 0,20,21
 712 725 712 725 501 510 c 0,22,23
 325 330 325 330 246 213 c 1,24,-1
 535 213 l 2,25,26
 688 213 688 213 727 344 c 2,27,-1
 829 684 l 2,16,17
EndSplineSet
Validated: 1
EndChar

StartChar: q
Encoding: 113 113 84
Width: 2062
GlyphClass: 1
Flags: W
LayerCount: 2
Fore
SplineSet
2331 213 m 1,0,-1
 2206 0 l 1,1,-1
 1233 0 l 2,2,3
 1081 0 1081 0 955 -132 c 0,4,5
 840 -252 840 -252 807 -410 c 1,6,-1
 705 -410 l 2,7,8
 537 -410 537 -410 537 -252 c 0,9,10
 537 -165 537 -165 607 53 c 2,11,12
 607 53 607 53 709 365 c 1,13,14
 400 0 400 0 168 0 c 0,15,16
 0 0 0 0 0 166 c 0,17,18
 0 263 0 263 63 460 c 0,19,20
 94 554 94 554 156 743 c 0,21,22
 187 840 187 840 239 877.5 c 128,-1,23
 291 915 291 915 391 915 c 2,24,-1
 1094 915 l 1,25,-1
 817 12 l 1,26,27
 1011 213 1011 213 1239 213 c 2,28,-1
 2331 213 l 1,0,-1
780 702 m 1,29,-1
 367 702 l 1,30,-1
 225 223 l 1,31,-1
 233 211 l 1,32,33
 297 212 297 212 516 424 c 0,34,35
 670 574 670 574 780 702 c 1,29,-1
EndSplineSet
Validated: 1
EndChar

StartChar: r
Encoding: 114 114 85
Width: 2091
GlyphClass: 1
Flags: W
LayerCount: 2
Fore
SplineSet
2355 213 m 1,0,-1
 2226 0 l 1,1,-1
 985 0 l 2,2,3
 825 0 825 0 725 65 c 0,4,5
 606 141 606 141 606 293 c 0,6,7
 606 381 606 381 643 502 c 2,8,9
 643 502 643 502 707 702 c 1,10,-1
 440 702 l 1,11,-1
 276 150 l 2,12,13
 244 42 244 42 179 15 c 0,14,15
 143 0 143 0 6 0 c 1,16,-1
 313 1030 l 1,17,-1
 551 1081 l 1,18,-1
 502 915 l 1,19,-1
 1151 915 l 1,20,-1
 1083 702 l 1,21,22
 930 702 930 702 901 604 c 0,23,24
 886 558 886 558 857 467 c 0,25,26
 831 384 831 384 831 324 c 0,27,28
 831 213 831 213 977 213 c 2,29,-1
 2355 213 l 1,0,-1
EndSplineSet
Validated: 1
EndChar

StartChar: s
Encoding: 115 115 86
Width: 2089
GlyphClass: 1
Flags: W
LayerCount: 2
Fore
SplineSet
2349 213 m 1,0,-1
 2224 0 l 1,1,-1
 453 0 l 1,2,-1
 543 213 l 1,3,4
 675 213 675 213 719 227 c 0,5,6
 809 256 809 256 809 358 c 0,7,8
 809 414 809 414 760 514 c 0,9,10
 706 624 706 624 698 670 c 1,11,-1
 315 127 l 2,12,13
 258 46 258 46 203 20 c 0,14,15
 158 -1 158 -1 75 -1 c 0,16,17
 23 -1 23 -1 23 -1 c 1,18,-1
 -37 0 l 1,19,-1
 698 1028 l 1,20,-1
 961 1028 l 1,21,22
 864 910 864 910 864 827 c 0,23,24
 864 781 864 781 944 622 c 128,-1,25
 1024 463 1024 463 1024 385 c 0,26,27
 1024 283 1024 283 971 213 c 1,28,-1
 2349 213 l 1,0,-1
EndSplineSet
Validated: 1
EndChar

StartChar: t
Encoding: 116 116 87
Width: 1698
GlyphClass: 1
Flags: W
LayerCount: 2
Fore
SplineSet
1962 213 m 1,0,-1
 1835 0 l 1,1,-1
 485 0 l 2,2,3
 350 0 350 0 266 54 c 0,4,5
 166 118 166 118 166 246 c 0,6,7
 166 344 166 344 212 478 c 0,8,9
 238 553 238 553 291 702 c 1,10,-1
 63 702 l 1,11,-1
 129 915 l 1,12,-1
 354 915 l 1,13,-1
 463 1284 l 1,14,-1
 702 1343 l 1,15,-1
 575 915 l 1,16,-1
 799 915 l 1,17,-1
 733 702 l 1,18,-1
 512 702 l 1,19,-1
 436 483 l 2,20,21
 385 334 385 334 385 264 c 0,22,23
 385 213 385 213 471 213 c 2,24,-1
 1962 213 l 1,0,-1
EndSplineSet
Validated: 1
EndChar

StartChar: u
Encoding: 117 117 88
Width: 2062
GlyphClass: 1
Flags: W
LayerCount: 2
Fore
SplineSet
2322 213 m 1,0,-1
 2195 0 l 1,1,-1
 946 0 l 2,2,3
 664 0 664 0 664 197 c 0,4,5
 664 230 664 230 702 362 c 1,6,7
 375 0 375 0 164 0 c 0,8,9
 -4 0 -4 0 -4 166 c 0,10,11
 -4 224 -4 224 16 291 c 2,12,-1
 201 915 l 1,13,-1
 424 915 l 1,14,-1
 310 565 l 2,15,16
 229 315 229 315 221 225 c 1,17,-1
 238 213 l 1,18,19
 325 213 325 213 579 516 c 0,20,21
 788 766 788 766 877 915 c 1,22,-1
 1085 915 l 1,23,-1
 974 576 l 2,24,25
 902 357 902 357 885 240 c 1,26,-1
 896 219 l 1,27,28
 915 213 915 213 2322 213 c 1,0,-1
EndSplineSet
Validated: 1
EndChar

StartChar: v
Encoding: 118 118 89
Width: 2007
GlyphClass: 1
Flags: W
LayerCount: 2
Fore
SplineSet
2275 213 m 1,0,-1
 2148 0 l 1,1,-1
 109 0 l 1,2,-1
 162 702 l 1,3,-1
 -33 702 l 1,4,-1
 35 915 l 1,5,-1
 217 915 l 2,6,7
 382 915 382 915 382 790 c 0,8,9
 382 685 382 685 366 520 c 2,10,-1
 340 250 l 2,11,12
 338 233 338 233 347 219 c 1,13,14
 361 212 361 212 386 212 c 0,15,16
 396 212 396 212 408 213 c 1,17,-1
 895 915 l 1,18,-1
 1153 915 l 1,19,-1
 662 213 l 1,20,-1
 2275 213 l 1,0,-1
EndSplineSet
Validated: 1
EndChar

StartChar: w
Encoding: 119 119 90
Width: 2568
GlyphClass: 1
Flags: W
LayerCount: 2
Fore
SplineSet
2836 213 m 1,0,-1
 2710 0 l 1,1,-1
 465 0 l 2,2,3
 332 0 332 0 250 52 c 0,4,5
 152 114 152 114 152 240 c 0,6,7
 152 317 152 317 213 453 c 128,-1,8
 274 589 274 589 274 633 c 0,9,10
 274 707 274 707 186 707 c 0,11,12
 170 707 170 707 137 704.5 c 128,-1,13
 104 702 104 702 88 702 c 1,14,-1
 158 915 l 1,15,-1
 281 915 l 2,16,17
 504 915 504 915 504 717 c 0,18,19
 504 634 504 634 439.5 485 c 128,-1,20
 375 336 375 336 375 283 c 0,21,22
 375 209 375 209 522 209 c 0,23,24
 538 209 538 209 570 211 c 128,-1,25
 602 213 602 213 618 213 c 1,26,-1
 825 915 l 1,27,-1
 1049 915 l 1,28,-1
 842 213 l 1,29,-1
 1110 213 l 1,30,-1
 1319 915 l 1,31,-1
 1542 915 l 1,32,-1
 1337 213 l 1,33,-1
 2836 213 l 1,0,-1
EndSplineSet
Validated: 1
EndChar

StartChar: x
Encoding: 120 120 91
Width: 2122
GlyphClass: 1
Flags: W
LayerCount: 2
Fore
SplineSet
2388 213 m 1,0,-1
 2261 0 l 1,1,-1
 967 0 l 2,2,3
 799 0 799 0 713 65 c 0,4,5
 631 126 631 126 573 287 c 1,6,7
 500 220 500 220 351 89 c 0,8,9
 281 29 281 29 196 13 c 0,10,11
 129 0 129 0 -74 0 c 1,12,-1
 496 498 l 1,13,-1
 418 702 l 1,14,-1
 113 702 l 1,15,-1
 180 915 l 1,16,-1
 438 915 l 2,17,18
 578 915 578 915 625 785 c 0,19,20
 649 718 649 718 672 651 c 1,21,-1
 973 915 l 1,22,-1
 1288 915 l 1,23,-1
 748 440 l 1,24,25
 802 284 802 284 834 254 c 0,26,27
 878 213 878 213 1028 213 c 2,28,-1
 2388 213 l 1,0,-1
EndSplineSet
Validated: 1
EndChar

StartChar: y
Encoding: 121 121 92
Width: 2062
GlyphClass: 1
Flags: W
LayerCount: 2
Fore
SplineSet
2329 213 m 1,0,-1
 2202 0 l 1,1,-1
 1233 0 l 2,2,3
 1008 0 1008 0 795 -61 c 1,4,-1
 700 -395 l 2,5,6
 675 -482 675 -482 626.5 -516.5 c 128,-1,7
 578 -551 578 -551 485 -551 c 2,8,-1
 37 -551 l 1,9,10
 141 -107 141 -107 610 84 c 1,11,-1
 700 362 l 1,12,13
 373 0 373 0 162 0 c 0,14,15
 -6 0 -6 0 -6 166 c 0,16,17
 -6 274 -6 274 77 540 c 0,18,19
 89 577 89 577 197 915 c 1,20,-1
 420 915 l 1,21,-1
 307 562 l 2,22,23
 224 301 224 301 219 225 c 1,24,-1
 236 213 l 1,25,26
 325 214 325 214 577 516 c 0,27,28
 789 770 789 770 872 915 c 1,29,-1
 1083 915 l 1,30,-1
 856 160 l 1,31,32
 1070 213 1070 213 1225 213 c 2,33,-1
 2329 213 l 1,0,-1
557 -139 m 1,34,35
 391 -233 391 -233 332 -360 c 1,36,-1
 428 -360 l 2,37,38
 493 -360 493 -360 523 -275 c 1,39,-1
 557 -139 l 1,34,35
EndSplineSet
Validated: 1
EndChar

StartChar: z
Encoding: 122 122 93
Width: 1720
GlyphClass: 1
Flags: W
LayerCount: 2
Fore
SplineSet
1987 213 m 1,0,-1
 1866 0 l 1,1,-1
 63 0 l 2,2,3
 -61 0 -61 0 -61 115 c 0,4,5
 -61 172 -61 172 29 256 c 2,6,-1
 506 702 l 1,7,-1
 111 702 l 1,8,-1
 213 915 l 1,9,-1
 909 915 l 1,10,-1
 838 702 l 1,11,-1
 297 213 l 1,12,-1
 1987 213 l 1,0,-1
EndSplineSet
Validated: 1
EndChar

StartChar: braceleft
Encoding: 123 123 94
Width: 1137
GlyphClass: 1
Flags: W
LayerCount: 2
Fore
SplineSet
1065 1864 m 1,0,-1
 1022 1694 l 1,1,2
 1009 1694 1009 1694 984 1696 c 128,-1,3
 959 1698 959 1698 946 1698 c 0,4,5
 842 1698 842 1698 793 1536 c 1,6,7
 764 1423 764 1423 702 1197 c 0,8,9
 641 989 641 989 515 901 c 0,10,11
 462 864 462 864 428 864 c 1,12,13
 472 840 472 840 497 771 c 0,14,15
 518 714 518 714 518 653 c 0,16,17
 518 554 518 554 446.5 366.5 c 128,-1,18
 375 179 375 179 375 80 c 0,19,20
 375 9 375 9 431 -14 c 0,21,22
 467 -29 467 -29 549 -29 c 1,23,-1
 496 -199 l 1,24,25
 154 -199 154 -199 154 59 c 0,26,27
 154 172 154 172 235.5 384 c 128,-1,28
 317 596 317 596 317 709 c 0,29,30
 317 827 317 827 246 895 c 1,31,32
 409 963 409 963 461 1143 c 2,33,-1
 606 1645 l 2,34,35
 671 1872 671 1872 963 1866 c 2,36,-1
 1065 1864 l 1,0,-1
EndSplineSet
Validated: 33
EndChar

StartChar: bar
Encoding: 124 124 95
Width: 487
GlyphClass: 1
Flags: W
LayerCount: 2
Fore
SplineSet
324 -137 m 1,0,-1
 160 -137 l 1,1,-1
 160 1720 l 1,2,-1
 324 1720 l 1,3,-1
 324 -137 l 1,0,-1
EndSplineSet
Validated: 1
EndChar

StartChar: braceright
Encoding: 125 125 96
Width: 1137
GlyphClass: 1
Flags: W
LayerCount: 2
Fore
SplineSet
1075 958 m 0,0,1
 1075 840 1075 840 1147 772 c 1,2,3
 975 697 975 697 904 433 c 0,4,5
 797 36 797 36 787 4 c 1,6,7
 687 -206 687 -206 428 -201 c 2,8,-1
 328 -199 l 1,9,-1
 373 -27 l 1,10,11
 386 -27 386 -27 411 -29 c 128,-1,12
 436 -31 436 -31 449 -31 c 0,13,14
 553 -31 553 -31 601 130 c 1,15,16
 629 243 629 243 690 467 c 1,17,18
 751 674 751 674 879 764 c 0,19,20
 932 801 932 801 965 801 c 1,21,22
 874 858 874 858 874 1014 c 0,23,24
 874 1113 874 1113 947 1301 c 128,-1,25
 1020 1489 1020 1489 1020 1587 c 0,26,27
 1020 1658 1020 1658 963 1682 c 0,28,29
 929 1696 929 1696 844 1696 c 1,30,-1
 897 1864 l 1,31,32
 1239 1864 1239 1864 1239 1608 c 0,33,34
 1239 1495 1239 1495 1157 1283 c 128,-1,35
 1075 1071 1075 1071 1075 958 c 0,0,1
EndSplineSet
Validated: 33
EndChar

StartChar: asciitilde
Encoding: 126 126 97
Width: 1122
GlyphClass: 1
Flags: W
LayerCount: 2
Fore
SplineSet
1026 737 m 1,0,-1
 823 463 l 1,1,-1
 317 463 l 1,2,-1
 195 328 l 1,3,-1
 84 416 l 1,4,-1
 287 674 l 1,5,-1
 793 674 l 1,6,-1
 915 821 l 1,7,-1
 1026 737 l 1,0,-1
EndSplineSet
Validated: 1
EndChar

StartChar: dagger
Encoding: 8224 8224 98
Width: 3416
GlyphClass: 1
Flags: W
LayerCount: 2
Fore
SplineSet
3678 213 m 1,0,-1
 3551 0 l 1,1,-1
 2202 0 l 2,2,3
 1986 0 1986 0 1911 129 c 1,4,-1
 1835 0 l 1,5,-1
 485 0 l 2,6,7
 350 0 350 0 266 54 c 0,8,9
 166 118 166 118 166 246 c 0,10,11
 166 344 166 344 212 478 c 0,12,13
 238 553 238 553 291 702 c 1,14,-1
 23 702 l 1,15,-1
 150 915 l 1,16,-1
 354 915 l 1,17,-1
 463 1284 l 1,18,-1
 702 1343 l 1,19,-1
 575 915 l 1,20,-1
 2071 915 l 1,21,-1
 2245 1501 l 1,22,-1
 2484 1561 l 1,23,-1
 2292 915 l 1,24,-1
 2585 915 l 1,25,-1
 2449 702 l 1,26,-1
 2228 702 l 1,27,28
 2203 629 2203 629 2153 481 c 128,-1,29
 2103 333 2103 333 2103 264 c 0,30,31
 2103 213 2103 213 2187 213 c 2,32,-1
 3678 213 l 1,0,-1
2007 702 m 1,33,-1
 512 702 l 1,34,-1
 436 484 l 2,35,36
 385 334 385 334 385 264 c 0,37,38
 385 213 385 213 466 213 c 2,39,-1
 1884 213 l 1,40,41
 1884 325 1884 325 1927 460 c 2,42,43
 1927 460 1927 460 2007 702 c 1,33,-1
EndSplineSet
Validated: 1
EndChar

StartChar: cent
Encoding: 162 162 99
Width: 1061
GlyphClass: 1
Flags: W
LayerCount: 2
Fore
SplineSet
1008 520 m 1,0,-1
 883 307 l 1,1,2
 519 307 519 307 459 311 c 1,3,-1
 365 -6 l 1,4,-1
 217 -6 l 1,5,-1
 319 336 l 1,6,7
 214 370 214 370 152 442 c 0,8,9
 84 520 84 520 84 625 c 0,10,11
 84 709 84 709 121 821 c 0,12,13
 143 884 143 884 186 1010 c 0,14,15
 234 1160 234 1160 334 1199 c 0,16,17
 396 1223 396 1223 584 1223 c 1,18,-1
 659 1479 l 1,19,-1
 807 1479 l 1,20,-1
 731 1223 l 1,21,22
 857 1223 857 1223 911 1202 c 0,23,24
 1001 1167 1001 1167 1001 1061 c 0,25,26
 1001 1008 1001 1008 980 940 c 0,27,28
 967 901 967 901 942 823 c 1,29,-1
 721 823 l 1,30,-1
 774 1010 l 1,31,-1
 668 1010 l 1,32,-1
 520 520 l 1,33,-1
 1008 520 l 1,0,-1
520 1010 m 1,34,-1
 410 1010 l 1,35,36
 387 950 387 950 343 830 c 0,37,38
 303 719 303 719 303 641 c 0,39,40
 303 586 303 586 381 547 c 1,41,-1
 520 1010 l 1,34,-1
EndSplineSet
Validated: 1
EndChar

StartChar: sterling
Encoding: 163 163 100
Width: 2087
GlyphClass: 1
Flags: W
LayerCount: 2
Fore
SplineSet
1980 213 m 1,0,-1
 1855 0 l 1,1,-1
 6 0 l 1,2,-1
 133 213 l 1,3,4
 693 213 693 213 848 702 c 1,5,-1
 469 702 l 1,6,-1
 588 915 l 1,7,-1
 911 915 l 1,8,9
 1026 1289 1026 1289 1163 1446 c 0,10,11
 1351 1661 1351 1661 1696 1661 c 0,12,13
 1976 1661 1976 1661 1976 1427 c 0,14,15
 1976 1331 1976 1331 1937 1203 c 0,16,17
 1922 1153 1922 1153 1868 987 c 1,18,-1
 1647 987 l 1,19,-1
 1708 1168 l 2,20,21
 1745 1281 1745 1281 1745 1354 c 0,22,23
 1745 1462 1745 1462 1622 1462 c 0,24,25
 1423 1462 1423 1462 1292 1278 c 0,26,27
 1202 1152 1202 1152 1133 915 c 1,28,-1
 1501 915 l 1,29,-1
 1380 702 l 1,30,-1
 1069 702 l 1,31,32
 1018 524 1018 524 959 422 c 0,33,34
 879 284 879 284 748 213 c 1,35,-1
 1980 213 l 1,0,-1
EndSplineSet
Validated: 1
EndChar

StartChar: section
Encoding: 167 167 101
Width: 2040
GlyphClass: 1
Flags: W
LayerCount: 2
Fore
SplineSet
1991 1638 m 1,0,-1
 1872 1427 l 1,1,2
 1843 1427 1843 1427 1784.5 1428.5 c 128,-1,3
 1726 1430 1726 1430 1697 1430 c 0,4,5
 1524 1430 1524 1430 1436 1386 c 0,6,7
 1313 1325 1313 1325 1313 1167 c 0,8,9
 1313 1067 1313 1067 1447 973 c 0,10,11
 1500 936 1500 936 1697 802 c 1,12,13
 1831 686 1831 686 1831 537 c 0,14,15
 1831 293 1831 293 1619 144 c 0,16,17
 1451 26 1451 26 1180 -18 c 1,18,19
 1095 -157 1095 -157 909 -233 c 0,20,21
 747 -299 747 -299 563 -299 c 0,22,23
 350 -299 350 -299 193 -212 c 0,24,25
 0 -105 0 -105 0 92 c 0,26,27
 0 266 0 266 134 367 c 0,28,29
 255 459 255 459 434 459 c 2,30,-1
 793 459 l 1,31,-1
 686 246 l 1,32,33
 660 246 660 246 607 248.5 c 128,-1,34
 554 251 554 251 527 251 c 0,35,36
 229 251 229 251 229 98 c 0,37,38
 229 -5 229 -5 361 -58 c 0,39,40
 460 -98 460 -98 580 -98 c 0,41,42
 776 -98 776 -98 898 -15 c 0,43,44
 1040 81 1040 81 1040 268 c 0,45,46
 1040 372 1040 372 911 476 c 0,47,48
 877 503 877 503 672 664 c 1,49,50
 543 788 543 788 543 938 c 0,51,52
 543 1153 543 1153 711 1303 c 0,53,54
 872 1448 872 1448 1090 1448 c 2,55,-1
 1225 1448 l 1,56,57
 1374 1638 1374 1638 1630 1638 c 2,58,-1
 1991 1638 l 1,0,-1
1606 510 m 0,59,60
 1606 612 1606 612 1475 703 c 0,61,62
 1394 758 1394 758 1233 868 c 1,63,64
 1102 979 1102 979 1102 1124 c 0,65,66
 1102 1177 1102 1177 1114 1227 c 1,67,-1
 1024 1227 l 2,68,69
 922 1227 922 1227 842 1147.5 c 128,-1,70
 762 1068 762 1068 762 967 c 0,71,72
 762 862 762 862 890 763 c 2,73,74
 890 763 890 763 1128 581 c 1,75,76
 1256 458 1256 458 1256 302 c 0,77,78
 1256 259 1256 259 1247 213 c 1,79,80
 1383 235 1383 235 1483 304 c 0,81,82
 1606 389 1606 389 1606 510 c 0,59,60
EndSplineSet
Validated: 1
EndChar

StartChar: bullet
Encoding: 8226 8226 102
Width: 764
GlyphClass: 1
Flags: W
LayerCount: 2
Fore
SplineSet
524 883 m 0,0,1
 524 804 524 804 470.5 749 c 128,-1,2
 417 694 417 694 338 694 c 256,3,4
 259 694 259 694 204.5 748.5 c 128,-1,5
 150 803 150 803 150 883 c 0,6,7
 150 961 150 961 204.5 1015 c 128,-1,8
 259 1069 259 1069 338 1069 c 0,9,10
 416 1069 416 1069 470 1015 c 128,-1,11
 524 961 524 961 524 883 c 0,0,1
EndSplineSet
Validated: 1
EndChar

StartChar: paragraph
Encoding: 182 182 103
Width: 1409
GlyphClass: 1
Flags: W
LayerCount: 2
Fore
SplineSet
1362 1638 m 1,0,-1
 874 0 l 1,1,-1
 768 0 l 1,2,-1
 1192 1425 l 1,3,-1
 1085 1425 l 1,4,-1
 657 0 l 1,5,-1
 428 0 l 1,6,-1
 602 584 l 1,7,-1
 369 751 l 2,8,9
 221 859 221 859 141 959 c 0,10,11
 39 1086 39 1086 39 1212 c 0,12,13
 39 1426 39 1426 225 1541 c 0,14,15
 382 1638 382 1638 610 1638 c 2,16,-1
 1362 1638 l 1,0,-1
856 1427 m 1,17,-1
 563 1427 l 2,18,19
 450 1427 450 1427 364 1379 c 0,20,21
 260 1321 260 1321 260 1217 c 0,22,23
 260 1096 260 1096 427 972 c 1,24,25
 508 917 508 917 670 807 c 1,26,-1
 856 1427 l 1,17,-1
EndSplineSet
Validated: 1
EndChar

StartChar: germandbls
Encoding: 223 223 104
Width: 1909
GlyphClass: 1
Flags: W
LayerCount: 2
Fore
SplineSet
1788 1167 m 0,0,1
 1788 954 1788 954 1641 827 c 0,2,3
 1502 707 1502 707 1286 707 c 1,4,-1
 1266 678 l 1,5,6
 1302 614 1302 614 1372 485 c 0,7,8
 1436 364 1436 364 1436 274 c 0,9,10
 1436 135 1436 135 1329 63 c 0,11,12
 1237 0 1237 0 1092 0 c 2,13,-1
 791 0 l 2,14,15
 559 0 559 0 559 199 c 0,16,17
 559 263 559 263 585 348 c 2,18,19
 585 348 585 348 631 492 c 1,20,-1
 854 492 l 1,21,22
 841 453 841 453 815 376 c 0,23,24
 791 304 791 304 791 258 c 0,25,26
 791 243 791 243 802 227 c 1,27,28
 832 213 832 213 887 213 c 2,29,-1
 1102 213 l 2,30,31
 1144 213 1144 213 1175 232 c 0,32,33
 1212 254 1212 254 1212 293 c 0,34,35
 1212 336 1212 336 1110 513 c 128,-1,36
 1008 690 1008 690 1008 762 c 0,37,38
 1008 891 1008 891 1157 910 c 0,39,40
 1161 910 1161 910 1434 938 c 1,41,42
 1583 977 1583 977 1583 1145 c 0,43,44
 1583 1296 1583 1296 1431 1384 c 0,45,46
 1304 1458 1304 1458 1141 1458 c 0,47,48
 650 1458 650 1458 557 1147 c 2,49,-1
 215 0 l 1,50,-1
 -6 0 l 1,51,-1
 203 702 l 1,52,-1
 -20 702 l 1,53,-1
 106 915 l 1,54,-1
 266 915 l 1,55,-1
 336 1147 l 2,56,57
 487 1647 487 1647 1161 1647 c 0,58,59
 1398 1647 1398 1647 1580 1528 c 0,60,61
 1788 1392 1788 1392 1788 1167 c 0,0,1
EndSplineSet
Validated: 1
EndChar

StartChar: acute
Encoding: 180 180 105
Width: 1122
GlyphClass: 1
Flags: W
LayerCount: 2
Fore
SplineSet
799 1284 m 1,0,-1
 434 1016 l 1,1,-1
 397 1151 l 1,2,-1
 713 1475 l 1,3,-1
 799 1284 l 1,0,-1
EndSplineSet
Validated: 1
EndChar

StartChar: dieresis
Encoding: 168 168 106
Width: 1122
GlyphClass: 1
Flags: W
LayerCount: 2
Fore
SplineSet
971 1198 m 1,0,-1
 797 1059 l 1,1,-1
 598 1200 l 1,2,-1
 772 1337 l 1,3,-1
 971 1198 l 1,0,-1
520 1198 m 1,4,-1
 346 1059 l 1,5,-1
 147 1200 l 1,6,-1
 322 1337 l 1,7,-1
 520 1198 l 1,4,-1
EndSplineSet
Validated: 1
EndChar

StartChar: AE
Encoding: 198 198 107
Width: 3387
GlyphClass: 1
Flags: W
LayerCount: 2
Fore
SplineSet
3668 213 m 1,0,-1
 3541 0 l 1,1,-1
 2107 0 l 2,2,3
 1949 0 1949 0 1854 69 c 0,4,5
 1745 147 1745 147 1745 299 c 0,6,7
 1745 373 1745 373 1772 457 c 1,8,-1
 1247 457 l 1,9,10
 1105 209 1105 209 879 99 c 0,11,12
 675 0 675 0 371 0 c 2,13,-1
 -10 0 l 1,14,-1
 117 213 l 1,15,16
 161 213 161 213 248 211 c 128,-1,17
 335 209 335 209 379 209 c 0,18,19
 580 209 580 209 701 251 c 0,20,21
 860 306 860 306 979 457 c 1,22,-1
 414 457 l 1,23,-1
 543 676 l 1,24,-1
 1104 676 l 1,25,26
 1274 1049 1274 1049 1342 1162 c 0,27,28
 1482 1396 1482 1396 1659 1507 c 0,29,30
 1868 1638 1868 1638 2189 1638 c 2,31,-1
 2691 1638 l 2,32,33
 2824 1638 2824 1638 2909 1573 c 0,34,35
 3002 1501 3002 1501 3002 1372 c 0,36,37
 3002 1302 3002 1302 2935 1098 c 1,38,-1
 2705 1098 l 1,39,40
 2767 1275 2767 1275 2767 1329 c 0,41,42
 2767 1425 2767 1425 2652 1425 c 2,43,-1
 2140 1425 l 2,44,45
 1819 1425 1819 1425 1624 1193 c 0,46,47
 1509 1056 1509 1056 1350 676 c 1,48,-1
 1837 676 l 1,49,-1
 2021 1294 l 1,50,-1
 2243 1294 l 1,51,-1
 2058 676 l 1,52,-1
 2587 676 l 1,53,-1
 2460 457 l 1,54,-1
 1993 457 l 1,55,56
 1964 353 1964 353 1964 319 c 0,57,58
 1964 213 1964 213 2132 213 c 2,59,-1
 3668 213 l 1,0,-1
EndSplineSet
Validated: 1
EndChar

StartChar: Oslash
Encoding: 216 216 108
Width: 2666
GlyphClass: 1
Flags: W
LayerCount: 2
Fore
SplineSet
2251 1114 m 0,0,1
 2251 841 2251 841 2093 571 c 0,2,3
 1943 313 1943 313 1709 151 c 0,4,5
 1455 -25 1455 -25 1186 -25 c 0,6,7
 1104 -25 1104 -25 1026 -6 c 1,8,-1
 969 -109 l 1,9,-1
 811 -109 l 1,10,-1
 897 41 l 1,11,12
 653 180 653 180 653 518 c 0,13,14
 653 934 653 934 977 1290 c 1,15,-1
 1268 1290 l 1,16,17
 887 929 887 929 887 559 c 0,18,19
 887 349 887 349 1018 256 c 1,20,-1
 1683 1425 l 1,21,-1
 12 1425 l 1,22,-1
 137 1638 l 1,23,-1
 1675 1638 l 2,24,25
 1745 1638 1745 1638 1800 1630 c 1,26,-1
 1884 1778 l 1,27,-1
 2042 1778 l 1,28,-1
 1939 1597 l 1,29,30
 2251 1488 2251 1488 2251 1114 c 0,0,1
2017 1092 m 0,31,32
 2017 1326 2017 1326 1825 1397 c 1,33,-1
 1147 205 l 1,34,35
 1195 197 1195 197 1225 197 c 0,36,37
 1527 197 1527 197 1777 497 c 0,38,39
 2017 785 2017 785 2017 1092 c 0,31,32
EndSplineSet
Validated: 1
EndChar

StartChar: yen
Encoding: 165 165 109
Width: 1847
GlyphClass: 1
Flags: W
LayerCount: 2
Fore
SplineSet
1786 1638 m 1,0,-1
 1393 322 l 1,1,-1
 1698 322 l 1,2,-1
 1667 213 l 1,3,-1
 1360 213 l 1,4,-1
 1329 109 l 1,5,-1
 1634 109 l 1,6,-1
 1604 0 l 1,7,-1
 1296 0 l 1,8,-1
 1143 -512 l 1,9,-1
 922 -512 l 1,10,-1
 1075 0 l 1,11,-1
 776 0 l 1,12,-1
 807 109 l 1,13,-1
 1108 109 l 1,14,-1
 1139 213 l 1,15,-1
 842 213 l 1,16,-1
 872 322 l 1,17,-1
 1171 322 l 1,18,-1
 1380 1020 l 1,19,20
 1172 723 1172 723 1060 603 c 0,21,22
 823 350 823 350 631 350 c 0,23,24
 418 350 418 350 418 573 c 0,25,26
 418 694 418 694 507 929.5 c 128,-1,27
 596 1165 596 1165 596 1284 c 0,28,29
 596 1425 596 1425 424 1425 c 2,30,-1
 31 1425 l 1,31,-1
 154 1638 l 1,32,-1
 475 1638 l 2,33,34
 629 1638 629 1638 722 1566 c 0,35,36
 825 1487 825 1487 825 1337 c 0,37,38
 825 1219 825 1219 732 969 c 128,-1,39
 639 719 639 719 639 621 c 0,40,41
 639 569 639 569 684 569 c 0,42,43
 845 569 845 569 1591 1638 c 1,44,-1
 1786 1638 l 1,0,-1
EndSplineSet
Validated: 1
EndChar

StartChar: ae
Encoding: 230 230 112
Width: 2613
GlyphClass: 1
Flags: W
LayerCount: 2
Fore
SplineSet
2882 213 m 1,0,-1
 2757 0 l 1,1,-1
 1065 0 l 2,2,3
 913 0 913 0 818 71 c 0,4,5
 711 151 711 151 711 298 c 0,6,7
 711 316 711 316 713 334 c 1,8,9
 399 0 399 0 170 0 c 0,10,11
 0 0 0 0 0 168 c 0,12,13
 0 275 0 275 61 461 c 0,14,15
 93 555 93 555 156 743 c 0,16,17
 187 840 187 840 238 877.5 c 128,-1,18
 289 915 289 915 391 915 c 2,19,-1
 1411 915 l 2,20,21
 1509 915 1509 915 1570 871 c 0,22,23
 1640 821 1640 821 1640 727 c 0,24,25
 1640 614 1640 614 1509 516 c 2,26,-1
 1186 274 l 1,27,-1
 1055 428 l 1,28,-1
 1427 702 l 1,29,-1
 1042 702 l 1,30,31
 1020 642 1020 642 977 521 c 0,32,33
 938 411 938 411 938 334 c 0,34,35
 938 213 938 213 1085 213 c 2,36,-1
 2882 213 l 1,0,-1
780 702 m 1,37,-1
 367 702 l 1,38,39
 341 623 341 623 290 464 c 0,40,41
 245 325 245 325 225 223 c 1,42,-1
 238 211 l 1,43,44
 369 234 369 234 780 702 c 1,37,-1
EndSplineSet
Validated: 1
EndChar

StartChar: oslash
Encoding: 248 248 113
Width: 2095
GlyphClass: 1
Flags: W
LayerCount: 2
Fore
SplineSet
2361 213 m 1,0,-1
 2232 0 l 1,1,-1
 446 0 l 2,2,3
 396 0 396 0 360 8 c 1,4,-1
 293 -109 l 1,5,-1
 135 -109 l 1,6,-1
 233 63 l 1,7,8
 121 150 121 150 121 340 c 0,9,10
 121 461 121 461 168 602 c 1,11,-1
 393 602 l 1,12,13
 332 459 332 459 332 360 c 0,14,15
 332 301 332 301 350 266 c 1,16,-1
 600 702 l 1,17,-1
 -29 702 l 1,18,-1
 80 915 l 1,19,-1
 723 915 l 1,20,-1
 784 1034 l 1,21,-1
 942 1034 l 1,22,-1
 881 915 l 1,23,24
 976 914 976 914 1017.5 873.5 c 128,-1,25
 1059 833 1059 833 1059 739 c 0,26,27
 1059 623 1059 623 996 457 c 0,28,29
 929 281 929 281 848 213 c 1,30,-1
 2361 213 l 1,0,-1
827 702 m 1,31,-1
 758 702 l 1,32,-1
 471 201 l 1,33,34
 618 205 618 205 728 385 c 0,35,36
 824 543 824 543 827 702 c 1,31,-1
EndSplineSet
Validated: 1
EndChar

StartChar: questiondown
Encoding: 191 191 114
Width: 1210
GlyphClass: 1
Flags: W
LayerCount: 2
Fore
SplineSet
555 1221 m 1,0,-1
 784 1221 l 1,1,2
 719 1019 719 1019 651 919 c 0,3,4
 599 843 599 843 454 717 c 0,5,6
 271 558 271 558 227 512 c 0,7,8
 119 398 119 398 119 313 c 0,9,10
 119 213 119 213 281 213 c 2,11,-1
 510 213 l 2,12,13
 616 213 616 213 643 303 c 2,14,-1
 748 651 l 1,15,-1
 971 651 l 1,16,17
 942 546 942 546 881 337 c 0,18,19
 831 178 831 178 739 96 c 0,20,21
 631 0 631 0 442 0 c 2,22,-1
 215 0 l 2,23,24
 -121 0 -121 0 -121 246 c 0,25,26
 -121 403 -121 403 -29 532 c 0,27,28
 32 618 32 618 181 741 c 0,29,30
 354 884 354 884 407 943 c 0,31,32
 484 1028 484 1028 555 1221 c 1,0,-1
584 1425 m 1,33,-1
 647 1638 l 1,34,-1
 893 1638 l 1,35,-1
 825 1425 l 1,36,-1
 584 1425 l 1,33,-1
EndSplineSet
Validated: 1
EndChar

StartChar: exclamdown
Encoding: 161 161 115
Width: 848
GlyphClass: 1
Flags: W
LayerCount: 2
Fore
SplineSet
-117 0 m 1,0,-1
 295 1221 l 1,1,-1
 512 1221 l 1,2,-1
 160 0 l 1,3,-1
 -117 0 l 1,0,-1
340 1425 m 1,4,-1
 403 1638 l 1,5,-1
 649 1638 l 1,6,-1
 582 1425 l 1,7,-1
 340 1425 l 1,4,-1
EndSplineSet
Validated: 1
EndChar

StartChar: florin
Encoding: 402 402 116
Width: 1688
GlyphClass: 1
Flags: W
LayerCount: 2
Fore
SplineSet
1675 1452 m 1,0,-1
 1491 1321 l 1,1,2
 1442 1397 1442 1397 1424 1416 c 0,3,4
 1379 1462 1379 1462 1321 1462 c 0,5,6
 1252 1462 1252 1462 1193.5 1411.5 c 128,-1,7
 1135 1361 1135 1361 1114 1292 c 2,8,-1
 1001 915 l 1,9,-1
 1358 915 l 1,10,-1
 1227 702 l 1,11,-1
 938 702 l 1,12,13
 908 593 908 593 844 377 c 0,14,15
 784 188 784 188 684 80 c 0,16,17
 563 -51 563 -51 379 -51 c 0,18,19
 172 -51 172 -51 31 166 c 1,20,-1
 221 301 l 1,21,22
 267 227 267 227 284 209 c 0,23,24
 326 166 326 166 383 166 c 0,25,26
 550 166 550 166 598 328 c 2,27,-1
 709 702 l 1,28,-1
 389 702 l 1,29,-1
 520 915 l 1,30,-1
 772 915 l 1,31,32
 803 1029 803 1029 870 1255 c 0,33,34
 929 1440 929 1440 1031 1541 c 0,35,36
 1153 1661 1153 1661 1352 1661 c 0,37,38
 1466 1661 1466 1661 1543 1605 c 0,39,40
 1603 1561 1603 1561 1675 1452 c 1,0,-1
EndSplineSet
Validated: 1
EndChar

StartChar: guillemotleft
Encoding: 171 171 117
Width: 1933
GlyphClass: 1
Flags: W
LayerCount: 2
Fore
SplineSet
1794 969 m 1,0,-1
 1231 489 l 1,1,-1
 1657 -41 l 1,2,-1
 1329 -41 l 1,3,-1
 965 403 l 1,4,-1
 1004 559 l 1,5,-1
 1470 969 l 1,6,-1
 1794 969 l 1,0,-1
1208 969 m 1,7,-1
 645 489 l 1,8,-1
 1071 -41 l 1,9,-1
 743 -41 l 1,10,-1
 379 403 l 1,11,-1
 420 559 l 1,12,-1
 887 969 l 1,13,-1
 1208 969 l 1,7,-1
EndSplineSet
Validated: 1
EndChar

StartChar: guillemotright
Encoding: 187 187 118
Width: 1933
GlyphClass: 1
Flags: W
LayerCount: 2
Fore
SplineSet
1702 524 m 1,0,-1
 1661 369 l 1,1,-1
 1194 -41 l 1,2,-1
 872 -41 l 1,3,-1
 1436 438 l 1,4,-1
 1010 969 l 1,5,-1
 1337 969 l 1,6,-1
 1702 524 l 1,0,-1
1116 524 m 1,7,-1
 1077 369 l 1,8,-1
 610 -41 l 1,9,-1
 287 -41 l 1,10,-1
 850 438 l 1,11,-1
 424 969 l 1,12,-1
 752 969 l 1,13,-1
 1116 524 l 1,7,-1
EndSplineSet
Validated: 1
EndChar

StartChar: ellipsis
Encoding: 8230 8230 119
Width: 2071
GlyphClass: 1
Flags: W
LayerCount: 2
Fore
SplineSet
2056 213 m 1,0,-1
 1993 0 l 1,1,-1
 1747 0 l 1,2,-1
 1810 213 l 1,3,-1
 2056 213 l 1,0,-1
1401 213 m 1,4,-1
 1337 0 l 1,5,-1
 1092 0 l 1,6,-1
 1155 213 l 1,7,-1
 1401 213 l 1,4,-1
745 213 m 1,8,-1
 682 0 l 1,9,-1
 436 0 l 1,10,-1
 500 213 l 1,11,-1
 745 213 l 1,8,-1
EndSplineSet
Validated: 1
EndChar

StartChar: OE
Encoding: 338 338 120
Width: 3480
GlyphClass: 1
Flags: W
LayerCount: 2
Fore
SplineSet
3031 1098 m 1,0,-1
 2802 1098 l 1,1,-1
 2840 1212 l 2,2,3
 2863 1282 2863 1282 2863 1329 c 0,4,5
 2863 1425 2863 1425 2748 1425 c 2,6,-1
 12 1425 l 1,7,-1
 137 1638 l 1,8,-1
 2777 1638 l 2,9,10
 2914 1638 2914 1638 3000 1573 c 0,11,12
 3097 1501 3097 1501 3097 1368 c 0,13,14
 3097 1306 3097 1306 3074 1231 c 0,15,16
 3060 1187 3060 1187 3031 1098 c 1,0,-1
3764 213 m 1,17,-1
 3637 0 l 1,18,-1
 2206 0 l 2,19,20
 2065 0 2065 0 1969 59 c 0,21,22
 1857 127 1857 127 1841 258 c 1,23,24
 1535 -25 1535 -25 1186 -25 c 0,25,26
 933 -25 933 -25 793 119.5 c 128,-1,27
 653 264 653 264 653 518 c 0,28,29
 653 934 653 934 977 1290 c 1,30,-1
 1268 1290 l 1,31,32
 887 929 887 929 887 559 c 0,33,34
 887 392 887 392 972 297 c 0,35,36
 1060 197 1060 197 1225 197 c 0,37,38
 1499 197 1499 197 1743 457 c 1,39,-1
 1507 457 l 1,40,-1
 1610 676 l 1,41,-1
 1923 676 l 1,42,-1
 2118 1294 l 1,43,-1
 2339 1294 l 1,44,-1
 2154 676 l 1,45,-1
 2683 676 l 1,46,-1
 2556 457 l 1,47,-1
 2089 457 l 1,48,49
 2060 353 2060 353 2060 319 c 0,50,51
 2060 213 2060 213 2228 213 c 2,52,-1
 3764 213 l 1,17,-1
EndSplineSet
Validated: 1
EndChar

StartChar: oe
Encoding: 339 339 121
Width: 2640
GlyphClass: 1
Flags: W
LayerCount: 2
Fore
SplineSet
2910 213 m 1,0,-1
 2787 0 l 1,1,-1
 1096 0 l 2,2,3
 887 0 887 0 793 127 c 1,4,5
 661 0 661 0 446 0 c 0,6,7
 294 0 294 0 206.5 87 c 128,-1,8
 119 174 119 174 119 326 c 0,9,10
 119 457 119 457 168 602 c 1,11,-1
 393 602 l 1,12,13
 332 456 332 456 332 360 c 0,14,15
 332 201 332 201 463 201 c 0,16,17
 612 201 612 201 725 382 c 0,18,19
 824 541 824 541 827 702 c 1,20,-1
 -29 702 l 1,21,-1
 80 915 l 1,22,-1
 1442 915 l 2,23,24
 1540 915 1540 915 1601 871 c 0,25,26
 1671 821 1671 821 1671 727 c 0,27,28
 1671 613 1671 613 1540 516 c 2,29,-1
 1214 274 l 1,30,-1
 1085 428 l 1,31,-1
 1456 702 l 1,32,-1
 1071 702 l 1,33,34
 967 384 967 384 967 334 c 0,35,36
 967 213 967 213 1116 213 c 2,37,-1
 2910 213 l 1,0,-1
EndSplineSet
Validated: 1
EndChar

StartChar: endash
Encoding: 8211 8211 122
Width: 2540
GlyphClass: 1
Flags: W
LayerCount: 2
Fore
SplineSet
2324 678 m 1,0,-1
 2257 465 l 1,1,-1
 147 465 l 1,2,-1
 215 678 l 1,3,-1
 2324 678 l 1,0,-1
EndSplineSet
Validated: 1
EndChar

StartChar: emdash
Encoding: 8212 8212 123
Width: 1767
GlyphClass: 1
Flags: W
LayerCount: 2
Fore
SplineSet
1552 678 m 1,0,-1
 1485 465 l 1,1,-1
 147 465 l 1,2,-1
 215 678 l 1,3,-1
 1552 678 l 1,0,-1
EndSplineSet
Validated: 1
EndChar

StartChar: quotedblleft
Encoding: 8220 8220 124
Width: 854
GlyphClass: 1
Flags: W
LayerCount: 2
Fore
SplineSet
723 1663 m 1,0,-1
 604 1475 l 1,1,-1
 698 1475 l 1,2,-1
 635 1262 l 1,3,-1
 387 1262 l 1,4,-1
 451 1475 l 1,5,-1
 614 1663 l 1,6,-1
 723 1663 l 1,0,-1
332 1663 m 1,7,-1
 211 1475 l 1,8,-1
 307 1475 l 1,9,-1
 244 1262 l 1,10,-1
 -4 1262 l 1,11,-1
 59 1475 l 1,12,-1
 223 1663 l 1,13,-1
 332 1663 l 1,7,-1
EndSplineSet
Validated: 1
EndChar

StartChar: quotedblright
Encoding: 8221 8221 125
Width: 852
GlyphClass: 1
Flags: W
LayerCount: 2
Fore
SplineSet
664 1661 m 1,0,-1
 600 1448 l 1,1,-1
 436 1260 l 1,2,-1
 328 1260 l 1,3,-1
 449 1448 l 1,4,-1
 352 1448 l 1,5,-1
 416 1661 l 1,6,-1
 664 1661 l 1,0,-1
272 1661 m 1,7,-1
 209 1448 l 1,8,-1
 45 1260 l 1,9,-1
 -63 1260 l 1,10,-1
 55 1448 l 1,11,-1
 -39 1448 l 1,12,-1
 25 1661 l 1,13,-1
 272 1661 l 1,7,-1
EndSplineSet
Validated: 1
EndChar

StartChar: quoteleft
Encoding: 8216 8216 126
Width: 537
GlyphClass: 1
Flags: W
LayerCount: 2
Fore
SplineSet
332 1663 m 1,0,-1
 211 1475 l 1,1,-1
 307 1475 l 1,2,-1
 244 1262 l 1,3,-1
 -4 1262 l 1,4,-1
 59 1475 l 1,5,-1
 223 1663 l 1,6,-1
 332 1663 l 1,0,-1
EndSplineSet
Validated: 1
EndChar

StartChar: quoteright
Encoding: 8217 8217 127
Width: 537
GlyphClass: 1
Flags: W
LayerCount: 2
Fore
SplineSet
272 1661 m 1,0,-1
 209 1448 l 1,1,-1
 45 1260 l 1,2,-1
 -63 1260 l 1,3,-1
 55 1448 l 1,4,-1
 -39 1448 l 1,5,-1
 25 1661 l 1,6,-1
 272 1661 l 1,0,-1
EndSplineSet
Validated: 1
EndChar

StartChar: fraction
Encoding: 8260 8260 128
Width: 1436
GlyphClass: 1
Flags: W
LayerCount: 2
Fore
SplineSet
1403 1778 m 1,0,-1
 281 -195 l 1,1,-1
 41 -195 l 1,2,-1
 1163 1778 l 1,3,-1
 1403 1778 l 1,0,-1
EndSplineSet
Validated: 1
EndChar

StartChar: guilsinglleft
Encoding: 8249 8249 130
Width: 1389
GlyphClass: 1
Flags: W
LayerCount: 2
Fore
SplineSet
1249 969 m 1,0,-1
 686 489 l 1,1,-1
 1112 -41 l 1,2,-1
 784 -41 l 1,3,-1
 420 403 l 1,4,-1
 461 559 l 1,5,-1
 928 969 l 1,6,-1
 1249 969 l 1,0,-1
EndSplineSet
Validated: 1
EndChar

StartChar: guilsinglright
Encoding: 8250 8250 131
Width: 1389
GlyphClass: 1
Flags: W
LayerCount: 2
Fore
SplineSet
1225 559 m 1,0,-1
 1174 403 l 1,1,-1
 543 -41 l 1,2,-1
 211 -41 l 1,3,-1
 958 489 l 1,4,-1
 586 969 l 1,5,-1
 905 969 l 1,6,-1
 1225 559 l 1,0,-1
EndSplineSet
Validated: 1
EndChar

StartChar: fi
Encoding: 61441 61441 132
Width: 3070
GlyphClass: 1
Flags: W
LayerCount: 2
Fore
SplineSet
2281 1507 m 1,0,-1
 2181 1176 l 1,1,-1
 1958 1176 l 1,2,-1
 2060 1507 l 1,3,-1
 2281 1507 l 1,0,-1
3336 213 m 1,4,-1
 3211 0 l 1,5,-1
 1882 0 l 2,6,7
 1673 0 1673 0 1673 172 c 0,8,9
 1673 264 1673 264 1731 440 c 2,10,11
 1731 440 1731 440 1819 702 c 1,12,-1
 645 702 l 1,13,14
 706 641 706 641 744 519 c 0,15,16
 778 410 778 410 778 311 c 0,17,18
 778 45 778 45 649 -155 c 0,19,20
 500 -385 500 -385 248 -385 c 0,21,22
 134 -385 134 -385 64 -319 c 128,-1,23
 -6 -253 -6 -253 -6 -139 c 0,24,25
 -6 -83 -6 -83 10 -29 c 2,26,-1
 229 705 l 1,27,28
 180 713 180 713 80 713 c 1,29,-1
 147 915 l 1,30,-1
 291 915 l 1,31,-1
 469 1507 l 1,32,-1
 692 1507 l 1,33,-1
 514 915 l 1,34,-1
 2103 915 l 1,35,-1
 1909 266 l 2,36,37
 1905 253 1905 253 1918 224 c 1,38,39
 1935 213 1935 213 2267 210 c 0,40,41
 2517 208 2517 208 2906 210 c 2,42,-1
 3336 213 l 1,4,-1
551 285 m 0,43,44
 551 491 551 491 424 610 c 1,45,-1
 312 247 l 2,46,47
 223 -44 223 -44 223 -92 c 0,48,49
 223 -168 223 -168 295 -168 c 0,50,51
 421 -168 421 -168 494 4 c 0,52,53
 551 138 551 138 551 285 c 0,43,44
EndSplineSet
Validated: 33
EndChar

StartChar: fl
Encoding: 61442 61442 133
Width: 3074
GlyphClass: 1
Flags: W
LayerCount: 2
Fore
SplineSet
3336 213 m 1,0,-1
 3213 0 l 1,1,-1
 1884 0 l 2,2,3
 1673 0 1673 0 1673 172 c 0,4,5
 1673 268 1673 268 1730 440 c 0,6,7
 1760 527 1760 527 1819 702 c 1,8,-1
 647 702 l 1,9,10
 708 638 708 638 745 519 c 0,11,12
 778 412 778 412 778 311 c 0,13,14
 778 44 778 44 650 -155 c 0,15,16
 502 -385 502 -385 250 -385 c 0,17,18
 135 -385 135 -385 64.5 -319 c 128,-1,19
 -6 -253 -6 -253 -6 -139 c 0,20,21
 -6 -83 -6 -83 10 -29 c 2,22,-1
 229 705 l 1,23,24
 180 713 180 713 82 713 c 1,25,-1
 147 915 l 1,26,-1
 293 915 l 1,27,-1
 469 1507 l 1,28,-1
 692 1507 l 1,29,-1
 516 915 l 1,30,-1
 1880 915 l 1,31,32
 1911 1027 1911 1027 1978 1251 c 0,33,34
 2037 1435 2037 1435 2141 1539 c 0,35,36
 2263 1661 2263 1661 2458 1661 c 0,37,38
 2575 1661 2575 1661 2645.5 1586.5 c 128,-1,39
 2716 1512 2716 1512 2716 1395 c 0,40,41
 2716 1118 2716 1118 2514 920 c 0,42,43
 2320 728 2320 728 2040 705 c 1,44,-1
 1911 242 l 1,45,46
 1911 213 1911 213 1954 213 c 2,47,-1
 3336 213 l 1,0,-1
2431 1470 m 0,48,49
 2331 1470 2331 1470 2257 1359 c 0,50,51
 2200 1272 2200 1272 2158 1124 c 0,52,53
 2143 1069 2143 1069 2103 915 c 1,54,55
 2261 940 2261 940 2385 1070 c 0,56,57
 2513 1205 2513 1205 2513 1362 c 0,58,59
 2513 1470 2513 1470 2431 1470 c 0,48,49
551 285 m 0,60,61
 551 491 551 491 424 610 c 1,62,-1
 311 248 l 2,63,64
 225 -31 225 -31 225 -94 c 0,65,66
 225 -168 225 -168 295 -168 c 0,67,68
 423 -168 423 -168 495 3 c 0,69,70
 551 136 551 136 551 285 c 0,60,61
EndSplineSet
Validated: 1
EndChar

StartChar: periodcentered
Encoding: 183 183 135
AltUni2: 002219.ffffffff.0 002219.ffffffff.0
Width: 788
GlyphClass: 1
Flags: W
LayerCount: 2
Fore
SplineSet
537 1053 m 1,0,-1
 473 840 l 1,1,-1
 227 840 l 1,2,-1
 291 1053 l 1,3,-1
 537 1053 l 1,0,-1
EndSplineSet
Validated: 1
EndChar

StartChar: quotesinglbase
Encoding: 8218 8218 136
Width: 537
GlyphClass: 1
Flags: W
LayerCount: 2
Fore
SplineSet
743 213 m 1,0,-1
 680 0 l 1,1,-1
 516 -188 l 1,2,-1
 408 -188 l 1,3,-1
 526 0 l 1,4,-1
 432 0 l 1,5,-1
 496 213 l 1,6,-1
 743 213 l 1,0,-1
EndSplineSet
Validated: 1
EndChar

StartChar: quotedblbase
Encoding: 8222 8222 137
Width: 852
GlyphClass: 1
Flags: W
LayerCount: 2
Fore
SplineSet
1135 213 m 1,0,-1
 1071 0 l 1,1,-1
 907 -188 l 1,2,-1
 799 -188 l 1,3,-1
 920 0 l 1,4,-1
 823 0 l 1,5,-1
 887 213 l 1,6,-1
 1135 213 l 1,0,-1
743 213 m 1,7,-1
 680 0 l 1,8,-1
 516 -188 l 1,9,-1
 408 -188 l 1,10,-1
 526 0 l 1,11,-1
 432 0 l 1,12,-1
 496 213 l 1,13,-1
 743 213 l 1,7,-1
EndSplineSet
Validated: 1
EndChar

StartChar: dotlessi
Encoding: 305 305 139
Width: 1380
GlyphClass: 1
Flags: W
LayerCount: 2
Fore
SplineSet
1642 213 m 1,0,-1
 1520 0 l 1,1,-1
 190 0 l 2,2,3
 -18 0 -18 0 -18 172 c 0,4,5
 -18 218 -18 218 -2 272 c 2,6,-1
 188 915 l 1,7,-1
 412 915 l 1,8,-1
 217 266 l 2,9,10
 213 253 213 253 226 224 c 1,11,12
 245 212 245 212 575 209 c 0,13,14
 789 207 789 207 1211 210 c 2,15,-1
 1642 213 l 1,0,-1
EndSplineSet
Validated: 33
EndChar

StartChar: circumflex
Encoding: 710 710 140
Width: 1122
GlyphClass: 1
Flags: W
LayerCount: 2
Fore
SplineSet
891 1094 m 1,0,-1
 788 1012 l 1,1,-1
 575 1188 l 1,2,-1
 319 1020 l 1,3,-1
 225 1102 l 1,4,-1
 606 1421 l 1,5,-1
 891 1094 l 1,0,-1
EndSplineSet
Validated: 1
EndChar

StartChar: tilde
Encoding: 732 732 141
Width: 1122
GlyphClass: 1
Flags: W
LayerCount: 2
Fore
SplineSet
995 1237 m 1,0,-1
 782 1067 l 1,1,-1
 745 1067 l 1,2,-1
 391 1169 l 1,3,-1
 225 1081 l 1,4,-1
 193 1155 l 1,5,-1
 403 1325 l 1,6,-1
 442 1325 l 1,7,-1
 797 1223 l 1,8,-1
 961 1311 l 1,9,-1
 995 1237 l 1,0,-1
EndSplineSet
Validated: 1
EndChar

StartChar: macron
Encoding: 175 175 142
AltUni2: 0002c9.ffffffff.0 0002c9.ffffffff.0
Width: 1122
GlyphClass: 1
Flags: W
LayerCount: 2
Fore
SplineSet
762 1073 m 1,0,-1
 332 1073 l 1,1,-1
 332 1196 l 1,2,-1
 762 1196 l 1,3,-1
 762 1073 l 1,0,-1
EndSplineSet
Validated: 1
EndChar

StartChar: breve
Encoding: 728 728 143
Width: 1122
GlyphClass: 1
Flags: W
LayerCount: 2
Fore
SplineSet
842 1286 m 1,0,1
 842 1175 842 1175 757 1103 c 0,2,3
 676 1034 676 1034 563 1034 c 0,4,5
 452 1034 452 1034 371 1104 c 0,6,7
 285 1177 285 1177 285 1286 c 1,8,-1
 420 1286 l 1,9,10
 420 1234 420 1234 467 1200 c 0,11,12
 509 1169 509 1169 563 1169 c 0,13,14
 619 1169 619 1169 660 1199 c 0,15,16
 707 1232 707 1232 707 1286 c 1,17,-1
 842 1286 l 1,0,1
EndSplineSet
Validated: 1
EndChar

StartChar: dotaccent
Encoding: 729 729 144
Width: 1122
GlyphClass: 1
Flags: W
LayerCount: 2
Fore
SplineSet
739 1231 m 0,0,1
 739 1157 739 1157 687 1105 c 128,-1,2
 635 1053 635 1053 561 1053 c 0,3,4
 488 1053 488 1053 435.5 1105.5 c 128,-1,5
 383 1158 383 1158 383 1231 c 0,6,7
 383 1305 383 1305 435 1357 c 128,-1,8
 487 1409 487 1409 561 1409 c 0,9,10
 634 1409 634 1409 686.5 1356.5 c 128,-1,11
 739 1304 739 1304 739 1231 c 0,0,1
EndSplineSet
Validated: 1
EndChar

StartChar: ring
Encoding: 730 730 145
Width: 1122
GlyphClass: 1
Flags: W
LayerCount: 2
Fore
SplineSet
750 1239 m 0,0,1
 750 1160 750 1160 695.5 1105.5 c 128,-1,2
 641 1051 641 1051 561 1051 c 0,3,4
 483 1051 483 1051 427 1106.5 c 128,-1,5
 371 1162 371 1162 371 1239 c 0,6,7
 371 1317 371 1317 427 1373.5 c 128,-1,8
 483 1430 483 1430 561 1430 c 0,9,10
 640 1430 640 1430 695 1374.5 c 128,-1,11
 750 1319 750 1319 750 1239 c 0,0,1
659 1239 m 0,12,13
 659 1280 659 1280 630.5 1309.5 c 128,-1,14
 602 1339 602 1339 561 1339 c 256,15,16
 520 1339 520 1339 490.5 1309.5 c 128,-1,17
 461 1280 461 1280 461 1239 c 0,18,19
 461 1199 461 1199 491 1170 c 128,-1,20
 521 1141 521 1141 561 1141 c 256,21,22
 601 1141 601 1141 630 1170 c 128,-1,23
 659 1199 659 1199 659 1239 c 0,12,13
EndSplineSet
Validated: 1
EndChar

StartChar: cedilla
Encoding: 184 184 146
Width: 1122
GlyphClass: 1
Flags: W
LayerCount: 2
Fore
SplineSet
653 74 m 1,0,-1
 537 -76 l 1,1,2
 631 -137 631 -137 631 -246 c 0,3,4
 631 -329 631 -329 569 -381 c 0,5,6
 511 -430 511 -430 426 -430 c 2,7,-1
 199 -430 l 1,8,-1
 246 -309 l 1,9,10
 267 -309 267 -309 308.5 -312.5 c 128,-1,11
 350 -316 350 -316 371 -316 c 0,12,13
 504 -316 504 -316 504 -233 c 0,14,15
 504 -175 504 -175 430 -164 c 1,16,-1
 371 -94 l 1,17,-1
 498 74 l 1,18,-1
 653 74 l 1,0,-1
EndSplineSet
Validated: 1
EndChar

StartChar: hungarumlaut
Encoding: 733 733 147
Width: 1122
GlyphClass: 1
Flags: W
LayerCount: 2
Fore
SplineSet
979 1288 m 1,0,-1
 614 1020 l 1,1,-1
 578 1155 l 1,2,-1
 895 1479 l 1,3,-1
 979 1288 l 1,0,-1
598 1288 m 1,4,-1
 233 1020 l 1,5,-1
 197 1155 l 1,6,-1
 512 1479 l 1,7,-1
 598 1288 l 1,4,-1
EndSplineSet
Validated: 1
EndChar

StartChar: ogonek
Encoding: 731 731 148
Width: 1122
GlyphClass: 1
Flags: W
LayerCount: 2
Fore
SplineSet
645 -160 m 1,0,-1
 592 -285 l 1,1,2
 475 -342 475 -342 362 -342 c 0,3,4
 267 -342 267 -342 206 -293 c 0,5,6
 139 -240 139 -240 139 -147 c 0,7,8
 139 -10 139 -10 279 164 c 1,9,-1
 403 164 l 1,10,11
 313 8 313 8 313 -78 c 0,12,13
 313 -188 313 -188 459 -188 c 0,14,15
 523 -188 523 -188 645 -160 c 1,0,-1
EndSplineSet
Validated: 1
EndChar

StartChar: caron
Encoding: 711 711 149
Width: 1122
GlyphClass: 1
Flags: W
LayerCount: 2
Fore
SplineSet
946 1282 m 1,0,-1
 567 963 l 1,1,-1
 281 1290 l 1,2,-1
 383 1372 l 1,3,-1
 598 1196 l 1,4,-1
 852 1364 l 1,5,-1
 946 1282 l 1,0,-1
EndSplineSet
Validated: 1
EndChar

StartChar: Lslash
Encoding: 321 321 150
Width: 2497
GlyphClass: 1
Flags: W
LayerCount: 2
Fore
SplineSet
2763 213 m 1,0,-1
 2640 0 l 1,1,-1
 6 0 l 1,2,-1
 133 213 l 1,3,4
 351 213 351 213 518 293 c 0,5,6
 705 384 705 384 797 563 c 1,7,-1
 395 449 l 1,8,-1
 401 672 l 1,9,-1
 879 809 l 1,10,11
 1013 1250 1013 1250 1129 1405 c 0,12,13
 1321 1661 1321 1661 1696 1661 c 0,14,15
 1976 1661 1976 1661 1976 1427 c 0,16,17
 1976 1331 1976 1331 1937 1203 c 0,18,19
 1922 1153 1922 1153 1868 987 c 1,20,-1
 1647 987 l 1,21,-1
 1708 1168 l 2,22,23
 1745 1281 1745 1281 1745 1354 c 0,24,25
 1745 1462 1745 1462 1622 1462 c 0,26,27
 1413 1462 1413 1462 1281 1263 c 0,28,29
 1200 1141 1200 1141 1122 879 c 1,30,-1
 1440 971 l 1,31,-1
 1434 748 l 1,32,-1
 1051 637 l 1,33,34
 956 328 956 328 748 213 c 1,35,-1
 2763 213 l 1,0,-1
EndSplineSet
Validated: 1
EndChar

StartChar: lslash
Encoding: 322 322 151
Width: 1389
GlyphClass: 1
Flags: W
LayerCount: 2
Fore
SplineSet
1647 213 m 1,0,-1
 1528 0 l 1,1,-1
 199 0 l 2,2,3
 -12 0 -12 0 -12 172 c 0,4,5
 -12 244 -12 244 21 345 c 0,6,7
 40 403 40 403 78 512 c 1,8,-1
 -147 449 l 1,9,-1
 -141 672 l 1,10,-1
 150 754 l 1,11,-1
 377 1507 l 1,12,-1
 600 1507 l 1,13,-1
 393 823 l 1,14,-1
 623 887 l 1,15,-1
 616 664 l 1,16,-1
 319 582 l 1,17,18
 221 253 221 253 221 242 c 0,19,20
 221 213 221 213 266 213 c 2,21,-1
 1647 213 l 1,0,-1
EndSplineSet
Validated: 1
EndChar

StartChar: Eth
Encoding: 208 208 152
Width: 2470
GlyphClass: 1
Flags: W
LayerCount: 2
Fore
SplineSet
2148 1165 m 0,0,1
 2148 759 2148 759 1767 430 c 0,2,3
 1438 145 1438 145 1004 44 c 0,4,5
 816 0 816 0 481 0 c 1,6,-1
 690 702 l 1,7,-1
 446 702 l 1,8,-1
 514 915 l 1,9,-1
 754 915 l 1,10,-1
 868 1300 l 1,11,-1
 1092 1300 l 1,12,-1
 977 915 l 1,13,-1
 1221 915 l 1,14,-1
 1153 702 l 1,15,-1
 913 702 l 1,16,-1
 766 213 l 1,17,18
 1014 217 1014 217 1288 355 c 0,19,20
 1553 488 1553 488 1721 682 c 0,21,22
 1917 908 1917 908 1917 1149 c 0,23,24
 1917 1425 1917 1425 1530 1425 c 2,25,-1
 78 1425 l 1,26,-1
 141 1638 l 1,27,-1
 1552 1638 l 2,28,29
 1810 1638 1810 1638 1965 1534 c 0,30,31
 2148 1411 2148 1411 2148 1165 c 0,0,1
EndSplineSet
Validated: 1
EndChar

StartChar: eth
Encoding: 240 240 153
Width: 2068
GlyphClass: 1
Flags: W
LayerCount: 2
Fore
SplineSet
2335 213 m 1,0,-1
 2216 0 l 1,1,-1
 920 0 l 2,2,3
 666 0 666 0 666 188 c 0,4,5
 666 239 666 239 723 401 c 1,6,7
 359 0 359 0 168 0 c 0,8,9
 -2 0 -2 0 -2 170 c 0,10,11
 -2 280 -2 280 57 459 c 0,12,13
 89 552 89 552 152 739 c 0,14,15
 184 838 184 838 233.5 876.5 c 128,-1,16
 283 915 283 915 383 915 c 2,17,-1
 868 915 l 1,18,19
 896 1008 896 1008 913 1085 c 1,20,-1
 635 1004 l 1,21,-1
 625 1212 l 1,22,-1
 936 1309 l 1,23,24
 909 1395 909 1395 796 1432 c 0,25,26
 747 1448 747 1448 602 1466 c 1,27,-1
 678 1677 l 1,28,29
 1111 1647 1111 1647 1155 1368 c 1,30,-1
 1448 1452 l 1,31,-1
 1458 1243 l 1,32,-1
 1151 1153 l 1,33,-1
 1010 682 l 2,34,35
 905 328 905 328 895 233 c 1,36,-1
 907 217 l 1,37,38
 929 213 929 213 950 213 c 2,39,-1
 2335 213 l 1,0,-1
754 702 m 1,40,-1
 365 702 l 1,41,42
 338 623 338 623 284 464 c 0,43,44
 232 311 232 311 225 227 c 1,45,-1
 233 215 l 1,46,47
 313 249 313 249 503 436 c 0,48,49
 644 575 644 575 754 702 c 1,40,-1
EndSplineSet
Validated: 1
EndChar

StartChar: Thorn
Encoding: 222 222 158
Width: 2312
GlyphClass: 1
Flags: W
LayerCount: 2
Fore
SplineSet
2015 1196 m 0,0,1
 2015 923 2015 923 1683 739 c 2,2,-1
 924 319 l 1,3,-1
 827 0 l 1,4,-1
 604 0 l 1,5,-1
 1006 1337 l 1,6,-1
 -23 1337 l 1,7,-1
 115 1550 l 1,8,-1
 1069 1550 l 1,9,-1
 1157 1847 l 1,10,-1
 1378 1847 l 1,11,-1
 1288 1550 l 1,12,13
 1320 1550 1320 1550 1383.5 1551 c 128,-1,14
 1447 1552 1447 1552 1479 1552 c 0,15,16
 1724 1552 1724 1552 1843 1495 c 0,17,18
 2015 1413 2015 1413 2015 1196 c 0,0,1
1790 1169 m 0,19,20
 1790 1279 1790 1279 1698 1315 c 0,21,22
 1642 1337 1642 1337 1509 1337 c 2,23,-1
 1225 1337 l 1,24,-1
 1004 600 l 1,25,-1
 1542 895 l 2,26,27
 1790 1031 1790 1031 1790 1169 c 0,19,20
EndSplineSet
Validated: 1
EndChar

StartChar: thorn
Encoding: 254 254 159
Width: 2148
GlyphClass: 1
Flags: W
LayerCount: 2
Fore
SplineSet
2413 213 m 1,0,-1
 2286 0 l 1,1,-1
 156 0 l 1,2,-1
 0 -526 l 1,3,-1
 -221 -526 l 1,4,-1
 358 1425 l 1,5,-1
 582 1425 l 1,6,-1
 307 510 l 1,7,8
 446 721 446 721 546 807 c 0,9,10
 697 936 697 936 897 936 c 0,11,12
 1110 936 1110 936 1110 768 c 0,13,14
 1110 691 1110 691 1048 487 c 0,15,16
 982 269 982 269 932 213 c 1,17,-1
 2413 213 l 1,0,-1
879 700 m 0,18,19
 879 725 879 725 825 725 c 0,20,21
 729 725 729 725 537 515 c 0,22,23
 398 363 398 363 299 213 c 1,24,-1
 590 213 l 2,25,26
 752 213 752 213 826 490 c 0,27,28
 840 547 840 547 870 662 c 0,29,30
 879 696 879 696 879 700 c 0,18,19
EndSplineSet
Validated: 1
EndChar

StartChar: Ccedilla
Encoding: 199 199 173
Width: 2148
GlyphClass: 1
Flags: W
LayerCount: 2
Fore
SplineSet
2415 213 m 1,0,-1
 2290 0 l 1,1,-1
 770 0 l 1,2,-1
 711 -76 l 1,3,4
 805 -137 805 -137 805 -246 c 0,5,6
 805 -434 805 -434 522 -434 c 0,7,8
 497 -434 497 -434 447.5 -432 c 128,-1,9
 398 -430 398 -430 373 -430 c 1,10,-1
 420 -309 l 1,11,12
 440 -309 440 -309 481 -312.5 c 128,-1,13
 522 -316 522 -316 543 -316 c 0,14,15
 678 -316 678 -316 678 -233 c 0,16,17
 678 -175 678 -175 604 -164 c 1,18,-1
 545 -94 l 1,19,-1
 616 0 l 1,20,21
 25 0 25 0 25 428 c 0,22,23
 25 724 25 724 221 1024 c 0,24,25
 400 1296 400 1296 669 1473 c 0,26,27
 961 1665 961 1665 1245 1665 c 0,28,29
 1376 1665 1376 1665 1452 1597 c 0,30,31
 1532 1526 1532 1526 1532 1397 c 0,32,33
 1532 1307 1532 1307 1494 1188 c 0,34,35
 1472 1121 1472 1121 1427 987 c 1,36,-1
 1204 987 l 1,37,-1
 1266 1176 l 2,38,39
 1305 1296 1305 1296 1305 1368 c 0,40,41
 1305 1458 1305 1458 1202 1458 c 0,42,43
 991 1458 991 1458 749 1269 c 0,44,45
 547 1111 547 1111 408 899 c 0,46,47
 250 658 250 658 250 467 c 0,48,49
 250 213 250 213 633 213 c 2,50,-1
 2415 213 l 1,0,-1
EndSplineSet
Validated: 1
EndChar

StartChar: ccedilla
Encoding: 231 231 184
Width: 1847
GlyphClass: 1
Flags: W
LayerCount: 2
Fore
SplineSet
2116 213 m 1,0,-1
 1991 0 l 1,1,-1
 612 0 l 1,2,-1
 553 -76 l 1,3,4
 647 -137 647 -137 647 -246 c 0,5,6
 647 -329 647 -329 585 -381 c 0,7,8
 527 -430 527 -430 442 -430 c 2,9,-1
 215 -430 l 1,10,-1
 262 -309 l 1,11,12
 283 -309 283 -309 324.5 -312.5 c 128,-1,13
 366 -316 366 -316 387 -316 c 0,14,15
 520 -316 520 -316 520 -233 c 0,16,17
 520 -175 520 -175 446 -164 c 1,18,-1
 387 -94 l 1,19,-1
 459 2 l 1,20,21
 319 14 319 14 232 83 c 0,22,23
 131 162 131 162 131 295 c 0,24,25
 131 403 131 403 199 614 c 0,26,27
 232 714 232 714 299 915 c 1,28,-1
 862 915 l 2,29,30
 1016 915 1016 915 1016 799 c 0,31,32
 1016 745 1016 745 954 565 c 1,33,-1
 715 512 l 1,34,-1
 772 702 l 1,35,-1
 461 702 l 1,36,37
 427 609 427 609 396 521 c 0,38,39
 356 407 356 407 356 334 c 0,40,41
 356 213 356 213 506 213 c 2,42,-1
 2116 213 l 1,0,-1
EndSplineSet
Validated: 1
EndChar

StartChar: degree
Encoding: 176 176 203
Width: 1130
GlyphClass: 1
Flags: W
LayerCount: 2
Fore
SplineSet
756 1223 m 0,0,1
 756 1137 756 1137 696.5 1076.5 c 128,-1,2
 637 1016 637 1016 551 1016 c 256,3,4
 465 1016 465 1016 404.5 1076.5 c 128,-1,5
 344 1137 344 1137 344 1223 c 256,6,7
 344 1309 344 1309 404.5 1369.5 c 128,-1,8
 465 1430 465 1430 551 1430 c 0,9,10
 636 1430 636 1430 696 1369 c 128,-1,11
 756 1308 756 1308 756 1223 c 0,0,1
659 1223 m 0,12,13
 659 1269 659 1269 628 1300 c 128,-1,14
 597 1331 597 1331 551 1331 c 0,15,16
 504 1331 504 1331 472 1300.5 c 128,-1,17
 440 1270 440 1270 440 1223 c 0,18,19
 440 1177 440 1177 472.5 1144.5 c 128,-1,20
 505 1112 505 1112 551 1112 c 0,21,22
 598 1112 598 1112 628.5 1144 c 128,-1,23
 659 1176 659 1176 659 1223 c 0,12,13
EndSplineSet
Validated: 1
EndChar

StartChar: registered
Encoding: 174 174 204
Width: 1577
GlyphClass: 1
Flags: W
LayerCount: 2
Fore
SplineSet
1419 1178 m 0,0,1
 1419 913 1419 913 1234 728 c 128,-1,2
 1049 543 1049 543 784 543 c 0,3,4
 520 543 520 543 335 728.5 c 128,-1,5
 150 914 150 914 150 1178 c 256,6,7
 150 1442 150 1442 335 1627 c 128,-1,8
 520 1812 520 1812 784 1812 c 0,9,10
 1050 1812 1050 1812 1234.5 1628 c 128,-1,11
 1419 1444 1419 1444 1419 1178 c 0,0,1
1337 1178 m 256,12,13
 1337 1409 1337 1409 1176 1570 c 128,-1,14
 1015 1731 1015 1731 784 1731 c 256,15,16
 553 1731 553 1731 392 1570 c 128,-1,17
 231 1409 231 1409 231 1178 c 256,18,19
 231 947 231 947 392 786 c 128,-1,20
 553 625 553 625 784 625 c 256,21,22
 1015 625 1015 625 1176 786 c 128,-1,23
 1337 947 1337 947 1337 1178 c 256,12,13
1155 770 m 1,24,-1
 944 770 l 1,25,-1
 752 995 l 1,26,-1
 752 1122 l 1,27,28
 993 1122 993 1122 993 1298 c 0,29,30
 993 1446 993 1446 817 1446 c 2,31,-1
 659 1446 l 1,32,-1
 659 766 l 1,33,-1
 512 766 l 1,34,-1
 512 1593 l 1,35,-1
 817 1593 l 2,36,37
 957 1593 957 1593 1046 1516 c 0,38,39
 1141 1435 1141 1435 1141 1298 c 0,40,41
 1141 1210 1141 1210 1085 1124 c 0,42,43
 1027 1035 1027 1035 946 1008 c 1,44,-1
 1155 770 l 1,24,-1
EndSplineSet
Validated: 1
EndChar

StartChar: copyright
Encoding: 169 169 205
Width: 1577
GlyphClass: 1
Flags: W
LayerCount: 2
Fore
SplineSet
1419 1178 m 0,0,1
 1419 913 1419 913 1234 728 c 128,-1,2
 1049 543 1049 543 784 543 c 0,3,4
 520 543 520 543 335 728.5 c 128,-1,5
 150 914 150 914 150 1178 c 256,6,7
 150 1442 150 1442 335 1627 c 128,-1,8
 520 1812 520 1812 784 1812 c 0,9,10
 1050 1812 1050 1812 1234.5 1628 c 128,-1,11
 1419 1444 1419 1444 1419 1178 c 0,0,1
1337 1178 m 256,12,13
 1337 1409 1337 1409 1176 1570 c 128,-1,14
 1015 1731 1015 1731 784 1731 c 256,15,16
 553 1731 553 1731 392 1570 c 128,-1,17
 231 1409 231 1409 231 1178 c 256,18,19
 231 947 231 947 392 786 c 128,-1,20
 553 625 553 625 784 625 c 256,21,22
 1015 625 1015 625 1176 786 c 128,-1,23
 1337 947 1337 947 1337 1178 c 256,12,13
1092 1450 m 1,24,-1
 1006 1337 l 1,25,26
 917 1436 917 1436 791 1436 c 0,27,28
 683 1436 683 1436 606.5 1361 c 128,-1,29
 530 1286 530 1286 530 1178 c 256,30,31
 530 1070 530 1070 606.5 995 c 128,-1,32
 683 920 683 920 791 920 c 0,33,34
 922 920 922 920 995 995 c 1,35,-1
 1067 874 l 1,36,37
 1023 833 1023 833 937 802 c 0,38,39
 855 772 855 772 791 772 c 0,40,41
 622 772 622 772 502.5 890.5 c 128,-1,42
 383 1009 383 1009 383 1178 c 0,43,44
 383 1346 383 1346 503 1463.5 c 128,-1,45
 623 1581 623 1581 791 1581 c 0,46,47
 984 1581 984 1581 1092 1450 c 1,24,-1
EndSplineSet
Validated: 1
EndChar

StartChar: trademark
Encoding: 8482 8482 206
Width: 2286
GlyphClass: 1
Flags: W
LayerCount: 2
Fore
SplineSet
1741 850 m 1,0,-1
 1599 850 l 1,1,-1
 1677 1092 l 2,2,3
 1729 1258 1729 1258 1729 1331 c 0,4,5
 1729 1415 1729 1415 1651 1415 c 0,6,7
 1532 1415 1532 1415 1487 1257 c 2,8,-1
 1370 850 l 1,9,-1
 1231 850 l 1,10,-1
 1309 1092 l 2,11,12
 1360 1253 1360 1253 1360 1335 c 0,13,14
 1360 1415 1360 1415 1274 1415 c 0,15,16
 1220 1415 1220 1415 1176 1369 c 0,17,18
 1138 1329 1138 1329 1122 1272 c 2,19,-1
 1004 850 l 1,20,-1
 864 850 l 1,21,22
 886 943 886 943 933 1129 c 0,23,24
 1047 1556 1047 1556 1313 1556 c 0,25,26
 1426 1556 1426 1556 1477 1470 c 1,27,28
 1575 1556 1575 1556 1690 1556 c 0,29,30
 1874 1556 1874 1556 1874 1368 c 0,31,32
 1874 1268 1874 1268 1823 1106 c 0,33,34
 1796 1021 1796 1021 1741 850 c 1,0,-1
928 1556 m 1,35,-1
 889 1417 l 1,36,-1
 670 1417 l 1,37,-1
 510 850 l 1,38,-1
 371 850 l 1,39,-1
 530 1417 l 1,40,-1
 309 1417 l 1,41,-1
 348 1556 l 1,42,-1
 928 1556 l 1,35,-1
EndSplineSet
Validated: 1
EndChar

StartChar: notequal
Encoding: 8800 8800 207
Width: 3181
GlyphClass: 1
Flags: W
LayerCount: 2
Fore
SplineSet
3693 915 m 1,0,-1
 3570 702 l 1,1,-1
 2234 702 l 1,2,3
 2295 640 2295 640 2333 519 c 0,4,5
 2367 411 2367 411 2367 311 c 0,6,7
 2367 45 2367 45 2238 -155 c 0,8,9
 2089 -385 2089 -385 1837 -385 c 0,10,11
 1723 -385 1723 -385 1653 -319 c 128,-1,12
 1583 -253 1583 -253 1583 -139 c 0,13,14
 1583 -82 1583 -82 1599 -29 c 2,15,-1
 1819 702 l 1,16,-1
 645 702 l 1,17,18
 706 640 706 640 744 519 c 0,19,20
 778 411 778 411 778 311 c 0,21,22
 778 45 778 45 649 -155 c 0,23,24
 500 -385 500 -385 248 -385 c 0,25,26
 134 -385 134 -385 64 -319 c 128,-1,27
 -6 -253 -6 -253 -6 -139 c 0,28,29
 -6 -83 -6 -83 10 -29 c 2,30,-1
 229 705 l 1,31,32
 180 713 180 713 80 713 c 1,33,-1
 147 915 l 1,34,-1
 291 915 l 1,35,-1
 469 1507 l 1,36,-1
 692 1507 l 1,37,-1
 514 915 l 1,38,-1
 1880 915 l 1,39,-1
 2058 1507 l 1,40,-1
 2281 1507 l 1,41,-1
 2103 915 l 1,42,-1
 3693 915 l 1,0,-1
2140 285 m 0,43,44
 2140 491 2140 491 2013 610 c 1,45,-1
 1901 246 l 2,46,47
 1812 -48 1812 -48 1812 -92 c 0,48,49
 1812 -168 1812 -168 1884 -168 c 0,50,51
 2011 -168 2011 -168 2084 3 c 0,52,53
 2140 135 2140 135 2140 285 c 0,43,44
551 285 m 0,54,55
 551 491 551 491 424 610 c 1,56,-1
 312 247 l 2,57,58
 223 -44 223 -44 223 -92 c 0,59,60
 223 -168 223 -168 295 -168 c 0,61,62
 421 -168 421 -168 494 4 c 0,63,64
 551 138 551 138 551 285 c 0,54,55
EndSplineSet
Validated: 1
EndChar

StartChar: infinity
Encoding: 8734 8734 208
Width: 4659
GlyphClass: 1
Flags: W
LayerCount: 2
Fore
SplineSet
3871 1507 m 1,0,-1
 3770 1176 l 1,1,-1
 3547 1176 l 1,2,-1
 3650 1507 l 1,3,-1
 3871 1507 l 1,0,-1
4925 213 m 1,4,-1
 4801 0 l 1,5,-1
 3471 0 l 2,6,7
 3262 0 3262 0 3262 172 c 0,8,9
 3262 268 3262 268 3319 440 c 0,10,11
 3349 527 3349 527 3408 702 c 1,12,-1
 2234 702 l 1,13,14
 2294 642 2294 642 2332 519 c 0,15,16
 2367 408 2367 408 2367 311 c 0,17,18
 2367 45 2367 45 2238 -155 c 0,19,20
 2089 -385 2089 -385 1837 -385 c 0,21,22
 1723 -385 1723 -385 1653 -319 c 128,-1,23
 1583 -253 1583 -253 1583 -139 c 0,24,25
 1583 -82 1583 -82 1599 -29 c 2,26,-1
 1819 702 l 1,27,-1
 645 702 l 1,28,29
 705 642 705 642 743 519 c 0,30,31
 778 408 778 408 778 311 c 0,32,33
 778 45 778 45 649 -155 c 0,34,35
 500 -385 500 -385 248 -385 c 0,36,37
 134 -385 134 -385 64 -319 c 128,-1,38
 -6 -253 -6 -253 -6 -139 c 0,39,40
 -6 -83 -6 -83 10 -29 c 2,41,-1
 229 705 l 1,42,43
 180 713 180 713 80 713 c 1,44,-1
 147 915 l 1,45,-1
 291 915 l 1,46,-1
 469 1507 l 1,47,-1
 692 1507 l 1,48,-1
 514 915 l 1,49,-1
 1880 915 l 1,50,-1
 2058 1507 l 1,51,-1
 2281 1507 l 1,52,-1
 2103 915 l 1,53,-1
 3693 915 l 1,54,-1
 3498 266 l 2,55,56
 3494 253 3494 253 3507 224 c 1,57,58
 3524 213 3524 213 3856 210 c 0,59,60
 4106 208 4106 208 4495 210 c 2,61,-1
 4925 213 l 1,4,-1
2140 285 m 0,62,63
 2140 491 2140 491 2013 610 c 1,64,-1
 1901 246 l 2,65,66
 1812 -48 1812 -48 1812 -92 c 0,67,68
 1812 -168 1812 -168 1884 -168 c 0,69,70
 2011 -168 2011 -168 2084 3 c 0,71,72
 2140 135 2140 135 2140 285 c 0,62,63
551 285 m 0,73,74
 551 491 551 491 424 610 c 1,75,-1
 312 247 l 2,76,77
 223 -44 223 -44 223 -92 c 0,78,79
 223 -168 223 -168 295 -168 c 0,80,81
 421 -168 421 -168 494 4 c 0,82,83
 551 138 551 138 551 285 c 0,73,74
EndSplineSet
Validated: 33
EndChar

StartChar: plusminus
Encoding: 177 177 209
Width: 4663
GlyphClass: 1
Flags: W
LayerCount: 2
Fore
SplineSet
4925 213 m 1,0,-1
 4803 0 l 1,1,-1
 3473 0 l 2,2,3
 3262 0 3262 0 3262 172 c 0,4,5
 3262 268 3262 268 3319 440 c 0,6,7
 3349 527 3349 527 3408 702 c 1,8,-1
 2236 702 l 1,9,10
 2297 638 2297 638 2334 519 c 0,11,12
 2367 412 2367 412 2367 311 c 0,13,14
 2367 44 2367 44 2239 -155 c 0,15,16
 2091 -385 2091 -385 1839 -385 c 0,17,18
 1724 -385 1724 -385 1653.5 -319 c 128,-1,19
 1583 -253 1583 -253 1583 -139 c 0,20,21
 1583 -82 1583 -82 1599 -29 c 2,22,-1
 1819 702 l 1,23,-1
 645 702 l 1,24,25
 706 640 706 640 744 519 c 0,26,27
 778 411 778 411 778 311 c 0,28,29
 778 45 778 45 649 -155 c 0,30,31
 500 -385 500 -385 248 -385 c 0,32,33
 134 -385 134 -385 64 -319 c 128,-1,34
 -6 -253 -6 -253 -6 -139 c 0,35,36
 -6 -83 -6 -83 10 -29 c 2,37,-1
 229 705 l 1,38,39
 180 713 180 713 80 713 c 1,40,-1
 147 915 l 1,41,-1
 291 915 l 1,42,-1
 469 1507 l 1,43,-1
 692 1507 l 1,44,-1
 514 915 l 1,45,-1
 1882 915 l 1,46,-1
 2058 1507 l 1,47,-1
 2281 1507 l 1,48,-1
 2105 915 l 1,49,-1
 3469 915 l 1,50,51
 3500 1027 3500 1027 3568 1251 c 0,52,53
 3628 1437 3628 1437 3730 1539 c 0,54,55
 3851 1661 3851 1661 4047 1661 c 0,56,57
 4164 1661 4164 1661 4234.5 1587 c 128,-1,58
 4305 1513 4305 1513 4305 1395 c 0,59,60
 4305 1117 4305 1117 4104 919 c 0,61,62
 3910 728 3910 728 3629 705 c 1,63,-1
 3500 242 l 1,64,65
 3500 213 3500 213 3543 213 c 2,66,-1
 4925 213 l 1,0,-1
4020 1470 m 0,67,68
 3919 1470 3919 1470 3845 1359 c 0,69,70
 3788 1273 3788 1273 3747 1125 c 2,71,72
 3747 1125 3747 1125 3693 915 c 1,73,74
 3852 941 3852 941 3975 1070 c 0,75,76
 4102 1204 4102 1204 4102 1362 c 0,77,78
 4102 1470 4102 1470 4020 1470 c 0,67,68
2140 285 m 0,79,80
 2140 491 2140 491 2013 610 c 1,81,-1
 1900 248 l 2,82,83
 1815 -28 1815 -28 1815 -94 c 0,84,85
 1815 -168 1815 -168 1884 -168 c 0,86,87
 2012 -168 2012 -168 2084 3 c 0,88,89
 2140 136 2140 136 2140 285 c 0,79,80
551 285 m 0,90,91
 551 491 551 491 424 610 c 1,92,-1
 312 247 l 2,93,94
 223 -44 223 -44 223 -92 c 0,95,96
 223 -168 223 -168 295 -168 c 0,97,98
 421 -168 421 -168 494 4 c 0,99,100
 551 138 551 138 551 285 c 0,90,91
EndSplineSet
Validated: 1
EndChar

StartChar: mu
Encoding: 181 181 212
AltUni2: 0003bc.ffffffff.0 0003bc.ffffffff.0
Width: 1268
GlyphClass: 1
Flags: W
LayerCount: 2
Fore
SplineSet
1374 915 m 1,0,-1
 1249 702 l 1,1,-1
 645 702 l 1,2,3
 706 640 706 640 744 519 c 0,4,5
 778 411 778 411 778 311 c 0,6,7
 778 45 778 45 649 -155 c 0,8,9
 500 -385 500 -385 248 -385 c 0,10,11
 134 -385 134 -385 64 -319 c 128,-1,12
 -6 -253 -6 -253 -6 -139 c 0,13,14
 -6 -83 -6 -83 10 -29 c 2,15,-1
 229 705 l 1,16,17
 180 713 180 713 80 713 c 1,18,-1
 147 915 l 1,19,-1
 291 915 l 1,20,-1
 469 1507 l 1,21,-1
 692 1507 l 1,22,-1
 514 915 l 1,23,-1
 1374 915 l 1,0,-1
551 285 m 0,24,25
 551 491 551 491 424 610 c 1,26,-1
 312 247 l 2,27,28
 223 -44 223 -44 223 -92 c 0,29,30
 223 -168 223 -168 295 -168 c 0,31,32
 421 -168 421 -168 494 4 c 0,33,34
 551 138 551 138 551 285 c 0,24,25
EndSplineSet
Validated: 1
EndChar

StartChar: radical
Encoding: 8730 8730 220
Width: 1939
GlyphClass: 1
Flags: W
LayerCount: 2
Fore
SplineSet
1755 864 m 1,0,-1
 467 -47 l 1,1,-1
 340 0 l 1,2,-1
 205 545 l 1,3,-1
 463 614 l 1,4,-1
 561 219 l 1,5,-1
 1661 997 l 1,6,-1
 1755 864 l 1,0,-1
EndSplineSet
Validated: 1
EndChar

StartChar: approxequal
Encoding: 8776 8776 221
AltUni2: 0022f2.ffffffff.0 0022f2.ffffffff.0
Width: 1122
GlyphClass: 1
Flags: W
LayerCount: 2
Fore
SplineSet
1026 975 m 1,0,-1
 823 701 l 1,1,-1
 317 701 l 1,2,-1
 195 566 l 1,3,-1
 84 654 l 1,4,-1
 287 912 l 1,5,-1
 793 912 l 1,6,-1
 915 1059 l 1,7,-1
 1026 975 l 1,0,-1
1026 697 m 1,8,-1
 823 423 l 1,9,-1
 317 423 l 1,10,-1
 195 288 l 1,11,-1
 84 376 l 1,12,-1
 287 634 l 1,13,-1
 793 634 l 1,14,-1
 915 781 l 1,15,-1
 1026 697 l 1,8,-1
EndSplineSet
Validated: 1
EndChar

StartChar: divide
Encoding: 247 247 227
Width: 1137
GlyphClass: 1
Flags: W
LayerCount: 2
Fore
SplineSet
796 676 m 1,0,-1
 728 463 l 1,1,-1
 21 463 l 1,2,-1
 89 676 l 1,3,-1
 796 676 l 1,0,-1
612 991 m 1,4,-1
 549 778 l 1,5,-1
 303 778 l 1,6,-1
 367 991 l 1,7,-1
 612 991 l 1,4,-1
538 367 m 1,8,-1
 475 154 l 1,9,-1
 229 154 l 1,10,-1
 293 367 l 1,11,-1
 538 367 l 1,8,-1
EndSplineSet
Validated: 1
EndChar

StartChar: scedilla
Encoding: 351 351 247
Width: 2089
GlyphClass: 1
Flags: W
LayerCount: 2
Fore
SplineSet
2349 213 m 1,0,-1
 2224 0 l 1,1,-1
 595.773333333 0 l 1,2,-1
 537 -76 l 1,3,4
 631 -137 631 -137 631 -246 c 0,5,6
 631 -329 631 -329 569 -381 c 0,7,8
 511 -430 511 -430 426 -430 c 2,9,-1
 199 -430 l 1,10,-1
 246 -309 l 1,11,12
 267 -309 267 -309 308.5 -312.5 c 128,-1,13
 350 -316 350 -316 371 -316 c 0,14,15
 504 -316 504 -316 504 -233 c 0,16,17
 504 -175 504 -175 430 -164 c 1,18,-1
 371 -94 l 1,19,-1
 466.864722152 32.8131757606 l 1,20,-1
 543 213 l 1,21,22
 675 213 675 213 719 227 c 0,23,24
 809 256 809 256 809 358 c 0,25,26
 809 414 809 414 760 514 c 0,27,28
 706 624 706 624 698 670 c 1,29,-1
 315 127 l 2,30,31
 258 46 258 46 203 20 c 0,32,33
 158 -1 158 -1 75 -1 c 2,34,-1
 23 -1 l 1,35,-1
 -37 0 l 1,36,-1
 698 1028 l 1,37,-1
 961 1028 l 1,38,39
 864 910 864 910 864 827 c 0,40,41
 864 781 864 781 944 622 c 128,-1,42
 1024 463 1024 463 1024 385 c 0,43,44
 1024 283 1024 283 971 213 c 1,45,-1
 2349 213 l 1,0,-1
EndSplineSet
Validated: 1
EndChar

StartChar: Scedilla
Encoding: 350 350 248
Width: 2540
GlyphClass: 1
Flags: W
LayerCount: 2
Fore
SplineSet
2312 987 m 1,0,-1
 2089 987 l 1,1,2
 2212 1395 2212 1395 2212 1407 c 0,3,4
 2212 1446 2212 1446 2163 1446 c 0,5,6
 2060 1446 2060 1446 1808 1356 c 0,7,8
 1543 1261 1543 1261 1351 1146 c 0,9,10
 1124 1010 1124 1010 1124 909 c 0,11,12
 1124 826 1124 826 1264 719 c 0,13,14
 1352 656 1352 656 1525 524 c 1,15,16
 1665 410 1665 410 1665 291 c 0,17,18
 1665 150 1665 150 1514 68 c 0,19,20
 1389 0 1389 0 1235 0 c 2,21,-1
 595.773333333 0 l 1,22,-1
 537 -76 l 1,23,24
 631 -137 631 -137 631 -246 c 0,25,26
 631 -329 631 -329 569 -381 c 0,27,28
 511 -430 511 -430 426 -430 c 2,29,-1
 199 -430 l 1,30,-1
 246 -309 l 1,31,32
 267 -309 267 -309 308.5 -312.5 c 128,-1,33
 350 -316 350 -316 371 -316 c 0,34,35
 504 -316 504 -316 504 -233 c 0,36,37
 504 -175 504 -175 430 -164 c 1,38,-1
 371 -94 l 1,39,-1
 442.05952381 0 l 1,40,-1
 0 0 l 1,41,-1
 127 213 l 1,42,-1
 1290 213 l 2,43,44
 1421 213 1421 213 1421 279 c 0,45,46
 1421 323 1421 323 1280 423 c 0,47,48
 1078 566 1078 566 1018 624 c 0,49,50
 877 759 877 759 877 891 c 0,51,52
 877 1076 877 1076 1154 1269 c 0,53,54
 1387 1432 1387 1432 1731 1551 c 0,55,56
 2048 1661 2048 1661 2228 1661 c 0,57,58
 2458 1661 2458 1661 2458 1501 c 0,59,60
 2458 1418 2458 1418 2400 1244 c 0,61,62
 2371 1159 2371 1159 2312 987 c 1,0,-1
EndSplineSet
Validated: 1
EndChar

StartChar: Idotaccent
Encoding: 304 304 249
Width: 2445
GlyphClass: 1
Flags: W
LayerCount: 2
Fore
SplineSet
610 0 m 2,0,-1
 25 0 l 1,1,-1
 156 213 l 1,2,3
 210 213 210 213 317 212 c 2,4,-1
 477 211 l 2,5,6
 882 211 882 211 1106 281 c 0,7,8
 1422 380 1422 380 1628 659 c 0,9,10
 1718 781 1718 781 1775 935 c 0,11,12
 1837 1101 1837 1101 1837 1241 c 0,13,14
 1837 1456 1837 1456 1677 1456 c 0,15,16
 1570 1456 1570 1456 1501 1371 c 0,17,18
 1446 1304 1446 1304 1411 1183 c 0,19,20
 1400 1145 1400 1145 1358 987 c 1,21,-1
 1135 987 l 1,22,23
 1166 1096 1166 1096 1232 1314 c 1,24,25
 1285 1475 1285 1475 1387 1562 c 0,26,27
 1503 1661 1503 1661 1702 1661 c 0,28,29
 1884 1661 1884 1661 1978 1543 c 0,30,31
 2064 1436 2064 1436 2064 1249 c 0,32,33
 2064 1121 2064 1121 2023 987 c 0,34,35
 1872 495 1872 495 1496 242 c 0,36,37
 1136 0 1136 0 610 0 c 2,0,-1
1910 1966 m 0,38,39
 1910 1892 1910 1892 1858 1840 c 128,-1,40
 1806 1788 1806 1788 1732 1788 c 0,41,42
 1659 1788 1659 1788 1606.5 1840.5 c 128,-1,43
 1554 1893 1554 1893 1554 1966 c 0,44,45
 1554 2040 1554 2040 1606 2092 c 128,-1,46
 1658 2144 1658 2144 1732 2144 c 0,47,48
 1805 2144 1805 2144 1857.5 2091.5 c 128,-1,49
 1910 2039 1910 2039 1910 1966 c 0,38,39
EndSplineSet
Validated: 1
EndChar

StartChar: Gbreve
Encoding: 286 286 250
Width: 2949
GlyphClass: 1
Flags: W
LayerCount: 2
Fore
SplineSet
3219 213 m 1,0,-1
 3090 0 l 1,1,-1
 1667 0 l 1,2,-1
 1575 -338 l 2,3,4
 1536 -482 1536 -482 1482 -519 c 0,5,6
 1436 -551 1436 -551 1290 -551 c 2,7,-1
 791 -551 l 1,8,9
 842 -281 842 -281 1043 -70 c 0,10,11
 1240 136 1240 136 1509 213 c 1,12,-1
 1599 485 l 1,13,14
 1366 312 1366 312 1056 160 c 0,15,16
 679 -25 679 -25 469 -25 c 0,17,18
 275 -25 275 -25 167 69 c 0,19,20
 51 169 51 169 51 360 c 0,21,22
 51 689 51 689 290 1003 c 0,23,24
 503 1284 503 1284 838 1469 c 0,25,26
 1191 1665 1191 1665 1526 1665 c 0,27,28
 1664 1665 1664 1665 1752 1619 c 0,29,30
 1866 1560 1866 1560 1866 1434 c 0,31,32
 1866 1344 1866 1344 1823 1208 c 0,33,34
 1813 1175 1813 1175 1751 987 c 1,35,-1
 1524 987 l 1,36,37
 1634 1364 1634 1364 1634 1376 c 0,38,39
 1634 1450 1634 1450 1470 1450 c 0,40,41
 1208 1450 1208 1450 921 1283 c 0,42,43
 656 1130 656 1130 483 906 c 0,44,45
 287 652 287 652 287 401 c 0,46,47
 287 195 287 195 522 195 c 0,48,49
 836 195 836 195 1614 702 c 1,50,-1
 1890 702 l 1,51,-1
 1735 213 l 1,52,-1
 3219 213 l 1,0,-1
1446 -45 m 1,53,54
 1237 -134 1237 -134 1094 -360 c 1,55,-1
 1251 -360 l 2,56,57
 1352 -360 1352 -360 1394 -252 c 1,58,-1
 1446 -45 l 1,53,54
1810 2017 m 1,59,60
 1810 1906 1810 1906 1725 1834 c 0,61,62
 1644 1765 1644 1765 1531 1765 c 0,63,64
 1420 1765 1420 1765 1339 1835 c 0,65,66
 1253 1908 1253 1908 1253 2017 c 1,67,-1
 1388 2017 l 1,68,69
 1388 1965 1388 1965 1435 1931 c 0,70,71
 1477 1900 1477 1900 1531 1900 c 0,72,73
 1587 1900 1587 1900 1628 1930 c 0,74,75
 1675 1963 1675 1963 1675 2017 c 1,76,-1
 1810 2017 l 1,59,60
EndSplineSet
Validated: 1
EndChar

StartChar: gbreve
Encoding: 287 287 251
Width: 2097
GlyphClass: 1
Flags: W
LayerCount: 2
Fore
SplineSet
2363 213 m 1,0,-1
 2234 0 l 1,1,-1
 1268 0 l 2,2,3
 1001 0 1001 0 795 -61 c 1,4,-1
 700 -395 l 2,5,6
 675 -482 675 -482 626.5 -516.5 c 128,-1,7
 578 -551 578 -551 485 -551 c 2,8,-1
 37 -551 l 1,9,10
 142 -104 142 -104 614 88 c 1,11,-1
 698 358 l 1,12,13
 389 0 389 0 158 0 c 0,14,15
 -6 0 -6 0 -6 164 c 0,16,17
 -6 266 -6 266 44 418 c 0,18,19
 73 500 73 500 127 664 c 0,20,21
 204 915 204 915 498 915 c 2,22,-1
 1085 915 l 1,23,-1
 860 164 l 1,24,25
 1037 213 1037 213 1247 213 c 2,26,-1
 2363 213 l 1,0,-1
776 702 m 1,27,-1
 444 702 l 2,28,29
 366 702 366 702 340 623 c 0,30,31
 283 451 283 451 221 227 c 1,32,-1
 231 213 l 1,33,34
 293 213 293 213 515 425 c 0,35,36
 709 611 709 611 776 702 c 1,27,-1
557 -139 m 1,37,38
 391 -233 391 -233 332 -360 c 1,39,-1
 428 -360 l 2,40,41
 493 -360 493 -360 523 -275 c 1,42,-1
 557 -139 l 1,37,38
988 1294 m 1,43,44
 988 1183 988 1183 903 1111 c 0,45,46
 822 1042 822 1042 709 1042 c 0,47,48
 598 1042 598 1042 517 1112 c 0,49,50
 431 1185 431 1185 431 1294 c 1,51,-1
 566 1294 l 1,52,53
 566 1242 566 1242 613 1208 c 0,54,55
 655 1177 655 1177 709 1177 c 0,56,57
 765 1177 765 1177 806 1207 c 0,58,59
 853 1240 853 1240 853 1294 c 1,60,-1
 988 1294 l 1,43,44
EndSplineSet
Validated: 1
EndChar

StartChar: uni0218
Encoding: 536 536 258
Width: 2540
Flags: W
LayerCount: 2
Fore
SplineSet
2312 987 m 1,0,-1
 2089 987 l 1,1,2
 2212 1395 2212 1395 2212 1407 c 0,3,4
 2212 1446 2212 1446 2163 1446 c 0,5,6
 2060 1446 2060 1446 1808 1356 c 0,7,8
 1543 1261 1543 1261 1351 1146 c 0,9,10
 1124 1010 1124 1010 1124 909 c 0,11,12
 1124 826 1124 826 1264 719 c 0,13,14
 1352 656 1352 656 1525 524 c 1,15,16
 1665 410 1665 410 1665 291 c 0,17,18
 1665 150 1665 150 1514 68 c 0,19,20
 1389 0 1389 0 1235 0 c 2,21,-1
 0 0 l 1,22,-1
 127 213 l 1,23,-1
 1290 213 l 2,24,25
 1421 213 1421 213 1421 279 c 0,26,27
 1421 323 1421 323 1280 423 c 0,28,29
 1078 566 1078 566 1018 624 c 0,30,31
 877 759 877 759 877 891 c 0,32,33
 877 1076 877 1076 1154 1269 c 0,34,35
 1387 1432 1387 1432 1731 1551 c 0,36,37
 2048 1661 2048 1661 2228 1661 c 0,38,39
 2458 1661 2458 1661 2458 1501 c 0,40,41
 2458 1418 2458 1418 2400 1244 c 0,42,43
 2371 1159 2371 1159 2312 987 c 1,0,-1
1152 -132 m 1,44,-1
 1089 -345 l 1,45,-1
 925 -533 l 1,46,-1
 815 -533 l 1,47,-1
 935 -345 l 1,48,-1
 839 -345 l 1,49,-1
 905 -132 l 1,50,-1
 1152 -132 l 1,44,-1
EndSplineSet
Validated: 1
EndChar

StartChar: uni0219
Encoding: 537 537 259
Width: 2089
Flags: W
LayerCount: 2
Fore
SplineSet
2349 213 m 1,0,-1
 2224 0 l 1,1,-1
 453 0 l 1,2,-1
 543 213 l 1,3,4
 675 213 675 213 719 227 c 0,5,6
 809 256 809 256 809 358 c 0,7,8
 809 414 809 414 760 514 c 0,9,10
 706 624 706 624 698 670 c 1,11,-1
 315 127 l 2,12,13
 258 46 258 46 203 20 c 0,14,15
 158 -1 158 -1 75 -1 c 0,16,17
 23 -1 23 -1 23 -1 c 1,18,-1
 -37 0 l 1,19,-1
 698 1028 l 1,20,-1
 961 1028 l 1,21,22
 864 910 864 910 864 827 c 0,23,24
 864 781 864 781 944 622 c 128,-1,25
 1024 463 1024 463 1024 385 c 0,26,27
 1024 283 1024 283 971 213 c 1,28,-1
 2349 213 l 1,0,-1
824 -127 m 1,29,-1
 761 -340 l 1,30,-1
 597 -528 l 1,31,-1
 487 -528 l 1,32,-1
 607 -340 l 1,33,-1
 511 -340 l 1,34,-1
 577 -127 l 1,35,-1
 824 -127 l 1,29,-1
EndSplineSet
Validated: 1
EndChar

StartChar: uni021A
Encoding: 538 538 260
Width: 2449
Flags: W
LayerCount: 2
Fore
SplineSet
2122 1638 m 1,0,1
 2035 1331 2035 1331 1846 722 c 1,2,3
 1720 348 1720 348 1449 179 c 0,4,5
 1162 0 1162 0 573 0 c 2,6,-1
 0 0 l 1,7,-1
 131 213 l 1,8,9
 195 213 195 213 322 210.5 c 128,-1,10
 449 208 449 208 513 208 c 0,11,12
 940 208 940 208 1180 291 c 0,13,14
 1524 410 1524 410 1616 715 c 2,15,-1
 1831 1425 l 1,16,-1
 1038 1425 l 2,17,18
 944 1425 944 1425 904 1407 c 0,19,20
 842 1379 842 1379 842 1298 c 0,21,22
 842 1227 842 1227 895 987 c 1,23,-1
 674 987 l 1,24,25
 660 1047 660 1047 633 1167 c 0,26,27
 610 1272 610 1272 610 1350 c 0,28,29
 610 1638 610 1638 1051 1638 c 2,30,-1
 2122 1638 l 1,0,1
936 -128 m 1,31,-1
 873 -341 l 1,32,-1
 709 -529 l 1,33,-1
 599 -529 l 1,34,-1
 719 -341 l 1,35,-1
 623 -341 l 1,36,-1
 689 -128 l 1,37,-1
 936 -128 l 1,31,-1
EndSplineSet
Validated: 1
EndChar

StartChar: uni021B
Encoding: 539 539 261
Width: 1698
Flags: W
LayerCount: 2
Fore
SplineSet
1962 213 m 1,0,-1
 1835 0 l 1,1,-1
 485 0 l 2,2,3
 350 0 350 0 266 54 c 0,4,5
 166 118 166 118 166 246 c 0,6,7
 166 344 166 344 212 478 c 0,8,9
 238 553 238 553 291 702 c 1,10,-1
 63 702 l 1,11,-1
 129 915 l 1,12,-1
 354 915 l 1,13,-1
 463 1284 l 1,14,-1
 702 1343 l 1,15,-1
 575 915 l 1,16,-1
 799 915 l 1,17,-1
 733 702 l 1,18,-1
 512 702 l 1,19,-1
 436 483 l 2,20,21
 385 334 385 334 385 264 c 0,22,23
 385 213 385 213 471 213 c 2,24,-1
 1962 213 l 1,0,-1
408 -124 m 1,25,-1
 345 -337 l 1,26,-1
 181 -525 l 1,27,-1
 71 -525 l 1,28,-1
 191 -337 l 1,29,-1
 95 -337 l 1,30,-1
 161 -124 l 1,31,-1
 408 -124 l 1,25,-1
EndSplineSet
Validated: 1
EndChar

StartChar: hookabovecomb
Encoding: 777 777 277
Width: 509
VWidth: 1000
Flags: W
LayerCount: 2
Fore
SplineSet
490 893 m 0,0,1
 490 859 490 859 473 832 c 2,2,-1
 431 778 l 1,3,-1
 375 730 l 1,4,-1
 321 681 l 2,5,6
 299 659 299 659 278 627 c 0,7,8
 261 601 261 601 261 564 c 1,9,-1
 265 530 l 1,10,11
 273 510 273 510 280 501 c 1,12,-1
 261 496 l 1,13,-1
 246 496 l 2,14,15
 219 496 219 496 207 513 c 0,16,17
 196 528 196 528 195 569 c 0,18,19
 194 606 194 606 209 637 c 0,20,21
 229 678 229 678 241 693 c 2,22,-1
 285 739 l 1,23,-1
 326 781 l 1,24,-1
 358 822 l 2,25,26
 374 845 374 845 373 866 c 0,27,28
 372 888 372 888 356 900 c 0,29,30
 338 913 338 913 317 920 c 2,31,-1
 268 937 l 2,32,33
 243 944 243 944 217 959 c 0,34,35
 197 971 197 971 178 995 c 0,36,37
 163 1014 163 1014 163 1056 c 2,38,-1
 163 1064 l 1,39,-1
 165 1076 l 1,40,-1
 170 1100 l 1,41,-1
 180 1137 l 1,42,43
 187 1112 187 1112 222 1095 c 0,44,45
 271 1071 271 1071 297 1064 c 0,46,47
 394 1038 394 1038 446 988 c 0,48,49
 490 946 490 946 490 893 c 0,0,1
EndSplineSet
Validated: 33
EndChar

StartChar: dotbelowcomb
Encoding: 803 803 337
Width: 788
Flags: W
LayerCount: 2
Fore
SplineSet
745 213 m 1,0,-1
 682 0 l 1,1,-1
 436 0 l 1,2,-1
 500 213 l 1,3,-1
 745 213 l 1,0,-1
EndSplineSet
Validated: 1
EndChar

StartChar: uni030C
Encoding: 780 780 360
Width: 1122
Flags: W
LayerCount: 2
Fore
SplineSet
842 1286 m 1,0,1
 842 1175 842 1175 757 1103 c 0,2,3
 676 1034 676 1034 563 1034 c 0,4,5
 452 1034 452 1034 371 1104 c 0,6,7
 285 1177 285 1177 285 1286 c 1,8,-1
 420 1286 l 1,9,10
 420 1234 420 1234 467 1200 c 0,11,12
 509 1169 509 1169 563 1169 c 0,13,14
 619 1169 619 1169 660 1199 c 0,15,16
 707 1232 707 1232 707 1286 c 1,17,-1
 842 1286 l 1,0,1
EndSplineSet
Validated: 1
EndChar

StartChar: uni0306
Encoding: 774 774 361
Width: 1122
Flags: W
LayerCount: 2
Fore
SplineSet
842 1286 m 1,0,1
 842 1175 842 1175 757 1103 c 0,2,3
 676 1034 676 1034 563 1034 c 0,4,5
 452 1034 452 1034 371 1104 c 0,6,7
 285 1177 285 1177 285 1286 c 1,8,-1
 420 1286 l 1,9,10
 420 1234 420 1234 467 1200 c 0,11,12
 509 1169 509 1169 563 1169 c 0,13,14
 619 1169 619 1169 660 1199 c 0,15,16
 707 1232 707 1232 707 1286 c 1,17,-1
 842 1286 l 1,0,1
EndSplineSet
Validated: 1
EndChar

StartChar: uni0307
Encoding: 775 775 362
Width: 1122
Flags: W
LayerCount: 2
Fore
SplineSet
739 1231 m 0,0,1
 739 1157 739 1157 687 1105 c 128,-1,2
 635 1053 635 1053 561 1053 c 0,3,4
 488 1053 488 1053 435.5 1105.5 c 128,-1,5
 383 1158 383 1158 383 1231 c 0,6,7
 383 1305 383 1305 435 1357 c 128,-1,8
 487 1409 487 1409 561 1409 c 0,9,10
 634 1409 634 1409 686.5 1356.5 c 128,-1,11
 739 1304 739 1304 739 1231 c 0,0,1
EndSplineSet
Validated: 1
EndChar

StartChar: Abreve
Encoding: 258 258 367
Width: 2716
Flags: W
LayerCount: 2
Fore
SplineSet
2451 1638 m 1,0,-1
 1962 0 l 1,1,-1
 1739 0 l 1,2,-1
 1878 457 l 1,3,-1
 1274 457 l 1,4,5
 1132 210 1132 210 905 99 c 0,6,7
 700 0 700 0 397 0 c 2,8,-1
 16 0 l 1,9,-1
 143 213 l 1,10,11
 187 213 187 213 274 211 c 128,-1,12
 361 209 361 209 405 209 c 0,13,14
 607 209 607 209 728 251 c 0,15,16
 887 306 887 306 1006 457 c 1,17,-1
 440 457 l 1,18,-1
 569 676 l 1,19,-1
 1130 676 l 1,20,21
 1338 1123 1338 1123 1431 1258 c 0,22,23
 1598 1501 1598 1501 1882 1583 c 0,24,25
 2073 1638 2073 1638 2451 1638 c 1,0,-1
2163 1425 m 1,26,27
 1850 1425 1850 1425 1652 1190 c 0,28,29
 1532 1048 1532 1048 1376 676 c 1,30,-1
 1942 676 l 1,31,-1
 2163 1425 l 1,26,27
2428 2005 m 1,32,33
 2428 1894 2428 1894 2343 1822 c 0,34,35
 2262 1753 2262 1753 2149 1753 c 0,36,37
 2038 1753 2038 1753 1957 1823 c 0,38,39
 1871 1896 1871 1896 1871 2005 c 1,40,-1
 2006 2005 l 1,41,42
 2006 1953 2006 1953 2053 1919 c 0,43,44
 2095 1888 2095 1888 2149 1888 c 0,45,46
 2205 1888 2205 1888 2246 1918 c 0,47,48
 2293 1951 2293 1951 2293 2005 c 1,49,-1
 2428 2005 l 1,32,33
EndSplineSet
Validated: 1
EndChar

StartChar: abreve
Encoding: 259 259 368
Width: 2077
Flags: W
LayerCount: 2
Fore
SplineSet
2341 213 m 1,0,-1
 2214 0 l 1,1,-1
 963 0 l 2,2,3
 682 0 682 0 682 197 c 0,4,5
 682 242 682 242 721 362 c 1,6,7
 560 189 560 189 476 124 c 0,8,9
 316 0 316 0 170 0 c 0,10,11
 0 0 0 0 0 168 c 0,12,13
 0 277 0 277 61 462 c 0,14,15
 93 555 93 555 156 743 c 0,16,17
 187 840 187 840 238 877.5 c 128,-1,18
 289 915 289 915 391 915 c 2,19,-1
 1106 915 l 1,20,21
 1008 606 1008 606 907 244 c 1,22,-1
 921 219 l 1,23,24
 975 204 975 204 1292 202 c 0,25,26
 1492 201 1492 201 1899 207 c 2,27,-1
 2341 213 l 1,0,-1
780 702 m 1,28,-1
 367 702 l 1,29,30
 341 623 341 623 290 464 c 0,31,32
 245 325 245 325 225 223 c 1,33,-1
 238 211 l 1,34,35
 369 234 369 234 780 702 c 1,28,-1
958 1290 m 1,36,37
 958 1179 958 1179 873 1107 c 0,38,39
 792 1038 792 1038 679 1038 c 0,40,41
 568 1038 568 1038 487 1108 c 0,42,43
 401 1181 401 1181 401 1290 c 1,44,-1
 536 1290 l 1,45,46
 536 1238 536 1238 583 1204 c 0,47,48
 625 1173 625 1173 679 1173 c 0,49,50
 735 1173 735 1173 776 1203 c 0,51,52
 823 1236 823 1236 823 1290 c 1,53,-1
 958 1290 l 1,36,37
EndSplineSet
Validated: 33
EndChar

StartChar: Cacute
Encoding: 262 262 369
Width: 2148
Flags: W
LayerCount: 2
Fore
SplineSet
2415 213 m 1,0,-1
 2290 0 l 1,1,-1
 582 0 l 2,2,3
 347 0 347 0 200 94 c 0,4,5
 25 206 25 206 25 428 c 0,6,7
 25 724 25 724 221 1024 c 0,8,9
 400 1296 400 1296 669 1473 c 0,10,11
 961 1665 961 1665 1245 1665 c 0,12,13
 1376 1665 1376 1665 1452 1597 c 0,14,15
 1532 1526 1532 1526 1532 1397 c 0,16,17
 1532 1307 1532 1307 1494 1188 c 0,18,19
 1472 1121 1472 1121 1427 987 c 1,20,-1
 1204 987 l 1,21,-1
 1266 1176 l 2,22,23
 1305 1296 1305 1296 1305 1368 c 0,24,25
 1305 1458 1305 1458 1202 1458 c 0,26,27
 991 1458 991 1458 749 1269 c 0,28,29
 547 1111 547 1111 408 899 c 0,30,31
 250 658 250 658 250 467 c 0,32,33
 250 213 250 213 633 213 c 2,34,-1
 2415 213 l 1,0,-1
1479 2023 m 1,35,-1
 1114 1755 l 1,36,-1
 1077 1890 l 1,37,-1
 1393 2214 l 1,38,-1
 1479 2023 l 1,35,-1
EndSplineSet
Validated: 1
EndChar

StartChar: cacute
Encoding: 263 263 370
Width: 1847
Flags: W
LayerCount: 2
Fore
SplineSet
2116 213 m 1,0,-1
 1991 0 l 1,1,-1
 506 0 l 2,2,3
 352 0 352 0 250 69 c 0,4,5
 131 148 131 148 131 295 c 0,6,7
 131 401 131 401 199 612 c 0,8,9
 211 650 211 650 299 915 c 1,10,-1
 862 915 l 2,11,12
 1016 915 1016 915 1016 799 c 0,13,14
 1016 745 1016 745 954 565 c 1,15,-1
 715 512 l 1,16,-1
 772 702 l 1,17,-1
 461 702 l 1,18,-1
 396 521 l 2,19,20
 356 408 356 408 356 334 c 0,21,22
 356 213 356 213 506 213 c 2,23,-1
 2116 213 l 1,0,-1
931 1291 m 1,24,-1
 566 1023 l 1,25,-1
 529 1158 l 1,26,-1
 845 1482 l 1,27,-1
 931 1291 l 1,24,-1
EndSplineSet
Validated: 1
EndChar

StartChar: Ccircumflex
Encoding: 264 264 371
Width: 2148
Flags: W
LayerCount: 2
Fore
SplineSet
2415 213 m 1,0,-1
 2290 0 l 1,1,-1
 582 0 l 2,2,3
 347 0 347 0 200 94 c 0,4,5
 25 206 25 206 25 428 c 0,6,7
 25 724 25 724 221 1024 c 0,8,9
 400 1296 400 1296 669 1473 c 0,10,11
 961 1665 961 1665 1245 1665 c 0,12,13
 1376 1665 1376 1665 1452 1597 c 0,14,15
 1532 1526 1532 1526 1532 1397 c 0,16,17
 1532 1307 1532 1307 1494 1188 c 0,18,19
 1472 1121 1472 1121 1427 987 c 1,20,-1
 1204 987 l 1,21,-1
 1266 1176 l 2,22,23
 1305 1296 1305 1296 1305 1368 c 0,24,25
 1305 1458 1305 1458 1202 1458 c 0,26,27
 991 1458 991 1458 749 1269 c 0,28,29
 547 1111 547 1111 408 899 c 0,30,31
 250 658 250 658 250 467 c 0,32,33
 250 213 250 213 633 213 c 2,34,-1
 2415 213 l 1,0,-1
1564 1820 m 1,35,-1
 1461 1738 l 1,36,-1
 1248 1914 l 1,37,-1
 992 1746 l 1,38,-1
 898 1828 l 1,39,-1
 1279 2147 l 1,40,-1
 1564 1820 l 1,35,-1
EndSplineSet
Validated: 1
EndChar

StartChar: ccircumflex
Encoding: 265 265 372
Width: 1847
Flags: W
LayerCount: 2
Fore
SplineSet
2116 213 m 1,0,-1
 1991 0 l 1,1,-1
 506 0 l 2,2,3
 352 0 352 0 250 69 c 0,4,5
 131 148 131 148 131 295 c 0,6,7
 131 401 131 401 199 612 c 0,8,9
 211 650 211 650 299 915 c 1,10,-1
 862 915 l 2,11,12
 1016 915 1016 915 1016 799 c 0,13,14
 1016 745 1016 745 954 565 c 1,15,-1
 715 512 l 1,16,-1
 772 702 l 1,17,-1
 461 702 l 1,18,-1
 396 521 l 2,19,20
 356 408 356 408 356 334 c 0,21,22
 356 213 356 213 506 213 c 2,23,-1
 2116 213 l 1,0,-1
1003 1107 m 1,24,-1
 900 1025 l 1,25,-1
 687 1201 l 1,26,-1
 431 1033 l 1,27,-1
 337 1115 l 1,28,-1
 718 1434 l 1,29,-1
 1003 1107 l 1,24,-1
EndSplineSet
Validated: 1
EndChar

StartChar: Cdotaccent
Encoding: 266 266 373
Width: 2148
Flags: W
LayerCount: 2
Fore
SplineSet
2415 213 m 1,0,-1
 2290 0 l 1,1,-1
 582 0 l 2,2,3
 347 0 347 0 200 94 c 0,4,5
 25 206 25 206 25 428 c 0,6,7
 25 724 25 724 221 1024 c 0,8,9
 400 1296 400 1296 669 1473 c 0,10,11
 961 1665 961 1665 1245 1665 c 0,12,13
 1376 1665 1376 1665 1452 1597 c 0,14,15
 1532 1526 1532 1526 1532 1397 c 0,16,17
 1532 1307 1532 1307 1494 1188 c 0,18,19
 1472 1121 1472 1121 1427 987 c 1,20,-1
 1204 987 l 1,21,-1
 1266 1176 l 2,22,23
 1305 1296 1305 1296 1305 1368 c 0,24,25
 1305 1458 1305 1458 1202 1458 c 0,26,27
 991 1458 991 1458 749 1269 c 0,28,29
 547 1111 547 1111 408 899 c 0,30,31
 250 658 250 658 250 467 c 0,32,33
 250 213 250 213 633 213 c 2,34,-1
 2415 213 l 1,0,-1
1446 1966 m 0,35,36
 1446 1892 1446 1892 1394 1840 c 128,-1,37
 1342 1788 1342 1788 1268 1788 c 0,38,39
 1195 1788 1195 1788 1142.5 1840.5 c 128,-1,40
 1090 1893 1090 1893 1090 1966 c 0,41,42
 1090 2040 1090 2040 1142 2092 c 128,-1,43
 1194 2144 1194 2144 1268 2144 c 0,44,45
 1341 2144 1341 2144 1393.5 2091.5 c 128,-1,46
 1446 2039 1446 2039 1446 1966 c 0,35,36
EndSplineSet
Validated: 1
EndChar

StartChar: cdotaccent
Encoding: 267 267 374
Width: 1847
Flags: W
LayerCount: 2
Fore
SplineSet
2116 213 m 1,0,-1
 1991 0 l 1,1,-1
 506 0 l 2,2,3
 352 0 352 0 250 69 c 0,4,5
 131 148 131 148 131 295 c 0,6,7
 131 401 131 401 199 612 c 0,8,9
 211 650 211 650 299 915 c 1,10,-1
 862 915 l 2,11,12
 1016 915 1016 915 1016 799 c 0,13,14
 1016 745 1016 745 954 565 c 1,15,-1
 715 512 l 1,16,-1
 772 702 l 1,17,-1
 461 702 l 1,18,-1
 396 521 l 2,19,20
 356 408 356 408 356 334 c 0,21,22
 356 213 356 213 506 213 c 2,23,-1
 2116 213 l 1,0,-1
856 1227 m 0,24,25
 856 1153 856 1153 804 1101 c 128,-1,26
 752 1049 752 1049 678 1049 c 0,27,28
 605 1049 605 1049 552.5 1101.5 c 128,-1,29
 500 1154 500 1154 500 1227 c 0,30,31
 500 1301 500 1301 552 1353 c 128,-1,32
 604 1405 604 1405 678 1405 c 0,33,34
 751 1405 751 1405 803.5 1352.5 c 128,-1,35
 856 1300 856 1300 856 1227 c 0,24,25
EndSplineSet
Validated: 1
EndChar

StartChar: Ccaron
Encoding: 268 268 375
Width: 2148
Flags: W
LayerCount: 2
Fore
SplineSet
2415 213 m 1,0,-1
 2290 0 l 1,1,-1
 582 0 l 2,2,3
 347 0 347 0 200 94 c 0,4,5
 25 206 25 206 25 428 c 0,6,7
 25 724 25 724 221 1024 c 0,8,9
 400 1296 400 1296 669 1473 c 0,10,11
 961 1665 961 1665 1245 1665 c 0,12,13
 1376 1665 1376 1665 1452 1597 c 0,14,15
 1532 1526 1532 1526 1532 1397 c 0,16,17
 1532 1307 1532 1307 1494 1188 c 0,18,19
 1472 1121 1472 1121 1427 987 c 1,20,-1
 1204 987 l 1,21,-1
 1266 1176 l 2,22,23
 1305 1296 1305 1296 1305 1368 c 0,24,25
 1305 1458 1305 1458 1202 1458 c 0,26,27
 991 1458 991 1458 749 1269 c 0,28,29
 547 1111 547 1111 408 899 c 0,30,31
 250 658 250 658 250 467 c 0,32,33
 250 213 250 213 633 213 c 2,34,-1
 2415 213 l 1,0,-1
1656 2088 m 1,35,-1
 1277 1769 l 1,36,-1
 991 2096 l 1,37,-1
 1093 2178 l 1,38,-1
 1308 2002 l 1,39,-1
 1562 2170 l 1,40,-1
 1656 2088 l 1,35,-1
EndSplineSet
Validated: 1
EndChar

StartChar: ccaron
Encoding: 269 269 376
Width: 1847
Flags: W
LayerCount: 2
Fore
SplineSet
2116 213 m 1,0,-1
 1991 0 l 1,1,-1
 506 0 l 2,2,3
 352 0 352 0 250 69 c 0,4,5
 131 148 131 148 131 295 c 0,6,7
 131 401 131 401 199 612 c 0,8,9
 211 650 211 650 299 915 c 1,10,-1
 862 915 l 2,11,12
 1016 915 1016 915 1016 799 c 0,13,14
 1016 745 1016 745 954 565 c 1,15,-1
 715 512 l 1,16,-1
 772 702 l 1,17,-1
 461 702 l 1,18,-1
 396 521 l 2,19,20
 356 408 356 408 356 334 c 0,21,22
 356 213 356 213 506 213 c 2,23,-1
 2116 213 l 1,0,-1
1033 1331 m 1,24,-1
 654 1012 l 1,25,-1
 368 1339 l 1,26,-1
 470 1421 l 1,27,-1
 685 1245 l 1,28,-1
 939 1413 l 1,29,-1
 1033 1331 l 1,24,-1
EndSplineSet
Validated: 1
EndChar

StartChar: Dcaron
Encoding: 270 270 377
Width: 2513
Flags: W
LayerCount: 2
Fore
SplineSet
522 0 m 1,0,-1
 905 1290 l 1,1,-1
 1130 1290 l 1,2,-1
 807 213 l 1,3,4
 1055 217 1055 217 1329 355 c 0,5,6
 1592 488 1592 488 1761 682 c 0,7,8
 1958 909 1958 909 1958 1149 c 0,9,10
 1958 1425 1958 1425 1571 1425 c 2,11,-1
 119 1425 l 1,12,-1
 223 1638 l 1,13,-1
 1593 1638 l 2,14,15
 1854 1638 1854 1638 2007 1535 c 0,16,17
 2189 1414 2189 1414 2189 1165 c 0,18,19
 2189 765 2189 765 1815 436 c 0,20,21
 1492 152 1492 152 1065 47 c 0,22,23
 874 0 874 0 522 0 c 1,0,-1
2001 2054 m 1,24,-1
 1622 1735 l 1,25,-1
 1336 2062 l 1,26,-1
 1438 2144 l 1,27,-1
 1653 1968 l 1,28,-1
 1907 2136 l 1,29,-1
 2001 2054 l 1,24,-1
EndSplineSet
Validated: 1
EndChar

StartChar: Dcroat
Encoding: 272 272 378
Width: 2470
Flags: W
LayerCount: 2
Fore
SplineSet
1262 944 m 1,0,-1
 1194 731 l 1,1,-1
 962.351903435 731 l 1,2,-1
 807 213 l 1,3,4
 1055 217 1055 217 1329 355 c 0,5,6
 1592 488 1592 488 1761 682 c 0,7,8
 1958 909 1958 909 1958 1149 c 0,9,10
 1958 1425 1958 1425 1571 1425 c 2,11,-1
 119 1425 l 1,12,-1
 223 1638 l 1,13,-1
 1593 1638 l 2,14,15
 1854 1638 1854 1638 2007 1535 c 0,16,17
 2189 1414 2189 1414 2189 1165 c 0,18,19
 2189 765 2189 765 1815 436 c 0,20,21
 1492 152 1492 152 1065 47 c 0,22,23
 874 0 874 0 522 0 c 1,24,-1
 739.033333333 731 l 1,25,-1
 487 731 l 1,26,-1
 555 944 l 1,27,-1
 802.272868217 944 l 1,28,-1
 905 1290 l 1,29,-1
 1130 1290 l 1,30,-1
 1026.23212628 944 l 1,31,-1
 1262 944 l 1,0,-1
EndSplineSet
Validated: 1
EndChar

StartChar: Ebreve
Encoding: 276 276 379
Width: 2152
Flags: W
LayerCount: 2
Fore
SplineSet
2419 213 m 1,0,-1
 2294 0 l 1,1,-1
 369 0 l 2,2,3
 230 0 230 0 144 57 c 0,4,5
 43 123 43 123 43 256 c 0,6,7
 43 422 43 422 165 523 c 0,8,9
 203 555 203 555 434 676 c 1,10,11
 406 752 406 752 352 903 c 0,12,13
 311 1025 311 1025 311 1139 c 0,14,15
 311 1391 311 1391 475 1521 c 0,16,17
 624 1638 624 1638 883 1638 c 2,18,-1
 1288 1638 l 2,19,20
 1581 1638 1581 1638 1581 1409 c 0,21,22
 1581 1319 1581 1319 1545 1195 c 0,23,24
 1524 1126 1524 1126 1483 989 c 1,25,-1
 1255 989 l 1,26,-1
 1317 1170 l 2,27,28
 1354 1282 1354 1282 1354 1356 c 0,29,30
 1354 1404 1354 1404 1314 1418 c 0,31,32
 1294 1425 1294 1425 1233 1425 c 2,33,-1
 868 1425 l 2,34,35
 722 1425 722 1425 633 1363 c 0,36,37
 530 1291 530 1291 530 1151 c 0,38,39
 530 1063 530 1063 601 892.5 c 128,-1,40
 672 722 672 722 672 641 c 0,41,42
 672 559 672 559 566 506 c 0,43,44
 500 477 500 477 368 418 c 0,45,46
 262 368 262 368 262 297 c 0,47,48
 262 213 262 213 365 213 c 2,49,-1
 2419 213 l 1,0,-1
1311 2008 m 1,50,51
 1311 1897 1311 1897 1226 1825 c 0,52,53
 1145 1756 1145 1756 1032 1756 c 0,54,55
 921 1756 921 1756 840 1826 c 0,56,57
 754 1899 754 1899 754 2008 c 1,58,-1
 889 2008 l 1,59,60
 889 1956 889 1956 936 1922 c 0,61,62
 978 1891 978 1891 1032 1891 c 0,63,64
 1088 1891 1088 1891 1129 1921 c 0,65,66
 1176 1954 1176 1954 1176 2008 c 1,67,-1
 1311 2008 l 1,50,51
EndSplineSet
Validated: 1
EndChar

StartChar: ebreve
Encoding: 277 277 380
Width: 2032
Flags: W
LayerCount: 2
Fore
SplineSet
2300 213 m 1,0,-1
 2175 0 l 1,1,-1
 485 0 l 2,2,3
 336 0 336 0 239 69 c 0,4,5
 129 148 129 148 129 291 c 0,6,7
 129 395 129 395 199 610 c 0,8,9
 211 646 211 646 301 915 c 1,10,-1
 831 915 l 2,11,12
 928 915 928 915 990 871 c 0,13,14
 1061 821 1061 821 1061 727 c 0,15,16
 1061 610 1061 610 930 514 c 2,17,-1
 604 274 l 1,18,-1
 475 428 l 1,19,-1
 846 702 l 1,20,-1
 459 702 l 1,21,-1
 395 520 l 2,22,23
 356 407 356 407 356 334 c 0,24,25
 356 213 356 213 506 213 c 2,26,-1
 2300 213 l 1,0,-1
941 1240 m 1,27,28
 941 1129 941 1129 856 1057 c 0,29,30
 775 988 775 988 662 988 c 0,31,32
 551 988 551 988 470 1058 c 0,33,34
 384 1131 384 1131 384 1240 c 1,35,-1
 519 1240 l 1,36,37
 519 1188 519 1188 566 1154 c 0,38,39
 608 1123 608 1123 662 1123 c 0,40,41
 718 1123 718 1123 759 1153 c 0,42,43
 806 1186 806 1186 806 1240 c 1,44,-1
 941 1240 l 1,27,28
EndSplineSet
Validated: 1
EndChar

StartChar: Edotaccent
Encoding: 278 278 381
Width: 2152
Flags: W
LayerCount: 2
Fore
SplineSet
2419 213 m 1,0,-1
 2294 0 l 1,1,-1
 369 0 l 2,2,3
 230 0 230 0 144 57 c 0,4,5
 43 123 43 123 43 256 c 0,6,7
 43 422 43 422 165 523 c 0,8,9
 203 555 203 555 434 676 c 1,10,11
 406 752 406 752 352 903 c 0,12,13
 311 1025 311 1025 311 1139 c 0,14,15
 311 1391 311 1391 475 1521 c 0,16,17
 624 1638 624 1638 883 1638 c 2,18,-1
 1288 1638 l 2,19,20
 1581 1638 1581 1638 1581 1409 c 0,21,22
 1581 1319 1581 1319 1545 1195 c 0,23,24
 1524 1126 1524 1126 1483 989 c 1,25,-1
 1255 989 l 1,26,-1
 1317 1170 l 2,27,28
 1354 1282 1354 1282 1354 1356 c 0,29,30
 1354 1404 1354 1404 1314 1418 c 0,31,32
 1294 1425 1294 1425 1233 1425 c 2,33,-1
 868 1425 l 2,34,35
 722 1425 722 1425 633 1363 c 0,36,37
 530 1291 530 1291 530 1151 c 0,38,39
 530 1063 530 1063 601 892.5 c 128,-1,40
 672 722 672 722 672 641 c 0,41,42
 672 559 672 559 566 506 c 0,43,44
 500 477 500 477 368 418 c 0,45,46
 262 368 262 368 262 297 c 0,47,48
 262 213 262 213 365 213 c 2,49,-1
 2419 213 l 1,0,-1
1258 1937 m 0,50,51
 1258 1863 1258 1863 1206 1811 c 128,-1,52
 1154 1759 1154 1759 1080 1759 c 0,53,54
 1007 1759 1007 1759 954.5 1811.5 c 128,-1,55
 902 1864 902 1864 902 1937 c 0,56,57
 902 2011 902 2011 954 2063 c 128,-1,58
 1006 2115 1006 2115 1080 2115 c 0,59,60
 1153 2115 1153 2115 1205.5 2062.5 c 128,-1,61
 1258 2010 1258 2010 1258 1937 c 0,50,51
EndSplineSet
Validated: 1
EndChar

StartChar: edotaccent
Encoding: 279 279 382
Width: 2032
Flags: W
LayerCount: 2
Fore
SplineSet
2300 213 m 1,0,-1
 2175 0 l 1,1,-1
 485 0 l 2,2,3
 336 0 336 0 239 69 c 0,4,5
 129 148 129 148 129 291 c 0,6,7
 129 395 129 395 199 610 c 0,8,9
 211 646 211 646 301 915 c 1,10,-1
 831 915 l 2,11,12
 928 915 928 915 990 871 c 0,13,14
 1061 821 1061 821 1061 727 c 0,15,16
 1061 610 1061 610 930 514 c 2,17,-1
 604 274 l 1,18,-1
 475 428 l 1,19,-1
 846 702 l 1,20,-1
 459 702 l 1,21,-1
 395 520 l 2,22,23
 356 407 356 407 356 334 c 0,24,25
 356 213 356 213 506 213 c 2,26,-1
 2300 213 l 1,0,-1
884 1218 m 0,27,28
 884 1144 884 1144 832 1092 c 128,-1,29
 780 1040 780 1040 706 1040 c 0,30,31
 633 1040 633 1040 580.5 1092.5 c 128,-1,32
 528 1145 528 1145 528 1218 c 0,33,34
 528 1292 528 1292 580 1344 c 128,-1,35
 632 1396 632 1396 706 1396 c 0,36,37
 779 1396 779 1396 831.5 1343.5 c 128,-1,38
 884 1291 884 1291 884 1218 c 0,27,28
EndSplineSet
Validated: 1
EndChar

StartChar: Ecaron
Encoding: 282 282 383
Width: 2152
Flags: W
LayerCount: 2
Fore
SplineSet
2419 213 m 1,0,-1
 2294 0 l 1,1,-1
 369 0 l 2,2,3
 230 0 230 0 144 57 c 0,4,5
 43 123 43 123 43 256 c 0,6,7
 43 422 43 422 165 523 c 0,8,9
 203 555 203 555 434 676 c 1,10,11
 406 752 406 752 352 903 c 0,12,13
 311 1025 311 1025 311 1139 c 0,14,15
 311 1391 311 1391 475 1521 c 0,16,17
 624 1638 624 1638 883 1638 c 2,18,-1
 1288 1638 l 2,19,20
 1581 1638 1581 1638 1581 1409 c 0,21,22
 1581 1319 1581 1319 1545 1195 c 0,23,24
 1524 1126 1524 1126 1483 989 c 1,25,-1
 1255 989 l 1,26,-1
 1317 1170 l 2,27,28
 1354 1282 1354 1282 1354 1356 c 0,29,30
 1354 1404 1354 1404 1314 1418 c 0,31,32
 1294 1425 1294 1425 1233 1425 c 2,33,-1
 868 1425 l 2,34,35
 722 1425 722 1425 633 1363 c 0,36,37
 530 1291 530 1291 530 1151 c 0,38,39
 530 1063 530 1063 601 892.5 c 128,-1,40
 672 722 672 722 672 641 c 0,41,42
 672 559 672 559 566 506 c 0,43,44
 500 477 500 477 368 418 c 0,45,46
 262 368 262 368 262 297 c 0,47,48
 262 213 262 213 365 213 c 2,49,-1
 2419 213 l 1,0,-1
1407 2042 m 1,50,-1
 1028 1723 l 1,51,-1
 742 2050 l 1,52,-1
 844 2132 l 1,53,-1
 1059 1956 l 1,54,-1
 1313 2124 l 1,55,-1
 1407 2042 l 1,50,-1
EndSplineSet
Validated: 1
EndChar

StartChar: ecaron
Encoding: 283 283 384
Width: 2032
Flags: W
LayerCount: 2
Fore
SplineSet
2300 213 m 1,0,-1
 2175 0 l 1,1,-1
 485 0 l 2,2,3
 336 0 336 0 239 69 c 0,4,5
 129 148 129 148 129 291 c 0,6,7
 129 395 129 395 199 610 c 0,8,9
 211 646 211 646 301 915 c 1,10,-1
 831 915 l 2,11,12
 928 915 928 915 990 871 c 0,13,14
 1061 821 1061 821 1061 727 c 0,15,16
 1061 610 1061 610 930 514 c 2,17,-1
 604 274 l 1,18,-1
 475 428 l 1,19,-1
 846 702 l 1,20,-1
 459 702 l 1,21,-1
 395 520 l 2,22,23
 356 407 356 407 356 334 c 0,24,25
 356 213 356 213 506 213 c 2,26,-1
 2300 213 l 1,0,-1
1050 1353 m 1,27,-1
 671 1034 l 1,28,-1
 385 1361 l 1,29,-1
 487 1443 l 1,30,-1
 702 1267 l 1,31,-1
 956 1435 l 1,32,-1
 1050 1353 l 1,27,-1
EndSplineSet
Validated: 1
EndChar

StartChar: Gcircumflex
Encoding: 284 284 385
Width: 2949
Flags: W
LayerCount: 2
Fore
SplineSet
3219 213 m 1,0,-1
 3090 0 l 1,1,-1
 1667 0 l 1,2,-1
 1575 -338 l 2,3,4
 1536 -482 1536 -482 1482 -519 c 0,5,6
 1436 -551 1436 -551 1290 -551 c 2,7,-1
 791 -551 l 1,8,9
 842 -281 842 -281 1043 -70 c 0,10,11
 1240 136 1240 136 1509 213 c 1,12,-1
 1599 485 l 1,13,14
 1366 312 1366 312 1056 160 c 0,15,16
 679 -25 679 -25 469 -25 c 0,17,18
 275 -25 275 -25 167 69 c 0,19,20
 51 169 51 169 51 360 c 0,21,22
 51 689 51 689 290 1003 c 0,23,24
 503 1284 503 1284 838 1469 c 0,25,26
 1191 1665 1191 1665 1526 1665 c 0,27,28
 1664 1665 1664 1665 1752 1619 c 0,29,30
 1866 1560 1866 1560 1866 1434 c 0,31,32
 1866 1344 1866 1344 1823 1208 c 0,33,34
 1813 1175 1813 1175 1751 987 c 1,35,-1
 1524 987 l 1,36,37
 1634 1364 1634 1364 1634 1376 c 0,38,39
 1634 1450 1634 1450 1470 1450 c 0,40,41
 1208 1450 1208 1450 921 1283 c 0,42,43
 656 1130 656 1130 483 906 c 0,44,45
 287 652 287 652 287 401 c 0,46,47
 287 195 287 195 522 195 c 0,48,49
 836 195 836 195 1614 702 c 1,50,-1
 1890 702 l 1,51,-1
 1735 213 l 1,52,-1
 3219 213 l 1,0,-1
1446 -45 m 1,53,54
 1237 -134 1237 -134 1094 -360 c 1,55,-1
 1251 -360 l 2,56,57
 1352 -360 1352 -360 1394 -252 c 1,58,-1
 1446 -45 l 1,53,54
1872 1842 m 1,59,-1
 1769 1760 l 1,60,-1
 1556 1936 l 1,61,-1
 1300 1768 l 1,62,-1
 1206 1850 l 1,63,-1
 1587 2169 l 1,64,-1
 1872 1842 l 1,59,-1
EndSplineSet
Validated: 1
EndChar

StartChar: gcircumflex
Encoding: 285 285 386
Width: 2097
Flags: W
LayerCount: 2
Fore
SplineSet
2363 213 m 1,0,-1
 2234 0 l 1,1,-1
 1268 0 l 2,2,3
 1001 0 1001 0 795 -61 c 1,4,-1
 700 -395 l 2,5,6
 675 -482 675 -482 626.5 -516.5 c 128,-1,7
 578 -551 578 -551 485 -551 c 2,8,-1
 37 -551 l 1,9,10
 142 -104 142 -104 614 88 c 1,11,-1
 698 358 l 1,12,13
 389 0 389 0 158 0 c 0,14,15
 -6 0 -6 0 -6 164 c 0,16,17
 -6 266 -6 266 44 418 c 0,18,19
 73 500 73 500 127 664 c 0,20,21
 204 915 204 915 498 915 c 2,22,-1
 1085 915 l 1,23,-1
 860 164 l 1,24,25
 1037 213 1037 213 1247 213 c 2,26,-1
 2363 213 l 1,0,-1
776 702 m 1,27,-1
 444 702 l 2,28,29
 366 702 366 702 340 623 c 0,30,31
 283 451 283 451 221 227 c 1,32,-1
 231 213 l 1,33,34
 293 213 293 213 515 425 c 0,35,36
 709 611 709 611 776 702 c 1,27,-1
557 -139 m 1,37,38
 391 -233 391 -233 332 -360 c 1,39,-1
 428 -360 l 2,40,41
 493 -360 493 -360 523 -275 c 1,42,-1
 557 -139 l 1,37,38
1015 1107 m 1,43,-1
 912 1025 l 1,44,-1
 699 1201 l 1,45,-1
 443 1033 l 1,46,-1
 349 1115 l 1,47,-1
 730 1434 l 1,48,-1
 1015 1107 l 1,43,-1
EndSplineSet
Validated: 1
EndChar

StartChar: Gdotaccent
Encoding: 288 288 387
Width: 2949
Flags: W
LayerCount: 2
Fore
SplineSet
3219 213 m 1,0,-1
 3090 0 l 1,1,-1
 1667 0 l 1,2,-1
 1575 -338 l 2,3,4
 1536 -482 1536 -482 1482 -519 c 0,5,6
 1436 -551 1436 -551 1290 -551 c 2,7,-1
 791 -551 l 1,8,9
 842 -281 842 -281 1043 -70 c 0,10,11
 1240 136 1240 136 1509 213 c 1,12,-1
 1599 485 l 1,13,14
 1366 312 1366 312 1056 160 c 0,15,16
 679 -25 679 -25 469 -25 c 0,17,18
 275 -25 275 -25 167 69 c 0,19,20
 51 169 51 169 51 360 c 0,21,22
 51 689 51 689 290 1003 c 0,23,24
 503 1284 503 1284 838 1469 c 0,25,26
 1191 1665 1191 1665 1526 1665 c 0,27,28
 1664 1665 1664 1665 1752 1619 c 0,29,30
 1866 1560 1866 1560 1866 1434 c 0,31,32
 1866 1344 1866 1344 1823 1208 c 0,33,34
 1813 1175 1813 1175 1751 987 c 1,35,-1
 1524 987 l 1,36,37
 1634 1364 1634 1364 1634 1376 c 0,38,39
 1634 1450 1634 1450 1470 1450 c 0,40,41
 1208 1450 1208 1450 921 1283 c 0,42,43
 656 1130 656 1130 483 906 c 0,44,45
 287 652 287 652 287 401 c 0,46,47
 287 195 287 195 522 195 c 0,48,49
 836 195 836 195 1614 702 c 1,50,-1
 1890 702 l 1,51,-1
 1735 213 l 1,52,-1
 3219 213 l 1,0,-1
1446 -45 m 1,53,54
 1237 -134 1237 -134 1094 -360 c 1,55,-1
 1251 -360 l 2,56,57
 1352 -360 1352 -360 1394 -252 c 1,58,-1
 1446 -45 l 1,53,54
1769 1966 m 0,59,60
 1769 1892 1769 1892 1717 1840 c 128,-1,61
 1665 1788 1665 1788 1591 1788 c 0,62,63
 1518 1788 1518 1788 1465.5 1840.5 c 128,-1,64
 1413 1893 1413 1893 1413 1966 c 0,65,66
 1413 2040 1413 2040 1465 2092 c 128,-1,67
 1517 2144 1517 2144 1591 2144 c 0,68,69
 1664 2144 1664 2144 1716.5 2091.5 c 128,-1,70
 1769 2039 1769 2039 1769 1966 c 0,59,60
EndSplineSet
Validated: 1
EndChar

StartChar: gdotaccent
Encoding: 289 289 388
Width: 2097
Flags: W
LayerCount: 2
Fore
SplineSet
2363 213 m 1,0,-1
 2234 0 l 1,1,-1
 1268 0 l 2,2,3
 1001 0 1001 0 795 -61 c 1,4,-1
 700 -395 l 2,5,6
 675 -482 675 -482 626.5 -516.5 c 128,-1,7
 578 -551 578 -551 485 -551 c 2,8,-1
 37 -551 l 1,9,10
 142 -104 142 -104 614 88 c 1,11,-1
 698 358 l 1,12,13
 389 0 389 0 158 0 c 0,14,15
 -6 0 -6 0 -6 164 c 0,16,17
 -6 266 -6 266 44 418 c 0,18,19
 73 500 73 500 127 664 c 0,20,21
 204 915 204 915 498 915 c 2,22,-1
 1085 915 l 1,23,-1
 860 164 l 1,24,25
 1037 213 1037 213 1247 213 c 2,26,-1
 2363 213 l 1,0,-1
776 702 m 1,27,-1
 444 702 l 2,28,29
 366 702 366 702 340 623 c 0,30,31
 283 451 283 451 221 227 c 1,32,-1
 231 213 l 1,33,34
 293 213 293 213 515 425 c 0,35,36
 709 611 709 611 776 702 c 1,27,-1
557 -139 m 1,37,38
 391 -233 391 -233 332 -360 c 1,39,-1
 428 -360 l 2,40,41
 493 -360 493 -360 523 -275 c 1,42,-1
 557 -139 l 1,37,38
880 1231 m 0,43,44
 880 1157 880 1157 828 1105 c 128,-1,45
 776 1053 776 1053 702 1053 c 0,46,47
 629 1053 629 1053 576.5 1105.5 c 128,-1,48
 524 1158 524 1158 524 1231 c 0,49,50
 524 1305 524 1305 576 1357 c 128,-1,51
 628 1409 628 1409 702 1409 c 0,52,53
 775 1409 775 1409 827.5 1356.5 c 128,-1,54
 880 1304 880 1304 880 1231 c 0,43,44
EndSplineSet
Validated: 1
EndChar

StartChar: Hcircumflex
Encoding: 292 292 389
Width: 2396
Flags: W
LayerCount: 2
Fore
SplineSet
2130 1638 m 1,0,-1
 1642 0 l 1,1,-1
 1419 0 l 1,2,-1
 1561 463 l 1,3,-1
 1090 463 l 1,4,-1
 952 0 l 1,5,-1
 725 0 l 1,6,-1
 868 463 l 1,7,-1
 303 463 l 1,8,-1
 430 676 l 1,9,-1
 928 676 l 1,10,-1
 1026 964 l 2,11,12
 1087 1150 1087 1150 1087 1266 c 0,13,14
 1087 1364 1087 1364 1007 1400 c 0,15,16
 952 1425 952 1425 840 1425 c 2,17,-1
 29 1425 l 1,18,-1
 158 1638 l 1,19,-1
 895 1638 l 2,20,21
 1317 1638 1317 1638 1317 1315 c 0,22,23
 1317 1182 1317 1182 1255 988 c 0,24,25
 1220 884 1220 884 1151 676 c 1,26,-1
 1624 676 l 1,27,-1
 1909 1638 l 1,28,-1
 2130 1638 l 1,0,-1
1921 1804 m 1,29,-1
 1818 1722 l 1,30,-1
 1605 1898 l 1,31,-1
 1349 1730 l 1,32,-1
 1255 1812 l 1,33,-1
 1636 2131 l 1,34,-1
 1921 1804 l 1,29,-1
EndSplineSet
Validated: 1
EndChar

StartChar: hcircumflex
Encoding: 293 293 390
Width: 2073
Flags: W
LayerCount: 2
Fore
SplineSet
2339 213 m 1,0,-1
 2210 0 l 1,1,-1
 938 0 l 2,2,3
 670 0 670 0 670 176 c 0,4,5
 670 272 670 272 730 439 c 0,6,7
 796 622 796 622 805 700 c 1,8,-1
 801 709 l 1,9,10
 777 691 777 691 743 653 c 2,11,-1
 156 0 l 1,12,-1
 -63 0 l 1,13,-1
 383 1507 l 1,14,-1
 606 1507 l 1,15,-1
 297 461 l 1,16,-1
 573 766 l 2,17,18
 655 857 655 857 715 891 c 0,19,20
 790 934 790 934 897 934 c 0,21,22
 1049 934 1049 934 1049 797 c 0,23,24
 1049 707 1049 707 975 516.5 c 128,-1,25
 901 326 901 326 901 248 c 0,26,27
 901 213 901 213 991 213 c 2,28,-1
 2339 213 l 1,0,-1
1041 1692 m 1,29,-1
 938 1610 l 1,30,-1
 725 1786 l 1,31,-1
 469 1618 l 1,32,-1
 375 1700 l 1,33,-1
 756 2019 l 1,34,-1
 1041 1692 l 1,29,-1
EndSplineSet
Validated: 1
EndChar

StartChar: Itilde
Encoding: 296 296 391
Width: 2445
Flags: W
LayerCount: 2
Fore
SplineSet
610 0 m 2,0,-1
 25 0 l 1,1,-1
 156 213 l 1,2,3
 210 213 210 213 317 212 c 2,4,-1
 477 211 l 2,5,6
 882 211 882 211 1106 281 c 0,7,8
 1422 380 1422 380 1628 659 c 0,9,10
 1718 781 1718 781 1775 935 c 0,11,12
 1837 1101 1837 1101 1837 1241 c 0,13,14
 1837 1456 1837 1456 1677 1456 c 0,15,16
 1570 1456 1570 1456 1501 1371 c 0,17,18
 1446 1304 1446 1304 1411 1183 c 0,19,20
 1400 1145 1400 1145 1358 987 c 1,21,-1
 1135 987 l 1,22,23
 1166 1096 1166 1096 1232 1314 c 1,24,25
 1285 1475 1285 1475 1387 1562 c 0,26,27
 1503 1661 1503 1661 1702 1661 c 0,28,29
 1884 1661 1884 1661 1978 1543 c 0,30,31
 2064 1436 2064 1436 2064 1249 c 0,32,33
 2064 1121 2064 1121 2023 987 c 0,34,35
 1872 495 1872 495 1496 242 c 0,36,37
 1136 0 1136 0 610 0 c 2,0,-1
2112 1951 m 1,38,-1
 1899 1781 l 1,39,-1
 1862 1781 l 1,40,-1
 1508 1883 l 1,41,-1
 1342 1795 l 1,42,-1
 1310 1869 l 1,43,-1
 1520 2039 l 1,44,-1
 1559 2039 l 1,45,-1
 1914 1937 l 1,46,-1
 2078 2025 l 1,47,-1
 2112 1951 l 1,38,-1
EndSplineSet
Validated: 1
EndChar

StartChar: itilde
Encoding: 297 297 392
Width: 1380
Flags: W
LayerCount: 2
Fore
SplineSet
1642 213 m 1,0,-1
 1520 0 l 1,1,-1
 190 0 l 2,2,3
 -18 0 -18 0 -18 172 c 0,4,5
 -18 218 -18 218 -2 272 c 2,6,-1
 188 915 l 1,7,-1
 412 915 l 1,8,-1
 217 266 l 2,9,10
 213 253 213 253 226 224 c 1,11,12
 245 212 245 212 575 209 c 0,13,14
 789 207 789 207 1211 210 c 2,15,-1
 1642 213 l 1,0,-1
800 1312 m 1,16,-1
 587 1142 l 1,17,-1
 550 1142 l 1,18,-1
 196 1244 l 1,19,-1
 30 1156 l 1,20,-1
 -2 1230 l 1,21,-1
 208 1400 l 1,22,-1
 247 1400 l 1,23,-1
 602 1298 l 1,24,-1
 766 1386 l 1,25,-1
 800 1312 l 1,16,-1
EndSplineSet
Validated: 33
EndChar

StartChar: Ibreve
Encoding: 300 300 393
Width: 2445
Flags: W
LayerCount: 2
Fore
SplineSet
610 0 m 2,0,-1
 25 0 l 1,1,-1
 156 213 l 1,2,3
 210 213 210 213 317 212 c 2,4,-1
 477 211 l 2,5,6
 882 211 882 211 1106 281 c 0,7,8
 1422 380 1422 380 1628 659 c 0,9,10
 1718 781 1718 781 1775 935 c 0,11,12
 1837 1101 1837 1101 1837 1241 c 0,13,14
 1837 1456 1837 1456 1677 1456 c 0,15,16
 1570 1456 1570 1456 1501 1371 c 0,17,18
 1446 1304 1446 1304 1411 1183 c 0,19,20
 1400 1145 1400 1145 1358 987 c 1,21,-1
 1135 987 l 1,22,23
 1166 1096 1166 1096 1232 1314 c 1,24,25
 1285 1475 1285 1475 1387 1562 c 0,26,27
 1503 1661 1503 1661 1702 1661 c 0,28,29
 1884 1661 1884 1661 1978 1543 c 0,30,31
 2064 1436 2064 1436 2064 1249 c 0,32,33
 2064 1121 2064 1121 2023 987 c 0,34,35
 1872 495 1872 495 1496 242 c 0,36,37
 1136 0 1136 0 610 0 c 2,0,-1
1984 2012 m 1,38,39
 1984 1901 1984 1901 1899 1829 c 0,40,41
 1818 1760 1818 1760 1705 1760 c 0,42,43
 1594 1760 1594 1760 1513 1830 c 0,44,45
 1427 1903 1427 1903 1427 2012 c 1,46,-1
 1562 2012 l 1,47,48
 1562 1960 1562 1960 1609 1926 c 0,49,50
 1651 1895 1651 1895 1705 1895 c 0,51,52
 1761 1895 1761 1895 1802 1925 c 0,53,54
 1849 1958 1849 1958 1849 2012 c 1,55,-1
 1984 2012 l 1,38,39
EndSplineSet
Validated: 1
EndChar

StartChar: ibreve
Encoding: 301 301 394
Width: 1380
Flags: W
LayerCount: 2
Fore
SplineSet
1642 213 m 1,0,-1
 1520 0 l 1,1,-1
 190 0 l 2,2,3
 -18 0 -18 0 -18 172 c 0,4,5
 -18 218 -18 218 -2 272 c 2,6,-1
 188 915 l 1,7,-1
 412 915 l 1,8,-1
 217 266 l 2,9,10
 213 253 213 253 226 224 c 1,11,12
 245 212 245 212 575 209 c 0,13,14
 789 207 789 207 1211 210 c 2,15,-1
 1642 213 l 1,0,-1
634 1423 m 1,16,17
 634 1312 634 1312 549 1240 c 0,18,19
 468 1171 468 1171 355 1171 c 0,20,21
 244 1171 244 1171 163 1241 c 0,22,23
 77 1314 77 1314 77 1423 c 1,24,-1
 212 1423 l 1,25,26
 212 1371 212 1371 259 1337 c 0,27,28
 301 1306 301 1306 355 1306 c 0,29,30
 411 1306 411 1306 452 1336 c 0,31,32
 499 1369 499 1369 499 1423 c 1,33,-1
 634 1423 l 1,16,17
EndSplineSet
Validated: 33
EndChar

StartChar: Jcircumflex
Encoding: 308 308 397
Width: 2187
Flags: W
LayerCount: 2
Fore
SplineSet
1942 915 m 1,0,-1
 1815 702 l 1,1,-1
 1456 702 l 1,2,3
 1334 323 1334 323 1056 35 c 0,4,5
 736 -297 736 -297 377 -297 c 0,6,7
 255 -297 255 -297 182 -235 c 0,8,9
 104 -169 104 -169 104 -49 c 0,10,11
 104 185 104 185 314 418 c 0,12,13
 489 612 489 612 762 755 c 0,14,15
 1051 906 1051 906 1296 915 c 1,16,-1
 1350 1086 l 2,17,18
 1380 1185 1380 1185 1380 1262 c 0,19,20
 1380 1364 1380 1364 1297 1401 c 0,21,22
 1243 1425 1243 1425 1124 1425 c 2,23,-1
 0 1425 l 1,24,-1
 127 1638 l 1,25,-1
 1178 1638 l 2,26,27
 1367 1638 1367 1638 1477 1563 c 0,28,29
 1606 1475 1606 1475 1606 1294 c 0,30,31
 1606 1206 1606 1206 1577 1102 c 0,32,33
 1559 1040 1559 1040 1522 915 c 1,34,-1
 1942 915 l 1,0,-1
1233 700 m 1,35,36
 982 682 982 682 682 477 c 0,37,38
 350 250 350 250 350 20 c 0,39,40
 350 -82 350 -82 440 -82 c 0,41,42
 677 -82 677 -82 925 200 c 0,43,44
 1125 428 1125 428 1233 700 c 1,35,36
1601 1808 m 1,45,-1
 1498 1726 l 1,46,-1
 1285 1902 l 1,47,-1
 1029 1734 l 1,48,-1
 935 1816 l 1,49,-1
 1316 2135 l 1,50,-1
 1601 1808 l 1,45,-1
EndSplineSet
Validated: 1
EndChar

StartChar: jcircumflex
Encoding: 309 309 398
Width: 1999
Flags: W
LayerCount: 2
Fore
SplineSet
2265 213 m 1,0,-1
 2140 0 l 1,1,-1
 1167 0 l 2,2,3
 917 0 917 0 735 -47 c 1,4,-1
 633 -395 l 2,5,6
 608 -482 608 -482 559 -516.5 c 128,-1,7
 510 -551 510 -551 418 -551 c 2,8,-1
 -29 -551 l 1,9,10
 75 -94 75 -94 557 100 c 1,11,-1
 678 520 l 1,12,-1
 139 0 l 1,13,-1
 -156 0 l 1,14,-1
 799 915 l 1,15,-1
 1020 915 l 1,16,-1
 801 176 l 1,17,18
 983 213 983 213 1161 213 c 2,19,-1
 2265 213 l 1,0,-1
487 -141 m 1,20,21
 335 -231 335 -231 264 -360 c 1,22,-1
 362 -360 l 2,23,24
 424 -360 424 -360 454 -276 c 1,25,26
 471 -209 471 -209 487 -141 c 1,20,21
1364 1210 m 1,27,-1
 1261 1128 l 1,28,-1
 1048 1304 l 1,29,-1
 792 1136 l 1,30,-1
 698 1218 l 1,31,-1
 1079 1537 l 1,32,-1
 1364 1210 l 1,27,-1
EndSplineSet
Validated: 1
EndChar

StartChar: Lacute
Encoding: 313 313 399
Width: 2497
Flags: W
LayerCount: 2
Fore
SplineSet
2763 213 m 1,0,-1
 2638 0 l 1,1,-1
 4 0 l 1,2,-1
 131 213 l 1,3,4
 421 213 421 213 574 300 c 0,5,6
 711 378 711 378 792 561 c 0,7,8
 829 645 829 645 936 999 c 0,9,10
 1030 1311 1030 1311 1179 1467 c 0,11,12
 1362 1659 1362 1659 1657 1659 c 0,13,14
 1795 1659 1795 1659 1878 1603 c 0,15,16
 1976 1537 1976 1537 1976 1405 c 0,17,18
 1976 1315 1976 1315 1935 1193 c 0,19,20
 1911 1124 1911 1124 1864 987 c 1,21,-1
 1642 987 l 1,22,-1
 1710 1181 l 2,23,24
 1751 1302 1751 1302 1751 1380 c 0,25,26
 1751 1477 1751 1477 1610 1477 c 0,27,28
 1376 1477 1376 1477 1244 1203 c 1,29,-1
 1057 647 l 2,30,31
 943 309 943 309 774 213 c 1,32,-1
 2763 213 l 1,0,-1
1937 2011 m 1,33,-1
 1572 1743 l 1,34,-1
 1535 1878 l 1,35,-1
 1851 2202 l 1,36,-1
 1937 2011 l 1,33,-1
EndSplineSet
Validated: 1
EndChar

StartChar: lacute
Encoding: 314 314 400
Width: 1389
Flags: W
LayerCount: 2
Fore
SplineSet
1651 213 m 1,0,-1
 1528 0 l 1,1,-1
 199 0 l 2,2,3
 -12 0 -12 0 -12 172 c 0,4,5
 -12 219 -12 219 4 272 c 2,6,-1
 377 1507 l 1,7,-1
 600 1507 l 1,8,-1
 221 242 l 1,9,10
 221 213 221 213 266 213 c 2,11,-1
 1651 213 l 1,0,-1
832 1873 m 1,12,-1
 467 1605 l 1,13,-1
 430 1740 l 1,14,-1
 746 2064 l 1,15,-1
 832 1873 l 1,12,-1
EndSplineSet
Validated: 1
EndChar

StartChar: Nacute
Encoding: 323 323 403
Width: 2966
Flags: W
LayerCount: 2
Fore
SplineSet
3230 213 m 1,0,-1
 3105 0 l 1,1,-1
 1950 0 l 2,2,3
 1798 0 1798 0 1709 72 c 0,4,5
 1612 150 1612 150 1612 299 c 0,6,7
 1612 476 1612 476 1758.5 854 c 128,-1,8
 1905 1232 1905 1232 1905 1384 c 0,9,10
 1905 1442 1905 1442 1858 1442 c 0,11,12
 1726 1442 1726 1442 1618 1270 c 2,13,-1
 817 0 l 1,14,-1
 610 0 l 1,15,-1
 942 1102 l 2,16,17
 965 1178 965 1178 965 1237 c 0,18,19
 965 1425 965 1425 723 1425 c 2,20,-1
 6 1425 l 1,21,-1
 137 1638 l 1,22,-1
 778 1638 l 2,23,24
 1194 1638 1194 1638 1194 1303 c 0,25,26
 1194 1185 1194 1185 1144 1023 c 0,27,28
 1123 954 1123 954 1057 754 c 1,29,30
 1182 977 1182 977 1333 1202 c 0,31,32
 1497 1447 1497 1447 1567 1515 c 0,33,34
 1716 1661 1716 1661 1911 1661 c 0,35,36
 2130 1661 2130 1661 2130 1446 c 0,37,38
 2130 1266 2130 1266 1984.5 891.5 c 128,-1,39
 1839 517 1839 517 1839 350 c 0,40,41
 1839 213 1839 213 1999 213 c 2,42,-1
 3230 213 l 1,0,-1
2187 1991 m 1,43,-1
 1822 1723 l 1,44,-1
 1785 1858 l 1,45,-1
 2101 2182 l 1,46,-1
 2187 1991 l 1,43,-1
EndSplineSet
Validated: 1
EndChar

StartChar: nacute
Encoding: 324 324 404
Width: 1952
Flags: W
LayerCount: 2
Fore
SplineSet
2222 213 m 1,0,-1
 2095 0 l 1,1,-1
 977 0 l 2,2,3
 818 0 818 0 717 52 c 0,4,5
 586 119 586 119 586 264 c 0,6,7
 586 357 586 357 629 488 c 0,8,9
 647 544 647 544 702 702 c 1,10,-1
 414 702 l 1,11,-1
 203 0 l 1,12,-1
 -20 0 l 1,13,-1
 188 702 l 1,14,-1
 18 702 l 1,15,-1
 84 915 l 1,16,-1
 776 915 l 2,17,18
 942 915 942 915 942 797 c 0,19,20
 942 711 942 711 877.5 548 c 128,-1,21
 813 385 813 385 813 299 c 256,22,23
 813 213 813 213 969 213 c 2,24,-1
 2222 213 l 1,0,-1
799 1284 m 1,25,-1
 434 1016 l 1,26,-1
 397 1151 l 1,27,-1
 713 1475 l 1,28,-1
 799 1284 l 1,25,-1
EndSplineSet
Validated: 1
EndChar

StartChar: Ncaron
Encoding: 327 327 405
Width: 2966
Flags: W
LayerCount: 2
Fore
SplineSet
3230 213 m 1,0,-1
 3105 0 l 1,1,-1
 1950 0 l 2,2,3
 1798 0 1798 0 1709 72 c 0,4,5
 1612 150 1612 150 1612 299 c 0,6,7
 1612 476 1612 476 1758.5 854 c 128,-1,8
 1905 1232 1905 1232 1905 1384 c 0,9,10
 1905 1442 1905 1442 1858 1442 c 0,11,12
 1726 1442 1726 1442 1618 1270 c 2,13,-1
 817 0 l 1,14,-1
 610 0 l 1,15,-1
 942 1102 l 2,16,17
 965 1178 965 1178 965 1237 c 0,18,19
 965 1425 965 1425 723 1425 c 2,20,-1
 6 1425 l 1,21,-1
 137 1638 l 1,22,-1
 778 1638 l 2,23,24
 1194 1638 1194 1638 1194 1303 c 0,25,26
 1194 1185 1194 1185 1144 1023 c 0,27,28
 1123 954 1123 954 1057 754 c 1,29,30
 1182 977 1182 977 1333 1202 c 0,31,32
 1497 1447 1497 1447 1567 1515 c 0,33,34
 1716 1661 1716 1661 1911 1661 c 0,35,36
 2130 1661 2130 1661 2130 1446 c 0,37,38
 2130 1266 2130 1266 1984.5 891.5 c 128,-1,39
 1839 517 1839 517 1839 350 c 0,40,41
 1839 213 1839 213 1999 213 c 2,42,-1
 3230 213 l 1,0,-1
2321 2080 m 1,43,-1
 1942 1761 l 1,44,-1
 1656 2088 l 1,45,-1
 1758 2170 l 1,46,-1
 1973 1994 l 1,47,-1
 2227 2162 l 1,48,-1
 2321 2080 l 1,43,-1
EndSplineSet
Validated: 1
EndChar

StartChar: ncaron
Encoding: 328 328 406
Width: 1952
Flags: W
LayerCount: 2
Fore
SplineSet
2222 213 m 1,0,-1
 2095 0 l 1,1,-1
 977 0 l 2,2,3
 818 0 818 0 717 52 c 0,4,5
 586 119 586 119 586 264 c 0,6,7
 586 357 586 357 629 488 c 0,8,9
 647 544 647 544 702 702 c 1,10,-1
 414 702 l 1,11,-1
 203 0 l 1,12,-1
 -20 0 l 1,13,-1
 188 702 l 1,14,-1
 18 702 l 1,15,-1
 84 915 l 1,16,-1
 776 915 l 2,17,18
 942 915 942 915 942 797 c 0,19,20
 942 711 942 711 877.5 548 c 128,-1,21
 813 385 813 385 813 299 c 256,22,23
 813 213 813 213 969 213 c 2,24,-1
 2222 213 l 1,0,-1
996 1353 m 1,25,-1
 617 1034 l 1,26,-1
 331 1361 l 1,27,-1
 433 1443 l 1,28,-1
 648 1267 l 1,29,-1
 902 1435 l 1,30,-1
 996 1353 l 1,25,-1
EndSplineSet
Validated: 1
EndChar

StartChar: Obreve
Encoding: 334 334 408
Width: 2666
Flags: W
LayerCount: 2
Fore
SplineSet
2251 1114 m 0,0,1
 2251 841 2251 841 2093 571 c 0,2,3
 1943 313 1943 313 1709 151 c 0,4,5
 1455 -25 1455 -25 1186 -25 c 0,6,7
 933 -25 933 -25 793 119.5 c 128,-1,8
 653 264 653 264 653 518 c 0,9,10
 653 934 653 934 977 1290 c 1,11,-1
 1268 1290 l 1,12,13
 887 929 887 929 887 559 c 0,14,15
 887 392 887 392 972 297 c 0,16,17
 1060 197 1060 197 1225 197 c 0,18,19
 1527 197 1527 197 1777 497 c 0,20,21
 2017 785 2017 785 2017 1092 c 0,22,23
 2017 1257 2017 1257 1916 1344 c 0,24,25
 1821 1425 1821 1425 1653 1425 c 2,26,-1
 12 1425 l 1,27,-1
 137 1638 l 1,28,-1
 1675 1638 l 2,29,30
 1941 1638 1941 1638 2090 1511 c 0,31,32
 2251 1375 2251 1375 2251 1114 c 0,0,1
1847 1958 m 1,33,34
 1847 1847 1847 1847 1762 1775 c 0,35,36
 1681 1706 1681 1706 1568 1706 c 0,37,38
 1457 1706 1457 1706 1376 1776 c 0,39,40
 1290 1849 1290 1849 1290 1958 c 1,41,-1
 1425 1958 l 1,42,43
 1425 1906 1425 1906 1472 1872 c 0,44,45
 1514 1841 1514 1841 1568 1841 c 0,46,47
 1624 1841 1624 1841 1665 1871 c 0,48,49
 1712 1904 1712 1904 1712 1958 c 1,50,-1
 1847 1958 l 1,33,34
EndSplineSet
Validated: 1
EndChar

StartChar: obreve
Encoding: 335 335 409
Width: 2093
Flags: W
LayerCount: 2
Fore
SplineSet
2361 213 m 1,0,-1
 2232 0 l 1,1,-1
 446 0 l 2,2,3
 289 0 289 0 204 92 c 0,4,5
 121 181 121 181 121 340 c 0,6,7
 121 461 121 461 168 602 c 1,8,-1
 393 602 l 1,9,10
 332 459 332 459 332 360 c 0,11,12
 332 201 332 201 463 201 c 0,13,14
 615 201 615 201 726 381 c 0,15,16
 823 538 823 538 827 702 c 1,17,-1
 -29 702 l 1,18,-1
 80 915 l 1,19,-1
 868 915 l 2,20,21
 970 915 970 915 1013 878 c 0,22,23
 1059 838 1059 838 1059 739 c 0,24,25
 1059 623 1059 623 996 457 c 0,26,27
 929 281 929 281 848 213 c 1,28,-1
 2361 213 l 1,0,-1
905 1285 m 1,29,30
 905 1174 905 1174 820 1102 c 0,31,32
 739 1033 739 1033 626 1033 c 0,33,34
 515 1033 515 1033 434 1103 c 0,35,36
 348 1176 348 1176 348 1285 c 1,37,-1
 483 1285 l 1,38,39
 483 1233 483 1233 530 1199 c 0,40,41
 572 1168 572 1168 626 1168 c 0,42,43
 682 1168 682 1168 723 1198 c 0,44,45
 770 1231 770 1231 770 1285 c 1,46,-1
 905 1285 l 1,29,30
EndSplineSet
Validated: 1
EndChar

StartChar: Ohungarumlaut
Encoding: 336 336 410
Width: 2666
Flags: W
LayerCount: 2
Fore
SplineSet
2251 1114 m 0,0,1
 2251 841 2251 841 2093 571 c 0,2,3
 1943 313 1943 313 1709 151 c 0,4,5
 1455 -25 1455 -25 1186 -25 c 0,6,7
 933 -25 933 -25 793 119.5 c 128,-1,8
 653 264 653 264 653 518 c 0,9,10
 653 934 653 934 977 1290 c 1,11,-1
 1268 1290 l 1,12,13
 887 929 887 929 887 559 c 0,14,15
 887 392 887 392 972 297 c 0,16,17
 1060 197 1060 197 1225 197 c 0,18,19
 1527 197 1527 197 1777 497 c 0,20,21
 2017 785 2017 785 2017 1092 c 0,22,23
 2017 1257 2017 1257 1916 1344 c 0,24,25
 1821 1425 1821 1425 1653 1425 c 2,26,-1
 12 1425 l 1,27,-1
 137 1638 l 1,28,-1
 1675 1638 l 2,29,30
 1941 1638 1941 1638 2090 1511 c 0,31,32
 2251 1375 2251 1375 2251 1114 c 0,0,1
2118 2041 m 1,33,-1
 1753 1773 l 1,34,-1
 1717 1908 l 1,35,-1
 2034 2232 l 1,36,-1
 2118 2041 l 1,33,-1
1737 2041 m 1,37,-1
 1372 1773 l 1,38,-1
 1336 1908 l 1,39,-1
 1651 2232 l 1,40,-1
 1737 2041 l 1,37,-1
EndSplineSet
Validated: 1
EndChar

StartChar: ohungarumlaut
Encoding: 337 337 411
Width: 2093
Flags: W
LayerCount: 2
Fore
SplineSet
2251 1114 m 0,0,1
 2251 841 2251 841 2093 571 c 0,2,3
 1943 313 1943 313 1709 151 c 0,4,5
 1455 -25 1455 -25 1186 -25 c 0,6,7
 933 -25 933 -25 793 119.5 c 128,-1,8
 653 264 653 264 653 518 c 0,9,10
 653 934 653 934 977 1290 c 1,11,-1
 1268 1290 l 1,12,13
 887 929 887 929 887 559 c 0,14,15
 887 392 887 392 972 297 c 0,16,17
 1060 197 1060 197 1225 197 c 0,18,19
 1527 197 1527 197 1777 497 c 0,20,21
 2017 785 2017 785 2017 1092 c 0,22,23
 2017 1257 2017 1257 1916 1344 c 0,24,25
 1821 1425 1821 1425 1653 1425 c 2,26,-1
 12 1425 l 1,27,-1
 137 1638 l 1,28,-1
 1675 1638 l 2,29,30
 1941 1638 1941 1638 2090 1511 c 0,31,32
 2251 1375 2251 1375 2251 1114 c 0,0,1
2097 2053 m 1,33,-1
 1732 1785 l 1,34,-1
 1696 1920 l 1,35,-1
 2013 2244 l 1,36,-1
 2097 2053 l 1,33,-1
1716 2053 m 1,37,-1
 1351 1785 l 1,38,-1
 1315 1920 l 1,39,-1
 1630 2244 l 1,40,-1
 1716 2053 l 1,37,-1
EndSplineSet
Validated: 1
EndChar

StartChar: Racute
Encoding: 340 340 412
Width: 2845
Flags: W
LayerCount: 2
Fore
SplineSet
3109 213 m 1,0,-1
 2984 0 l 1,1,-1
 1669 0 l 2,2,3
 1579 0 1579 0 1515 43 c 0,4,5
 1442 92 1442 92 1442 178 c 0,6,7
 1442 229 1442 229 1465 300 c 2,8,9
 1465 300 1465 300 1505 418 c 1,10,11
 1477 418 1477 418 1422 414.5 c 128,-1,12
 1367 411 1367 411 1339 411 c 0,13,14
 1081 411 1081 411 1081 559 c 0,15,16
 1081 664 1081 664 1294 784 c 1,17,18
 1427 854 1427 854 1690 1001 c 1,19,20
 1903 1126 1903 1126 1903 1257 c 0,21,22
 1903 1366 1903 1366 1819 1402 c 0,23,24
 1766 1425 1766 1425 1638 1425 c 2,25,-1
 8 1425 l 1,26,-1
 135 1638 l 1,27,-1
 1663 1638 l 2,28,29
 2130 1638 2130 1638 2130 1284 c 0,30,31
 2130 1124 2130 1124 1998 983 c 0,32,33
 1892 870 1892 870 1706 767 c 0,34,35
 1609 716 1609 716 1415 612 c 1,36,37
 1435 612 1435 612 1476 614 c 128,-1,38
 1517 616 1517 616 1537 616 c 0,39,40
 1737 616 1737 616 1737 477 c 0,41,42
 1737 429 1737 429 1716 366 c 0,43,44
 1678 252 1678 252 1678 249 c 0,45,46
 1678 213 1678 213 1722 213 c 2,47,-1
 3109 213 l 1,0,-1
1192 1290 m 1,48,-1
 807 0 l 1,49,-1
 584 0 l 1,50,-1
 967 1290 l 1,51,-1
 1192 1290 l 1,48,-1
1905 2004 m 1,52,-1
 1540 1736 l 1,53,-1
 1503 1871 l 1,54,-1
 1819 2195 l 1,55,-1
 1905 2004 l 1,52,-1
EndSplineSet
Validated: 1
EndChar

StartChar: racute
Encoding: 341 341 413
Width: 2091
Flags: W
LayerCount: 2
Fore
SplineSet
2355 213 m 1,0,-1
 2226 0 l 1,1,-1
 985 0 l 2,2,3
 825 0 825 0 725 65 c 0,4,5
 606 141 606 141 606 293 c 0,6,7
 606 381 606 381 643 502 c 2,8,9
 643 502 643 502 707 702 c 1,10,-1
 440 702 l 1,11,-1
 276 150 l 2,12,13
 244 42 244 42 179 15 c 0,14,15
 143 0 143 0 6 0 c 1,16,-1
 313 1030 l 1,17,-1
 551 1081 l 1,18,-1
 502 915 l 1,19,-1
 1151 915 l 1,20,-1
 1083 702 l 1,21,22
 930 702 930 702 901 604 c 0,23,24
 886 558 886 558 857 467 c 0,25,26
 831 384 831 384 831 324 c 0,27,28
 831 213 831 213 977 213 c 2,29,-1
 2355 213 l 1,0,-1
1165 1298 m 1,30,-1
 800 1030 l 1,31,-1
 763 1165 l 1,32,-1
 1079 1489 l 1,33,-1
 1165 1298 l 1,30,-1
EndSplineSet
Validated: 1
EndChar

StartChar: Rcaron
Encoding: 344 344 414
Width: 2845
Flags: W
LayerCount: 2
Fore
SplineSet
3109 213 m 1,0,-1
 2984 0 l 1,1,-1
 1669 0 l 2,2,3
 1579 0 1579 0 1515 43 c 0,4,5
 1442 92 1442 92 1442 178 c 0,6,7
 1442 229 1442 229 1465 300 c 2,8,9
 1465 300 1465 300 1505 418 c 1,10,11
 1477 418 1477 418 1422 414.5 c 128,-1,12
 1367 411 1367 411 1339 411 c 0,13,14
 1081 411 1081 411 1081 559 c 0,15,16
 1081 664 1081 664 1294 784 c 1,17,18
 1427 854 1427 854 1690 1001 c 1,19,20
 1903 1126 1903 1126 1903 1257 c 0,21,22
 1903 1366 1903 1366 1819 1402 c 0,23,24
 1766 1425 1766 1425 1638 1425 c 2,25,-1
 8 1425 l 1,26,-1
 135 1638 l 1,27,-1
 1663 1638 l 2,28,29
 2130 1638 2130 1638 2130 1284 c 0,30,31
 2130 1124 2130 1124 1998 983 c 0,32,33
 1892 870 1892 870 1706 767 c 0,34,35
 1609 716 1609 716 1415 612 c 1,36,37
 1435 612 1435 612 1476 614 c 128,-1,38
 1517 616 1517 616 1537 616 c 0,39,40
 1737 616 1737 616 1737 477 c 0,41,42
 1737 429 1737 429 1716 366 c 0,43,44
 1678 252 1678 252 1678 249 c 0,45,46
 1678 213 1678 213 1722 213 c 2,47,-1
 3109 213 l 1,0,-1
1192 1290 m 1,48,-1
 807 0 l 1,49,-1
 584 0 l 1,50,-1
 967 1290 l 1,51,-1
 1192 1290 l 1,48,-1
1972 2050 m 1,52,-1
 1593 1731 l 1,53,-1
 1307 2058 l 1,54,-1
 1409 2140 l 1,55,-1
 1624 1964 l 1,56,-1
 1878 2132 l 1,57,-1
 1972 2050 l 1,52,-1
EndSplineSet
Validated: 1
EndChar

StartChar: rcaron
Encoding: 345 345 415
Width: 2091
Flags: W
LayerCount: 2
Fore
SplineSet
2355 213 m 1,0,-1
 2226 0 l 1,1,-1
 985 0 l 2,2,3
 825 0 825 0 725 65 c 0,4,5
 606 141 606 141 606 293 c 0,6,7
 606 381 606 381 643 502 c 2,8,9
 643 502 643 502 707 702 c 1,10,-1
 440 702 l 1,11,-1
 276 150 l 2,12,13
 244 42 244 42 179 15 c 0,14,15
 143 0 143 0 6 0 c 1,16,-1
 313 1030 l 1,17,-1
 551 1081 l 1,18,-1
 502 915 l 1,19,-1
 1151 915 l 1,20,-1
 1083 702 l 1,21,22
 930 702 930 702 901 604 c 0,23,24
 886 558 886 558 857 467 c 0,25,26
 831 384 831 384 831 324 c 0,27,28
 831 213 831 213 977 213 c 2,29,-1
 2355 213 l 1,0,-1
1229 1353 m 1,30,-1
 850 1034 l 1,31,-1
 564 1361 l 1,32,-1
 666 1443 l 1,33,-1
 881 1267 l 1,34,-1
 1135 1435 l 1,35,-1
 1229 1353 l 1,30,-1
EndSplineSet
Validated: 1
EndChar

StartChar: Sacute
Encoding: 346 346 416
Width: 2540
Flags: W
LayerCount: 2
Fore
SplineSet
2312 987 m 1,0,-1
 2089 987 l 1,1,2
 2212 1395 2212 1395 2212 1407 c 0,3,4
 2212 1446 2212 1446 2163 1446 c 0,5,6
 2060 1446 2060 1446 1808 1356 c 0,7,8
 1543 1261 1543 1261 1351 1146 c 0,9,10
 1124 1010 1124 1010 1124 909 c 0,11,12
 1124 826 1124 826 1264 719 c 0,13,14
 1352 656 1352 656 1525 524 c 1,15,16
 1665 410 1665 410 1665 291 c 0,17,18
 1665 150 1665 150 1514 68 c 0,19,20
 1389 0 1389 0 1235 0 c 2,21,-1
 0 0 l 1,22,-1
 127 213 l 1,23,-1
 1290 213 l 2,24,25
 1421 213 1421 213 1421 279 c 0,26,27
 1421 323 1421 323 1280 423 c 0,28,29
 1078 566 1078 566 1018 624 c 0,30,31
 877 759 877 759 877 891 c 0,32,33
 877 1076 877 1076 1154 1269 c 0,34,35
 1387 1432 1387 1432 1731 1551 c 0,36,37
 2048 1661 2048 1661 2228 1661 c 0,38,39
 2458 1661 2458 1661 2458 1501 c 0,40,41
 2458 1418 2458 1418 2400 1244 c 0,42,43
 2371 1159 2371 1159 2312 987 c 1,0,-1
2226 1984 m 1,44,-1
 1861 1716 l 1,45,-1
 1824 1851 l 1,46,-1
 2140 2175 l 1,47,-1
 2226 1984 l 1,44,-1
EndSplineSet
Validated: 1
EndChar

StartChar: sacute
Encoding: 347 347 417
Width: 2089
Flags: W
LayerCount: 2
Fore
SplineSet
2349 213 m 1,0,-1
 2224 0 l 1,1,-1
 453 0 l 1,2,-1
 543 213 l 1,3,4
 675 213 675 213 719 227 c 0,5,6
 809 256 809 256 809 358 c 0,7,8
 809 414 809 414 760 514 c 0,9,10
 706 624 706 624 698 670 c 1,11,-1
 315 127 l 2,12,13
 258 46 258 46 203 20 c 0,14,15
 158 -1 158 -1 75 -1 c 0,16,17
 23 -1 23 -1 23 -1 c 1,18,-1
 -37 0 l 1,19,-1
 698 1028 l 1,20,-1
 961 1028 l 1,21,22
 864 910 864 910 864 827 c 0,23,24
 864 781 864 781 944 622 c 128,-1,25
 1024 463 1024 463 1024 385 c 0,26,27
 1024 283 1024 283 971 213 c 1,28,-1
 2349 213 l 1,0,-1
1237 1428 m 1,29,-1
 872 1160 l 1,30,-1
 835 1295 l 1,31,-1
 1151 1619 l 1,32,-1
 1237 1428 l 1,29,-1
EndSplineSet
Validated: 1
EndChar

StartChar: Scircumflex
Encoding: 348 348 418
Width: 2540
Flags: W
LayerCount: 2
Fore
SplineSet
2312 987 m 1,0,-1
 2089 987 l 1,1,2
 2212 1395 2212 1395 2212 1407 c 0,3,4
 2212 1446 2212 1446 2163 1446 c 0,5,6
 2060 1446 2060 1446 1808 1356 c 0,7,8
 1543 1261 1543 1261 1351 1146 c 0,9,10
 1124 1010 1124 1010 1124 909 c 0,11,12
 1124 826 1124 826 1264 719 c 0,13,14
 1352 656 1352 656 1525 524 c 1,15,16
 1665 410 1665 410 1665 291 c 0,17,18
 1665 150 1665 150 1514 68 c 0,19,20
 1389 0 1389 0 1235 0 c 2,21,-1
 0 0 l 1,22,-1
 127 213 l 1,23,-1
 1290 213 l 2,24,25
 1421 213 1421 213 1421 279 c 0,26,27
 1421 323 1421 323 1280 423 c 0,28,29
 1078 566 1078 566 1018 624 c 0,30,31
 877 759 877 759 877 891 c 0,32,33
 877 1076 877 1076 1154 1269 c 0,34,35
 1387 1432 1387 1432 1731 1551 c 0,36,37
 2048 1661 2048 1661 2228 1661 c 0,38,39
 2458 1661 2458 1661 2458 1501 c 0,40,41
 2458 1418 2458 1418 2400 1244 c 0,42,43
 2371 1159 2371 1159 2312 987 c 1,0,-1
2333 1846 m 1,44,-1
 2230 1764 l 1,45,-1
 2017 1940 l 1,46,-1
 1761 1772 l 1,47,-1
 1667 1854 l 1,48,-1
 2048 2173 l 1,49,-1
 2333 1846 l 1,44,-1
EndSplineSet
Validated: 1
EndChar

StartChar: scircumflex
Encoding: 349 349 419
Width: 2089
Flags: W
LayerCount: 2
Fore
SplineSet
2349 213 m 1,0,-1
 2224 0 l 1,1,-1
 453 0 l 1,2,-1
 543 213 l 1,3,4
 675 213 675 213 719 227 c 0,5,6
 809 256 809 256 809 358 c 0,7,8
 809 414 809 414 760 514 c 0,9,10
 706 624 706 624 698 670 c 1,11,-1
 315 127 l 2,12,13
 258 46 258 46 203 20 c 0,14,15
 158 -1 158 -1 75 -1 c 0,16,17
 23 -1 23 -1 23 -1 c 1,18,-1
 -37 0 l 1,19,-1
 698 1028 l 1,20,-1
 961 1028 l 1,21,22
 864 910 864 910 864 827 c 0,23,24
 864 781 864 781 944 622 c 128,-1,25
 1024 463 1024 463 1024 385 c 0,26,27
 1024 283 1024 283 971 213 c 1,28,-1
 2349 213 l 1,0,-1
1182 1182 m 1,29,-1
 1079 1100 l 1,30,-1
 866 1276 l 1,31,-1
 610 1108 l 1,32,-1
 516 1190 l 1,33,-1
 897 1509 l 1,34,-1
 1182 1182 l 1,29,-1
EndSplineSet
Validated: 1
EndChar

StartChar: uni0162
Encoding: 354 354 420
Width: 2449
Flags: W
LayerCount: 2
Fore
SplineSet
2122 1638 m 1,0,1
 2035 1331 2035 1331 1846 722 c 1,2,3
 1720 348 1720 348 1449 179 c 0,4,5
 1167.58903485 3.48584403836 1167.58903485 3.48584403836 595.825829743 0.0678832886021 c 1,6,-1
 537 -76 l 1,7,8
 631 -137 631 -137 631 -246 c 0,9,10
 631 -329 631 -329 569 -381 c 0,11,12
 511 -430 511 -430 426 -430 c 2,13,-1
 199 -430 l 1,14,-1
 246 -309 l 1,15,16
 267 -309 267 -309 308.5 -312.5 c 128,-1,17
 350 -316 350 -316 371 -316 c 0,18,19
 504 -316 504 -316 504 -233 c 0,20,21
 504 -175 504 -175 430 -164 c 1,22,-1
 371 -94 l 1,23,-1
 442.05952381 0 l 1,24,-1
 0 0 l 1,25,-1
 131 213 l 1,26,27
 195 213 195 213 322 210.5 c 128,-1,28
 449 208 449 208 513 208 c 0,29,30
 940 208 940 208 1180 291 c 0,31,32
 1524 410 1524 410 1616 715 c 2,33,-1
 1831 1425 l 1,34,-1
 1038 1425 l 2,35,36
 944 1425 944 1425 904 1407 c 0,37,38
 842 1379 842 1379 842 1298 c 0,39,40
 842 1227 842 1227 895 987 c 1,41,-1
 674 987 l 1,42,43
 660 1047 660 1047 633 1167 c 0,44,45
 610 1272 610 1272 610 1350 c 0,46,47
 610 1638 610 1638 1051 1638 c 2,48,-1
 2122 1638 l 1,0,1
EndSplineSet
Validated: 1
EndChar

StartChar: uni0163
Encoding: 355 355 421
Width: 1698
Flags: W
LayerCount: 2
Fore
SplineSet
1962 213 m 1,0,-1
 1835 0 l 1,1,-1
 485 0 l 2,2,3
 398 0 398 0 331.94779782 22.3290489047 c 1,4,-1
 259 -72 l 1,5,6
 353 -133 353 -133 353 -238.951967584 c 0,7,8
 353 -325 353 -325 290.226098942 -377.834700057 c 0,9,10
 233 -426 233 -426 148 -426 c 2,11,-1
 -79 -426 l 1,12,-1
 -32 -305 l 1,13,14
 -11 -305 -11 -305 30.5 -308.5 c 128,-1,15
 72 -312 72 -312 98.2362933906 -312 c 0,16,17
 226 -312 226 -312 226 -231.934044014 c 0,18,19
 226 -171 226 -171 152 -160 c 1,20,-1
 93 -90 l 1,21,-1
 220 78 l 1,22,-1
 208 88 l 5,23,24
 166 125 166 125 166 252.929551721 c 0,25,26
 166 344 166 344 224.015021384 512.404714852 c 0,27,28
 238 553 238 553 291 702 c 1,29,-1
 63 702 l 1,30,-1
 129 915 l 1,31,-1
 354 915 l 1,32,-1
 463 1284 l 1,33,-1
 702 1343 l 1,34,-1
 575 915 l 1,35,-1
 799 915 l 1,36,-1
 733 702 l 1,37,-1
 512 702 l 1,38,-1
 436 483 l 2,39,40
 385 336 385 336 385 281.358491033 c 0,41,42
 385 213 385 213 471 213 c 2,43,-1
 1962 213 l 1,0,-1
EndSplineSet
Validated: 1
EndChar

StartChar: Tcaron
Encoding: 356 356 422
Width: 2449
Flags: W
LayerCount: 2
Fore
SplineSet
2122 1638 m 1,0,1
 2035 1331 2035 1331 1846 722 c 1,2,3
 1720 348 1720 348 1449 179 c 0,4,5
 1162 0 1162 0 573 0 c 2,6,-1
 0 0 l 1,7,-1
 131 213 l 1,8,9
 195 213 195 213 322 210.5 c 128,-1,10
 449 208 449 208 513 208 c 0,11,12
 940 208 940 208 1180 291 c 0,13,14
 1524 410 1524 410 1616 715 c 2,15,-1
 1831 1425 l 1,16,-1
 1038 1425 l 2,17,18
 944 1425 944 1425 904 1407 c 0,19,20
 842 1379 842 1379 842 1298 c 0,21,22
 842 1227 842 1227 895 987 c 1,23,-1
 674 987 l 1,24,25
 660 1047 660 1047 633 1167 c 0,26,27
 610 1272 610 1272 610 1350 c 0,28,29
 610 1638 610 1638 1051 1638 c 2,30,-1
 2122 1638 l 1,0,1
1910 2054 m 1,31,-1
 1531 1735 l 1,32,-1
 1245 2062 l 1,33,-1
 1347 2144 l 1,34,-1
 1562 1968 l 1,35,-1
 1816 2136 l 1,36,-1
 1910 2054 l 1,31,-1
EndSplineSet
Validated: 1
EndChar

StartChar: Utilde
Encoding: 360 360 423
Width: 2943
Flags: W
LayerCount: 2
Fore
SplineSet
3217 213 m 1,0,-1
 3092 0 l 1,1,-1
 2087 0 l 2,2,3
 1606 0 1606 0 1606 360 c 0,4,5
 1606 487 1606 487 1659 653 c 0,6,7
 1665 672 1665 672 1753 934 c 1,8,-1
 1343 270 l 2,9,10
 1165 -18 1165 -18 899 -18 c 0,11,12
 792 -18 792 -18 731 44 c 128,-1,13
 670 106 670 106 670 213 c 0,14,15
 670 374 670 374 819.5 764.5 c 128,-1,16
 969 1155 969 1155 969 1300 c 0,17,18
 969 1425 969 1425 815 1425 c 2,19,-1
 6 1425 l 1,20,-1
 131 1638 l 1,21,-1
 858 1638 l 2,22,23
 1011 1638 1011 1638 1099 1570 c 0,24,25
 1198 1494 1198 1494 1198 1346 c 0,26,27
 1198 1169 1198 1169 1049.5 787 c 128,-1,28
 901 405 901 405 901 252 c 0,29,30
 901 199 901 199 954 199 c 0,31,32
 1009 199 1009 199 1079 261 c 0,33,34
 1137 312 1137 312 1174 371 c 2,35,-1
 1968 1638 l 1,36,-1
 2185 1638 l 1,37,-1
 1853 539 l 2,38,39
 1825 446 1825 446 1825 383 c 0,40,41
 1825 213 1825 213 2046 213 c 2,42,-1
 3217 213 l 1,0,-1
1959 1851 m 1,43,-1
 1746 1681 l 1,44,-1
 1709 1681 l 1,45,-1
 1355 1783 l 1,46,-1
 1189 1695 l 1,47,-1
 1157 1769 l 1,48,-1
 1367 1939 l 1,49,-1
 1406 1939 l 1,50,-1
 1761 1837 l 1,51,-1
 1925 1925 l 1,52,-1
 1959 1851 l 1,43,-1
EndSplineSet
Validated: 1
EndChar

StartChar: utilde
Encoding: 361 361 424
Width: 2062
Flags: W
LayerCount: 2
Fore
SplineSet
2322 213 m 1,0,-1
 2195 0 l 1,1,-1
 946 0 l 2,2,3
 664 0 664 0 664 197 c 0,4,5
 664 230 664 230 702 362 c 1,6,7
 375 0 375 0 164 0 c 0,8,9
 -4 0 -4 0 -4 166 c 0,10,11
 -4 224 -4 224 16 291 c 2,12,-1
 201 915 l 1,13,-1
 424 915 l 1,14,-1
 310 565 l 2,15,16
 229 315 229 315 221 225 c 1,17,-1
 238 213 l 1,18,19
 325 213 325 213 579 516 c 0,20,21
 788 766 788 766 877 915 c 1,22,-1
 1085 915 l 1,23,-1
 974 576 l 2,24,25
 902 357 902 357 885 240 c 1,26,-1
 896 219 l 1,27,28
 915 213 915 213 2322 213 c 1,0,-1
1087 1237 m 1,29,-1
 874 1067 l 1,30,-1
 837 1067 l 1,31,-1
 483 1169 l 1,32,-1
 317 1081 l 1,33,-1
 285 1155 l 1,34,-1
 495 1325 l 1,35,-1
 534 1325 l 1,36,-1
 889 1223 l 1,37,-1
 1053 1311 l 1,38,-1
 1087 1237 l 1,29,-1
EndSplineSet
Validated: 1
EndChar

StartChar: Ubreve
Encoding: 364 364 425
Width: 2943
Flags: W
LayerCount: 2
Fore
SplineSet
3217 213 m 1,0,-1
 3092 0 l 1,1,-1
 2087 0 l 2,2,3
 1606 0 1606 0 1606 360 c 0,4,5
 1606 487 1606 487 1659 653 c 0,6,7
 1665 672 1665 672 1753 934 c 1,8,-1
 1343 270 l 2,9,10
 1165 -18 1165 -18 899 -18 c 0,11,12
 792 -18 792 -18 731 44 c 128,-1,13
 670 106 670 106 670 213 c 0,14,15
 670 374 670 374 819.5 764.5 c 128,-1,16
 969 1155 969 1155 969 1300 c 0,17,18
 969 1425 969 1425 815 1425 c 2,19,-1
 6 1425 l 1,20,-1
 131 1638 l 1,21,-1
 858 1638 l 2,22,23
 1011 1638 1011 1638 1099 1570 c 0,24,25
 1198 1494 1198 1494 1198 1346 c 0,26,27
 1198 1169 1198 1169 1049.5 787 c 128,-1,28
 901 405 901 405 901 252 c 0,29,30
 901 199 901 199 954 199 c 0,31,32
 1009 199 1009 199 1079 261 c 0,33,34
 1137 312 1137 312 1174 371 c 2,35,-1
 1968 1638 l 1,36,-1
 2185 1638 l 1,37,-1
 1853 539 l 2,38,39
 1825 446 1825 446 1825 383 c 0,40,41
 1825 213 1825 213 2046 213 c 2,42,-1
 3217 213 l 1,0,-1
1831 1938 m 1,43,44
 1831 1827 1831 1827 1746 1755 c 0,45,46
 1665 1686 1665 1686 1552 1686 c 0,47,48
 1441 1686 1441 1686 1360 1756 c 0,49,50
 1274 1829 1274 1829 1274 1938 c 1,51,-1
 1409 1938 l 1,52,53
 1409 1886 1409 1886 1456 1852 c 0,54,55
 1498 1821 1498 1821 1552 1821 c 0,56,57
 1608 1821 1608 1821 1649 1851 c 0,58,59
 1696 1884 1696 1884 1696 1938 c 1,60,-1
 1831 1938 l 1,43,44
EndSplineSet
Validated: 1
EndChar

StartChar: ubreve
Encoding: 365 365 426
Width: 2062
Flags: W
LayerCount: 2
Fore
SplineSet
2322 213 m 1,0,-1
 2195 0 l 1,1,-1
 946 0 l 2,2,3
 664 0 664 0 664 197 c 0,4,5
 664 230 664 230 702 362 c 1,6,7
 375 0 375 0 164 0 c 0,8,9
 -4 0 -4 0 -4 166 c 0,10,11
 -4 224 -4 224 16 291 c 2,12,-1
 201 915 l 1,13,-1
 424 915 l 1,14,-1
 310 565 l 2,15,16
 229 315 229 315 221 225 c 1,17,-1
 238 213 l 1,18,19
 325 213 325 213 579 516 c 0,20,21
 788 766 788 766 877 915 c 1,22,-1
 1085 915 l 1,23,-1
 974 576 l 2,24,25
 902 357 902 357 885 240 c 1,26,-1
 896 219 l 1,27,28
 915 213 915 213 2322 213 c 1,0,-1
938 1286 m 1,29,30
 938 1175 938 1175 853 1103 c 0,31,32
 772 1034 772 1034 659 1034 c 0,33,34
 548 1034 548 1034 467 1104 c 0,35,36
 381 1177 381 1177 381 1286 c 1,37,-1
 516 1286 l 1,38,39
 516 1234 516 1234 563 1200 c 0,40,41
 605 1169 605 1169 659 1169 c 0,42,43
 715 1169 715 1169 756 1199 c 0,44,45
 803 1232 803 1232 803 1286 c 1,46,-1
 938 1286 l 1,29,30
EndSplineSet
Validated: 1
EndChar

StartChar: Uring
Encoding: 366 366 427
Width: 2943
Flags: W
LayerCount: 2
Fore
SplineSet
3217 213 m 1,0,-1
 3092 0 l 1,1,-1
 2087 0 l 2,2,3
 1606 0 1606 0 1606 360 c 0,4,5
 1606 487 1606 487 1659 653 c 0,6,7
 1665 672 1665 672 1753 934 c 1,8,-1
 1343 270 l 2,9,10
 1165 -18 1165 -18 899 -18 c 0,11,12
 792 -18 792 -18 731 44 c 128,-1,13
 670 106 670 106 670 213 c 0,14,15
 670 374 670 374 819.5 764.5 c 128,-1,16
 969 1155 969 1155 969 1300 c 0,17,18
 969 1425 969 1425 815 1425 c 2,19,-1
 6 1425 l 1,20,-1
 131 1638 l 1,21,-1
 858 1638 l 2,22,23
 1011 1638 1011 1638 1099 1570 c 0,24,25
 1198 1494 1198 1494 1198 1346 c 0,26,27
 1198 1169 1198 1169 1049.5 787 c 128,-1,28
 901 405 901 405 901 252 c 0,29,30
 901 199 901 199 954 199 c 0,31,32
 1009 199 1009 199 1079 261 c 0,33,34
 1137 312 1137 312 1174 371 c 2,35,-1
 1968 1638 l 1,36,-1
 2185 1638 l 1,37,-1
 1853 539 l 2,38,39
 1825 446 1825 446 1825 383 c 0,40,41
 1825 213 1825 213 2046 213 c 2,42,-1
 3217 213 l 1,0,-1
1759 1867 m 0,43,44
 1759 1788 1759 1788 1704.5 1733.5 c 128,-1,45
 1650 1679 1650 1679 1570 1679 c 0,46,47
 1492 1679 1492 1679 1436 1734.5 c 128,-1,48
 1380 1790 1380 1790 1380 1867 c 0,49,50
 1380 1945 1380 1945 1436 2001.5 c 128,-1,51
 1492 2058 1492 2058 1570 2058 c 0,52,53
 1649 2058 1649 2058 1704 2002.5 c 128,-1,54
 1759 1947 1759 1947 1759 1867 c 0,43,44
1668 1867 m 0,55,56
 1668 1908 1668 1908 1639.5 1937.5 c 128,-1,57
 1611 1967 1611 1967 1570 1967 c 256,58,59
 1529 1967 1529 1967 1499.5 1937.5 c 128,-1,60
 1470 1908 1470 1908 1470 1867 c 0,61,62
 1470 1827 1470 1827 1500 1798 c 128,-1,63
 1530 1769 1530 1769 1570 1769 c 256,64,65
 1610 1769 1610 1769 1639 1798 c 128,-1,66
 1668 1827 1668 1827 1668 1867 c 0,55,56
EndSplineSet
Validated: 1
EndChar

StartChar: uring
Encoding: 367 367 428
Width: 2062
Flags: W
LayerCount: 2
Fore
SplineSet
2322 213 m 1,0,-1
 2195 0 l 1,1,-1
 946 0 l 2,2,3
 664 0 664 0 664 197 c 0,4,5
 664 230 664 230 702 362 c 1,6,7
 375 0 375 0 164 0 c 0,8,9
 -4 0 -4 0 -4 166 c 0,10,11
 -4 224 -4 224 16 291 c 2,12,-1
 201 915 l 1,13,-1
 424 915 l 1,14,-1
 310 565 l 2,15,16
 229 315 229 315 221 225 c 1,17,-1
 238 213 l 1,18,19
 325 213 325 213 579 516 c 0,20,21
 788 766 788 766 877 915 c 1,22,-1
 1085 915 l 1,23,-1
 974 576 l 2,24,25
 902 357 902 357 885 240 c 1,26,-1
 896 219 l 1,27,28
 915 213 915 213 2322 213 c 1,0,-1
891 1239 m 0,29,30
 891 1160 891 1160 836.5 1105.5 c 128,-1,31
 782 1051 782 1051 702 1051 c 0,32,33
 624 1051 624 1051 568 1106.5 c 128,-1,34
 512 1162 512 1162 512 1239 c 0,35,36
 512 1317 512 1317 568 1373.5 c 128,-1,37
 624 1430 624 1430 702 1430 c 0,38,39
 781 1430 781 1430 836 1374.5 c 128,-1,40
 891 1319 891 1319 891 1239 c 0,29,30
800 1239 m 0,41,42
 800 1280 800 1280 771.5 1309.5 c 128,-1,43
 743 1339 743 1339 702 1339 c 256,44,45
 661 1339 661 1339 631.5 1309.5 c 128,-1,46
 602 1280 602 1280 602 1239 c 0,47,48
 602 1199 602 1199 632 1170 c 128,-1,49
 662 1141 662 1141 702 1141 c 256,50,51
 742 1141 742 1141 771 1170 c 128,-1,52
 800 1199 800 1199 800 1239 c 0,41,42
EndSplineSet
Validated: 1
EndChar

StartChar: Uhungarumlaut
Encoding: 368 368 429
Width: 2943
Flags: W
LayerCount: 2
Fore
SplineSet
3217 213 m 1,0,-1
 3092 0 l 1,1,-1
 2087 0 l 2,2,3
 1606 0 1606 0 1606 360 c 0,4,5
 1606 487 1606 487 1659 653 c 0,6,7
 1665 672 1665 672 1753 934 c 1,8,-1
 1343 270 l 2,9,10
 1165 -18 1165 -18 899 -18 c 0,11,12
 792 -18 792 -18 731 44 c 128,-1,13
 670 106 670 106 670 213 c 0,14,15
 670 374 670 374 819.5 764.5 c 128,-1,16
 969 1155 969 1155 969 1300 c 0,17,18
 969 1425 969 1425 815 1425 c 2,19,-1
 6 1425 l 1,20,-1
 131 1638 l 1,21,-1
 858 1638 l 2,22,23
 1011 1638 1011 1638 1099 1570 c 0,24,25
 1198 1494 1198 1494 1198 1346 c 0,26,27
 1198 1169 1198 1169 1049.5 787 c 128,-1,28
 901 405 901 405 901 252 c 0,29,30
 901 199 901 199 954 199 c 0,31,32
 1009 199 1009 199 1079 261 c 0,33,34
 1137 312 1137 312 1174 371 c 2,35,-1
 1968 1638 l 1,36,-1
 2185 1638 l 1,37,-1
 1853 539 l 2,38,39
 1825 446 1825 446 1825 383 c 0,40,41
 1825 213 1825 213 2046 213 c 2,42,-1
 3217 213 l 1,0,-1
2039 1988 m 1,43,-1
 1674 1720 l 1,44,-1
 1638 1855 l 1,45,-1
 1955 2179 l 1,46,-1
 2039 1988 l 1,43,-1
1658 1988 m 1,47,-1
 1293 1720 l 1,48,-1
 1257 1855 l 1,49,-1
 1572 2179 l 1,50,-1
 1658 1988 l 1,47,-1
EndSplineSet
Validated: 1
EndChar

StartChar: uhungarumlaut
Encoding: 369 369 430
Width: 2062
Flags: W
LayerCount: 2
Fore
SplineSet
2322 213 m 1,0,-1
 2195 0 l 1,1,-1
 946 0 l 2,2,3
 664 0 664 0 664 197 c 0,4,5
 664 230 664 230 702 362 c 1,6,7
 375 0 375 0 164 0 c 0,8,9
 -4 0 -4 0 -4 166 c 0,10,11
 -4 224 -4 224 16 291 c 2,12,-1
 201 915 l 1,13,-1
 424 915 l 1,14,-1
 310 565 l 2,15,16
 229 315 229 315 221 225 c 1,17,-1
 238 213 l 1,18,19
 325 213 325 213 579 516 c 0,20,21
 788 766 788 766 877 915 c 1,22,-1
 1085 915 l 1,23,-1
 974 576 l 2,24,25
 902 357 902 357 885 240 c 1,26,-1
 896 219 l 1,27,28
 915 213 915 213 2322 213 c 1,0,-1
1169 1295 m 1,29,-1
 804 1027 l 1,30,-1
 768 1162 l 1,31,-1
 1085 1486 l 1,32,-1
 1169 1295 l 1,29,-1
788 1295 m 1,33,-1
 423 1027 l 1,34,-1
 387 1162 l 1,35,-1
 702 1486 l 1,36,-1
 788 1295 l 1,33,-1
EndSplineSet
Validated: 1
EndChar

StartChar: Wcircumflex
Encoding: 372 372 431
Width: 2996
Flags: W
LayerCount: 2
Fore
SplineSet
2998 1638 m 1,0,-1
 2195 285 l 2,1,2
 2014 -20 2014 -20 1817 -20 c 256,3,4
 1620 -20 1620 -20 1620 174 c 0,5,6
 1620 239 1620 239 1645 324 c 2,7,-1
 1935 1313 l 2,8,9
 1958 1391 1958 1391 1958 1417 c 0,10,11
 1958 1433 1958 1433 1946 1440 c 1,12,13
 1908 1440 1908 1440 1806 1266 c 2,14,-1
 1231 285 l 2,15,16
 1146 139 1146 139 1077 76 c 0,17,18
 975 -18 975 -18 842 -18 c 0,19,20
 657 -18 657 -18 657 176 c 0,21,22
 657 342 657 342 796.5 712 c 128,-1,23
 936 1082 936 1082 936 1241 c 0,24,25
 936 1425 936 1425 696 1425 c 2,26,-1
 8 1425 l 1,27,-1
 133 1638 l 1,28,-1
 750 1638 l 2,29,30
 934 1638 934 1638 1040 1560 c 0,31,32
 1161 1472 1161 1472 1161 1294 c 0,33,34
 1161 1201 1161 1201 1128 1090 c 2,35,-1
 901 326 l 2,36,37
 874 235 874 235 874 223 c 0,38,39
 874 206 874 206 893 199 c 1,40,41
 936 199 936 199 1026 350 c 2,42,-1
 1614 1339 l 2,43,44
 1710 1500 1710 1500 1782 1565 c 0,45,46
 1889 1661 1889 1661 2038 1661 c 256,47,48
 2187 1661 2187 1661 2187 1485 c 0,49,50
 2187 1400 2187 1400 2157 1300 c 2,51,-1
 1853 289 l 2,52,53
 1839 242 1839 242 1839 219 c 1,54,-1
 1853 199 l 1,55,56
 1903 199 1903 199 1993 352 c 2,57,-1
 2753 1638 l 1,58,-1
 2998 1638 l 1,0,-1
2352 1825 m 1,59,-1
 2249 1743 l 1,60,-1
 2036 1919 l 1,61,-1
 1780 1751 l 1,62,-1
 1686 1833 l 1,63,-1
 2067 2152 l 1,64,-1
 2352 1825 l 1,59,-1
EndSplineSet
Validated: 1
EndChar

StartChar: wcircumflex
Encoding: 373 373 432
Width: 2568
Flags: W
LayerCount: 2
Fore
SplineSet
2836 213 m 1,0,-1
 2710 0 l 1,1,-1
 465 0 l 2,2,3
 332 0 332 0 250 52 c 0,4,5
 152 114 152 114 152 240 c 0,6,7
 152 317 152 317 213 453 c 128,-1,8
 274 589 274 589 274 633 c 0,9,10
 274 707 274 707 186 707 c 0,11,12
 170 707 170 707 137 704.5 c 128,-1,13
 104 702 104 702 88 702 c 1,14,-1
 158 915 l 1,15,-1
 281 915 l 2,16,17
 504 915 504 915 504 717 c 0,18,19
 504 634 504 634 439.5 485 c 128,-1,20
 375 336 375 336 375 283 c 0,21,22
 375 209 375 209 522 209 c 0,23,24
 538 209 538 209 570 211 c 128,-1,25
 602 213 602 213 618 213 c 1,26,-1
 825 915 l 1,27,-1
 1049 915 l 1,28,-1
 842 213 l 1,29,-1
 1110 213 l 1,30,-1
 1319 915 l 1,31,-1
 1542 915 l 1,32,-1
 1337 213 l 1,33,-1
 2836 213 l 1,0,-1
1319 1119 m 1,34,-1
 1216 1037 l 1,35,-1
 1003 1213 l 1,36,-1
 747 1045 l 1,37,-1
 653 1127 l 1,38,-1
 1034 1446 l 1,39,-1
 1319 1119 l 1,34,-1
EndSplineSet
Validated: 1
EndChar

StartChar: Ycircumflex
Encoding: 374 374 433
Width: 2740
Flags: W
LayerCount: 2
Fore
SplineSet
3056 213 m 1,0,-1
 2929 0 l 1,1,-1
 1536 0 l 1,2,3
 1415 -215 1415 -215 1223 -331 c 0,4,5
 1028 -449 1028 -449 784 -449 c 0,6,7
 600 -449 600 -449 464 -393 c 0,8,9
 279 -317 279 -317 279 -160 c 0,10,11
 279 218 279 218 1132 218 c 0,12,13
 1197 218 1197 218 1292 216 c 2,14,-1
 1409 213 l 1,15,16
 1434 285 1434 285 1655 1020 c 1,17,18
 1424 700 1424 700 1333 602 c 0,19,20
 1099 350 1099 350 903 350 c 0,21,22
 690 350 690 350 690 573 c 0,23,24
 690 691 690 691 780 931.5 c 128,-1,25
 870 1172 870 1172 870 1284 c 0,26,27
 870 1425 870 1425 698 1425 c 2,28,-1
 -4 1425 l 1,29,-1
 121 1638 l 1,30,-1
 750 1638 l 2,31,32
 904 1638 904 1638 997 1566 c 0,33,34
 1100 1487 1100 1487 1100 1337 c 0,35,36
 1100 1215 1100 1215 1006.5 972.5 c 128,-1,37
 913 730 913 730 913 621 c 0,38,39
 913 569 913 569 958 569 c 0,40,41
 1059 569 1059 569 1430 1042 c 0,42,43
 1681 1362 1681 1362 1866 1638 c 1,44,-1
 2060 1638 l 1,45,-1
 1632 213 l 1,46,-1
 3056 213 l 1,0,-1
1294 0 m 1,47,-1
 924 0 l 2,48,49
 516 0 516 0 516 -145 c 0,50,51
 516 -201 516 -201 609 -229 c 0,52,53
 673 -248 673 -248 752 -248 c 0,54,55
 1109 -248 1109 -248 1294 0 c 1,47,-1
1788 1800 m 1,56,-1
 1685 1718 l 1,57,-1
 1472 1894 l 1,58,-1
 1216 1726 l 1,59,-1
 1122 1808 l 1,60,-1
 1503 2127 l 1,61,-1
 1788 1800 l 1,56,-1
EndSplineSet
Validated: 1
EndChar

StartChar: ycircumflex
Encoding: 375 375 434
Width: 2062
Flags: W
LayerCount: 2
Fore
SplineSet
2329 213 m 1,0,-1
 2202 0 l 1,1,-1
 1233 0 l 2,2,3
 1008 0 1008 0 795 -61 c 1,4,-1
 700 -395 l 2,5,6
 675 -482 675 -482 626.5 -516.5 c 128,-1,7
 578 -551 578 -551 485 -551 c 2,8,-1
 37 -551 l 1,9,10
 141 -107 141 -107 610 84 c 1,11,-1
 700 362 l 1,12,13
 373 0 373 0 162 0 c 0,14,15
 -6 0 -6 0 -6 166 c 0,16,17
 -6 274 -6 274 77 540 c 0,18,19
 89 577 89 577 197 915 c 1,20,-1
 420 915 l 1,21,-1
 307 562 l 2,22,23
 224 301 224 301 219 225 c 1,24,-1
 236 213 l 1,25,26
 325 214 325 214 577 516 c 0,27,28
 789 770 789 770 872 915 c 1,29,-1
 1083 915 l 1,30,-1
 856 160 l 1,31,32
 1070 213 1070 213 1225 213 c 2,33,-1
 2329 213 l 1,0,-1
557 -139 m 1,34,35
 391 -233 391 -233 332 -360 c 1,36,-1
 428 -360 l 2,37,38
 493 -360 493 -360 523 -275 c 1,39,-1
 557 -139 l 1,34,35
1023 1102 m 1,40,-1
 920 1020 l 1,41,-1
 707 1196 l 1,42,-1
 451 1028 l 1,43,-1
 357 1110 l 1,44,-1
 738 1429 l 1,45,-1
 1023 1102 l 1,40,-1
EndSplineSet
Validated: 1
EndChar

StartChar: Zacute
Encoding: 377 377 435
Width: 2183
Flags: W
LayerCount: 2
Fore
SplineSet
2451 213 m 1,0,-1
 2327 0 l 1,1,-1
 1268 0 l 1,2,3
 1152 -214 1152 -214 940 -333 c 0,4,5
 733 -449 733 -449 485 -449 c 0,6,7
 307 -449 307 -449 177 -392 c 0,8,9
 6 -317 6 -317 6 -162 c 0,10,11
 6 85 6 85 245 167 c 0,12,13
 379 213 379 213 686 213 c 2,14,-1
 1114 213 l 1,15,16
 1137 281 1137 281 1137 354 c 0,17,18
 1137 540 1137 540 964 637 c 0,19,20
 824 715 824 715 623 715 c 0,21,22
 531 715 531 715 444 702 c 1,23,-1
 524 915 l 1,24,-1
 1247 1425 l 1,25,-1
 408 1425 l 1,26,-1
 512 1638 l 1,27,-1
 1735 1638 l 1,28,-1
 1634 1425 l 1,29,-1
 864 901 l 1,30,31
 1082 880 1082 880 1221 737 c 0,32,33
 1364 590 1364 590 1364 373 c 0,34,35
 1364 279 1364 279 1337 213 c 1,36,-1
 2451 213 l 1,0,-1
1014 0 m 1,37,-1
 663 0 l 2,38,39
 471 0 471 0 406 -11 c 0,40,41
 233 -40 233 -40 233 -147 c 0,42,43
 233 -246 233 -246 483 -246 c 0,44,45
 819 -246 819 -246 1014 0 c 1,37,-1
1473 2030 m 1,46,-1
 1108 1762 l 1,47,-1
 1071 1897 l 1,48,-1
 1387 2221 l 1,49,-1
 1473 2030 l 1,46,-1
EndSplineSet
Validated: 1
EndChar

StartChar: zacute
Encoding: 378 378 436
Width: 1720
Flags: W
LayerCount: 2
Fore
SplineSet
1987 213 m 1,0,-1
 1866 0 l 1,1,-1
 63 0 l 2,2,3
 -61 0 -61 0 -61 115 c 0,4,5
 -61 172 -61 172 29 256 c 2,6,-1
 506 702 l 1,7,-1
 111 702 l 1,8,-1
 213 915 l 1,9,-1
 909 915 l 1,10,-1
 838 702 l 1,11,-1
 297 213 l 1,12,-1
 1987 213 l 1,0,-1
799 1284 m 1,13,-1
 434 1016 l 1,14,-1
 397 1151 l 1,15,-1
 713 1475 l 1,16,-1
 799 1284 l 1,13,-1
EndSplineSet
Validated: 1
EndChar

StartChar: Zdotaccent
Encoding: 379 379 437
Width: 2183
Flags: W
LayerCount: 2
Fore
SplineSet
2451 213 m 1,0,-1
 2327 0 l 1,1,-1
 1268 0 l 1,2,3
 1152 -214 1152 -214 940 -333 c 0,4,5
 733 -449 733 -449 485 -449 c 0,6,7
 307 -449 307 -449 177 -392 c 0,8,9
 6 -317 6 -317 6 -162 c 0,10,11
 6 85 6 85 245 167 c 0,12,13
 379 213 379 213 686 213 c 2,14,-1
 1114 213 l 1,15,16
 1137 281 1137 281 1137 354 c 0,17,18
 1137 540 1137 540 964 637 c 0,19,20
 824 715 824 715 623 715 c 0,21,22
 531 715 531 715 444 702 c 1,23,-1
 524 915 l 1,24,-1
 1247 1425 l 1,25,-1
 408 1425 l 1,26,-1
 512 1638 l 1,27,-1
 1735 1638 l 1,28,-1
 1634 1425 l 1,29,-1
 864 901 l 1,30,31
 1082 880 1082 880 1221 737 c 0,32,33
 1364 590 1364 590 1364 373 c 0,34,35
 1364 279 1364 279 1337 213 c 1,36,-1
 2451 213 l 1,0,-1
1014 0 m 1,37,-1
 663 0 l 2,38,39
 471 0 471 0 406 -11 c 0,40,41
 233 -40 233 -40 233 -147 c 0,42,43
 233 -246 233 -246 483 -246 c 0,44,45
 819 -246 819 -246 1014 0 c 1,37,-1
1296 1945 m 0,46,47
 1296 1871 1296 1871 1244 1819 c 128,-1,48
 1192 1767 1192 1767 1118 1767 c 0,49,50
 1045 1767 1045 1767 992.5 1819.5 c 128,-1,51
 940 1872 940 1872 940 1945 c 0,52,53
 940 2019 940 2019 992 2071 c 128,-1,54
 1044 2123 1044 2123 1118 2123 c 0,55,56
 1191 2123 1191 2123 1243.5 2070.5 c 128,-1,57
 1296 2018 1296 2018 1296 1945 c 0,46,47
EndSplineSet
Validated: 1
EndChar

StartChar: zdotaccent
Encoding: 380 380 438
Width: 1720
Flags: W
LayerCount: 2
Fore
SplineSet
1987 213 m 1,0,-1
 1866 0 l 1,1,-1
 63 0 l 2,2,3
 -61 0 -61 0 -61 115 c 0,4,5
 -61 172 -61 172 29 256 c 2,6,-1
 506 702 l 1,7,-1
 111 702 l 1,8,-1
 213 915 l 1,9,-1
 909 915 l 1,10,-1
 838 702 l 1,11,-1
 297 213 l 1,12,-1
 1987 213 l 1,0,-1
764 1231 m 0,13,14
 764 1157 764 1157 712 1105 c 128,-1,15
 660 1053 660 1053 586 1053 c 0,16,17
 513 1053 513 1053 460.5 1105.5 c 128,-1,18
 408 1158 408 1158 408 1231 c 0,19,20
 408 1305 408 1305 460 1357 c 128,-1,21
 512 1409 512 1409 586 1409 c 0,22,23
 659 1409 659 1409 711.5 1356.5 c 128,-1,24
 764 1304 764 1304 764 1231 c 0,13,14
EndSplineSet
Validated: 1
EndChar

